<?xml version="1.0" encoding="iso-8859-1"?>
<svg version="1.1" id="Layer_1" xmlns="http://www.w3.org/2000/svg" xmlns:xlink="http://www.w3.org/1999/xlink" x="0px" y="0px"
	 viewBox="0 0 512.001 512.001" style="enable-background:new 0 0 512.001 512.001;" xml:space="preserve">
<g>
	<g>
		<path d="M505.072,318.058c-6.577-38.667-31.134-55.313-50.867-68.688c-12.979-8.798-24.005-16.275-30.76-28.822
			c-4.865-22.515-12.893-43.839-23.814-63.189c11.904-22.923,18.162-48.475,18.162-74.514c0-16.972-2.63-33.72-7.819-49.778
			l-31.853,10.291c4.113,12.728,6.197,26.015,6.197,39.488c0,14.488-2.441,28.782-7.15,42.296
			c-14.405-16.887-30.855-30.397-48.696-40.211c0.02-0.695,0.056-1.39,0.056-2.085c0-13.943-3.965-26.976-10.812-38.044
			l21.129-21.131l-23.671-23.67l-21.129,21.13c-11.068-6.849-24.101-10.813-38.045-10.813c-13.944,0-26.976,3.964-38.045,10.812
			L196.827,0l-23.67,23.67l21.129,21.129c-6.849,11.069-10.813,24.101-10.813,38.046c0,0.696,0.032,1.391,0.052,2.087
			c-17.84,9.814-34.288,23.324-48.693,40.21c-4.709-13.514-7.15-27.808-7.15-42.296c0-13.472,2.084-26.758,6.197-39.488
			l-31.853-10.291c-5.187,16.059-7.819,32.806-7.819,49.778c0,26.039,6.26,51.591,18.162,74.514
			c-10.921,19.349-18.948,40.674-23.814,63.189c-6.756,12.546-17.782,20.023-30.76,28.822c-19.733,13.374-44.29,30.02-50.867,68.689
			c-5.962,35.054,7.749,57.555,21.07,75.894l27.084-19.673c-10.908-15.018-18.95-28.281-15.153-50.61
			c4.18-24.585,18.508-34.296,36.647-46.591c2.111-1.43,4.279-2.903,6.473-4.432c0.019,41.575,10.277,81.323,29.319,115.061
			c-11.904,22.923-18.162,48.476-18.162,74.514c0,16.972,2.63,33.72,7.819,49.778l31.853-10.291
			c-4.113-12.728-6.197-26.014-6.197-39.488c0-14.488,2.441-28.782,7.15-42.296c32.493,38.092,75.392,59.033,121.169,59.033
			s88.676-20.938,121.169-59.03c4.709,13.514,7.15,27.808,7.15,42.296c0,13.472-2.084,26.758-6.197,39.488l31.853,10.291
			c5.187-16.059,7.818-32.806,7.818-49.778c0-26.039-6.26-51.591-18.162-74.514c19.042-33.738,29.301-73.485,29.319-115.061
			c2.194,1.529,4.362,3,6.473,4.432c18.139,12.295,32.467,22.006,36.647,46.591c3.797,22.329-4.245,35.592-15.153,50.61
			l27.084,19.673C497.323,375.613,511.034,353.112,505.072,318.058z M256.002,43.791c17.348,0,32.083,11.374,37.16,27.054
			c-12.063-3.123-24.5-4.738-37.16-4.738c-12.66,0-25.097,1.615-37.16,4.738C223.919,55.165,238.654,43.791,256.002,43.791z
			 M239.265,444.235c-69.046-10.286-122.741-83.36-122.741-171.702c0-14.19,1.395-27.98,4.007-41.185
			c1.292-2.841,2.468-5.844,3.506-9.027h115.228V444.235z M133.976,188.847c23.818-53.186,69.585-89.265,122.026-89.265
			s98.207,36.079,122.025,89.265H133.976z M272.739,444.235V222.322h115.228c1.038,3.183,2.213,6.186,3.506,9.027
			c2.612,13.205,4.007,26.995,4.007,41.185C395.479,360.875,341.783,433.95,272.739,444.235z"
			stroke="white" fill="white" />
	</g>
</g>
</svg>
