<?xml version="1.0" encoding="UTF-8" standalone="no"?>
<!DOCTYPE svg PUBLIC "-//W3C//DTD SVG 1.1//EN" "http://www.w3.org/Graphics/SVG/1.1/DTD/svg11.dtd">
<svg version="1.1" xmlns="http://www.w3.org/2000/svg" xmlns:dc="http://purl.org/dc/elements/1.1/" xmlns:xl="http://www.w3.org/1999/xlink" viewBox="0 0 300 200" width="300" height="200">
  <defs/>
  <metadata> Produced by OmniGraffle 7.18.6\n2022-07-23 20:47:21 +0000</metadata>
  <g id="Canvas_1" fill="none" stroke="none" stroke-dasharray="none" stroke-opacity="1" fill-opacity="1">
    <title>Canvas 1</title>
    <rect fill="white" x="0" y="0" width="300" height="200"/>
    <g id="Canvas_1_Layer_1">
      <title>Layer 1</title>
      <g id="Group_2">
        <g id="Graphic_39">
          <path d="M 149.66761 60.761704 C 150.66761 61.361704 153.16761 62.061704 155.16761 62.261704 C 157.16761 62.561704 159.26761 63.161704 159.86761 63.661704 C 160.6676 64.261704 161.2676 64.061704 161.5676 63.061704 C 162.0676 61.961704 163.0676 61.761704 165.4676 62.161704 C 169.7676 62.961704 182.2676 68.561704 182.2676 69.761704 C 182.2676 70.261704 183.4676 71.061704 184.8676 71.561704 C 187.0676 72.461704 187.3676 73.061704 186.8676 75.3617 C 186.3676 77.3617 186.4676 77.6617 187.2676 76.5617 C 188.1676 75.2617 188.3676 75.2617 189.2676 76.5617 C 189.7676 77.3617 190.0676 78.6617 189.7676 79.3617 C 189.4676 80.0617 189.8676 81.6617 190.6676 82.8617 C 192.4676 85.7617 191.9676 93.5617 189.8676 95.1617 C 188.9676 95.7617 188.2676 96.7617 188.2676 97.4617 C 188.2676 98.0617 187.5676 98.5617 186.7676 98.5617 C 184.7676 98.5617 182.8676 102.2617 184.5676 102.8617 C 185.2676 103.1617 184.5676 103.7617 183.0676 104.3617 C 181.6676 104.9617 180.1676 105.8617 179.8676 106.4617 C 179.0676 107.6617 176.2676 106.7617 176.2676 105.3617 C 176.2676 104.7617 177.0676 104.9617 177.9676 105.6617 C 179.4676 106.8617 179.5676 106.8617 178.9676 105.2617 C 178.0676 102.8617 179.1676 100.5617 181.2676 100.5617 C 182.5676 100.5617 183.0676 99.9617 182.7676 98.5617 C 182.4676 97.1617 183.2676 96.3617 185.8676 95.3617 C 187.7676 94.7617 189.3676 93.6617 189.4676 93.0617 C 189.9676 89.3617 189.8676 86.6617 189.1676 87.1617 C 188.6676 87.4617 188.2676 87.1617 188.2676 86.6617 C 188.2676 86.0617 189.0676 85.5617 189.9676 85.5617 C 191.4676 85.5617 191.5676 85.3617 190.2676 84.6617 C 189.4676 84.0617 188.4676 83.9617 188.0676 84.1617 C 187.6676 84.4617 187.2676 84.1617 187.2676 83.6617 C 187.2676 83.0617 186.8676 82.5617 186.2676 82.5617 C 185.2676 82.5617 187.1676 87.6617 188.5676 88.6617 C 189.0676 88.9617 188.6676 89.9617 187.8676 90.8617 C 186.6676 91.9617 186.5676 92.5617 187.5676 92.9617 C 188.1676 93.1617 187.6676 93.2617 186.3676 93.1617 C 183.1676 92.7617 180.2676 85.6617 182.7676 84.2617 C 184.8676 83.1617 184.6676 81.5617 182.3676 81.5617 C 181.2676 81.5617 180.1676 81.1617 179.8676 80.7617 C 179.2676 79.7617 183.4676 79.9617 185.0676 80.9617 C 185.7676 81.3617 186.2676 81.1617 186.2676 80.4617 C 186.2676 79.6617 186.7676 79.8617 187.4676 80.8617 C 188.6676 82.4617 188.7676 82.3617 188.7676 80.2617 C 188.7676 78.4617 188.2676 77.9617 186.5676 78.1617 C 184.9676 78.2617 184.5676 77.9617 184.9676 76.8617 C 185.3676 75.7617 185.1676 75.4617 184.1676 75.7617 C 183.3676 76.0617 182.9676 77.1617 183.0676 78.1617 C 183.3676 79.6617 183.1676 79.7617 182.2676 78.8617 C 181.5676 78.2617 180.3676 77.9617 179.6676 78.2617 C 178.8676 78.5617 178.2676 78.2617 178.2676 77.5617 C 178.2676 76.9617 178.7676 76.7617 179.3676 77.1617 C 180.0676 77.5617 180.2676 77.1617 179.8676 75.7617 C 179.4676 74.661704 179.6676 73.461704 180.2676 73.061704 C 180.7676 72.761704 181.2676 71.861704 181.2676 71.261704 C 181.2676 70.561704 180.8676 70.661704 180.2676 71.561704 C 179.4676 72.761704 178.8676 72.561704 176.4676 70.261704 C 173.8676 67.761704 170.2676 67.361704 170.2676 69.561704 C 170.2676 70.461704 173.3676 71.961704 174.5676 71.661704 C 175.0676 71.561704 175.1676 71.961704 174.7676 72.561704 C 174.4676 73.061704 174.6676 73.561704 175.3676 73.561704 C 176.1676 73.561704 176.1676 73.961704 175.2676 75.061704 C 174.1676 76.3617 174.4676 76.9617 176.3676 76.7617 C 176.6676 76.6617 176.9676 77.2617 176.9676 78.0617 C 176.9676 78.7617 176.3676 79.1617 175.5676 78.8617 C 174.8676 78.5617 174.2676 77.9617 174.2676 77.4617 C 174.2676 76.9617 173.2676 76.9617 171.9676 77.4617 C 170.7676 77.8617 169.0676 78.0617 168.2676 77.7617 C 166.9676 77.2617 166.9676 77.4617 168.2676 79.1617 C 170.5676 82.1617 171.4676 82.4617 173.9676 81.4617 C 177.0676 80.3617 176.9676 80.2617 176.9676 82.0617 C 176.9676 83.1617 176.0676 83.4617 173.5676 83.1617 C 169.7676 82.7617 169.4676 84.4617 173.0676 86.0617 C 175.3676 87.0617 176.0676 88.5617 174.2676 88.5617 C 172.4676 88.5617 173.2676 90.4617 175.3676 91.0617 C 176.5676 91.4617 177.1676 92.2617 176.8676 93.1617 C 176.5676 94.0617 177.4676 95.1617 179.3676 96.1617 C 181.0676 96.9617 182.2676 97.9617 181.9676 98.1617 C 181.2676 98.9617 176.2676 97.4617 176.2676 96.4617 C 176.2676 95.9617 174.8676 94.8617 173.1676 93.9617 C 170.7676 92.7617 169.7676 92.6617 169.2676 93.5617 C 168.7676 94.3617 168.3676 94.1617 167.8676 92.9617 C 167.5676 92.0617 166.9676 91.5617 166.6676 91.8617 C 166.2676 92.1617 165.1676 91.5617 163.9676 90.4617 C 160.8676 87.5617 158.36761 87.9617 157.56761 91.6617 C 157.16761 93.8617 156.76761 94.3617 156.16761 93.3617 C 155.56761 92.4617 155.26761 92.6617 155.26761 94.2617 C 155.26761 95.5617 155.76761 96.5617 156.36761 96.5617 C 156.86761 96.5617 157.06761 96.9617 156.76761 97.5617 C 156.46761 98.0617 156.86761 98.5617 157.66761 98.5617 C 158.56761 98.5617 159.26761 99.2617 159.26761 100.0617 C 159.26761 100.8617 158.76761 101.5617 158.16761 101.5617 C 157.66761 101.5617 157.36761 101.1617 157.66761 100.6617 C 157.96761 100.1617 157.56761 99.5617 156.76761 99.1617 C 155.36761 98.6617 154.86761 99.6617 155.16761 102.2617 C 155.26761 102.9617 154.86761 103.5617 154.26761 103.5617 C 152.86761 103.5617 152.96761 100.2617 154.46761 98.7617 C 155.46761 97.7617 155.46761 97.2617 154.26761 96.5617 C 153.16761 95.8617 152.56761 96.1617 151.96761 97.9617 C 151.06761 100.6617 152.76761 105.9617 154.26761 105.0617 C 154.86761 104.6617 155.26761 104.7617 155.16761 105.2617 C 154.86761 107.1617 155.36761 108.6617 156.16761 108.0617 C 157.36761 107.3617 160.6676 110.6617 159.56761 111.4617 C 159.06761 111.7617 158.26761 112.9617 157.86761 114.0617 C 157.36761 115.2617 156.86761 115.5617 156.56761 114.8617 C 156.36761 114.1617 156.56761 112.8617 157.16761 111.7617 C 157.86761 110.3617 157.86761 109.8617 156.76761 109.8617 C 155.96761 109.8617 155.56761 110.2617 155.86761 110.7617 C 156.16761 111.1617 155.96761 111.5617 155.36761 111.5617 C 154.76761 111.5617 154.56761 112.2617 154.96761 113.1617 C 155.26761 114.0617 154.96761 115.1617 154.16761 115.6617 C 152.26761 116.8617 151.26761 116.7617 151.26761 115.4617 C 151.26761 114.9617 151.66761 114.6617 152.16761 115.0617 C 152.66761 115.3617 153.36761 115.1617 153.76761 114.5617 C 154.06761 113.9617 153.36761 113.5617 152.06761 113.5617 L 149.86761 113.5617 L 152.06761 111.9617 C 153.26761 111.1617 154.26761 110.0617 154.26761 109.5617 C 154.26761 107.8617 150.06761 104.6617 148.36761 105.2617 C 147.06761 105.6617 147.06761 105.5617 148.16761 104.7617 C 148.86761 104.2617 149.16761 103.2617 148.86761 102.6617 C 148.46761 102.0617 148.56761 101.5617 149.06761 101.5617 C 149.56761 101.5617 149.96761 100.8617 149.96761 100.0617 C 149.96761 98.8617 149.66761 98.8617 148.36761 99.8617 C 147.46761 100.5617 147.16761 100.6617 147.56761 99.9617 C 147.96761 99.2617 147.56761 98.8617 146.66761 98.9617 C 145.56761 98.9617 144.56761 97.7617 143.76761 95.5617 C 142.96761 93.2617 141.96761 92.1617 140.86761 92.3617 C 139.96761 92.5617 139.26761 91.9617 139.26761 91.1617 C 139.26761 90.3617 138.76761 89.3617 138.06761 88.9617 C 137.26761 88.4617 137.16761 88.7617 137.56761 89.9617 C 137.96761 90.8617 137.56761 92.7617 136.66761 94.0617 C 135.76761 95.4617 135.26761 97.1617 135.56761 97.9617 C 136.26761 99.6617 139.46761 99.4617 140.06761 97.7617 C 140.26761 97.0617 139.86761 96.7617 139.06761 97.0617 C 138.16761 97.4617 137.66761 96.8617 137.56761 95.5617 C 137.26761 92.4617 138.86761 93.1617 140.66761 97.0617 C 142.16761 100.1617 143.16761 100.9617 145.36761 100.7617 C 145.66761 100.7617 145.96761 102.2617 146.06761 104.1617 C 146.26761 106.0617 145.86761 107.5617 145.26761 107.5617 C 144.76761 107.5617 144.26761 108.6617 144.26761 109.8617 C 144.26761 111.1617 143.36761 113.0617 142.26761 114.0617 C 139.36761 116.6617 139.56761 114.0617 142.76761 108.1617 C 145.66761 102.6617 145.66761 102.5617 143.86761 102.5617 C 143.06761 102.5617 142.26761 101.8617 141.86761 101.0617 C 141.56761 100.2617 140.76761 99.5617 140.16761 99.5617 C 139.36761 99.5617 139.36761 99.9617 139.96761 100.7617 C 141.26761 102.3617 141.26761 105.5617 139.96761 105.5617 C 139.46761 105.5617 139.26761 104.9617 139.56761 104.1617 C 139.86761 103.3617 139.46761 101.9617 138.56761 100.8617 C 137.16761 99.1617 137.16761 99.1617 137.76761 100.9617 C 138.36761 102.8617 138.26761 102.8617 136.36761 101.1617 C 134.46761 99.4617 134.46761 99.4617 134.76761 103.2617 C 134.86761 105.3617 134.76761 106.0617 134.56761 104.7617 C 134.36761 103.5617 133.66761 102.5617 133.16761 102.5617 C 132.56761 102.5617 132.36761 102.9617 132.76761 103.4617 C 133.06761 103.9617 132.86761 104.6617 132.36761 104.9617 C 131.76761 105.3617 131.76761 106.9617 132.36761 109.0617 C 133.26761 112.0617 132.96761 113.4617 130.86761 118.0617 C 127.66761 124.7617 127.66761 125.3617 130.76761 126.5617 C 132.16761 127.0617 133.26761 128.1617 133.26761 129.0617 C 133.26761 129.8617 133.76761 130.5617 134.36761 130.5617 C 135.16761 130.5617 135.36761 129.0617 134.86761 125.9617 C 134.46761 122.8617 134.66761 121.6617 135.36761 122.1617 C 136.06761 122.5617 136.26761 122.1617 135.96761 120.9617 C 135.66761 119.8617 135.16761 117.2617 134.76761 115.1617 L 134.06761 111.2617 L 136.56761 114.1617 C 137.96761 115.7617 140.26761 117.7617 141.66761 118.4617 C 144.76761 120.1617 144.96761 122.6617 142.36761 126.9617 C 136.56761 136.1617 128.86761 139.0617 123.46761 133.7617 C 119.46761 129.8617 120.46761 127.7617 124.76761 131.0617 C 126.66761 132.4617 128.96761 133.5617 129.96761 133.5617 C 131.16761 133.4617 130.76761 133.0617 128.76761 132.0617 L 125.76761 130.6617 L 128.46761 131.0617 C 132.16761 131.5617 131.96761 130.4617 128.16761 128.3617 C 126.46761 127.3617 125.36761 126.1617 125.66761 125.6617 C 126.76761 123.9617 123.46761 123.6617 121.26761 125.2617 C 119.16761 126.7617 119.06761 126.7617 120.16761 124.7617 C 120.76761 123.6617 121.66761 122.5617 122.16761 122.3617 C 122.96761 122.0617 123.56761 117.5617 123.36761 113.2617 C 123.16761 110.0617 121.26761 111.5617 121.26761 114.9617 C 121.26761 116.7617 120.56761 118.8617 119.76761 119.5617 C 118.46761 120.6617 118.26761 120.2617 118.26761 116.7617 C 118.26761 111.4617 119.06761 109.5617 120.96761 110.2617 C 121.76761 110.5617 122.86761 110.2617 123.46761 109.4617 C 124.26761 108.3617 124.36761 108.3617 123.96761 109.7617 C 123.66761 110.6617 123.96761 111.6617 124.76761 111.9617 C 125.76761 112.3617 125.96761 113.2617 125.26761 115.4617 C 124.66761 117.5617 124.76761 118.5617 125.46761 118.5617 C 126.06761 118.5617 126.26761 119.4617 125.96761 120.6617 C 125.66761 121.9617 125.86761 122.5617 126.56761 122.2617 C 127.26761 122.0617 127.66761 120.6617 127.56761 119.1617 C 127.46761 117.7617 127.76761 116.7617 128.26761 117.0617 C 128.66761 117.3617 128.86761 116.6617 128.56761 115.4617 C 128.26761 114.2617 128.46761 113.0617 129.06761 112.6617 C 130.66761 111.6617 129.36761 107.3617 127.66761 107.9617 C 126.86761 108.2617 126.26761 108.0617 126.26761 107.5617 C 126.26761 106.9617 125.56761 106.5617 124.66761 106.5617 C 123.76761 106.5617 123.26761 105.9617 123.56761 105.2617 C 123.76761 104.5617 125.46761 104.1617 127.56761 104.2617 C 130.16761 104.3617 131.26761 104.0617 131.26761 102.9617 C 131.26761 102.1617 131.66761 101.5617 132.26761 101.5617 C 132.76761 101.5617 133.26761 101.0617 133.26761 100.5617 C 133.26761 98.9617 130.06761 99.4617 128.76761 101.1617 C 127.66761 102.6617 127.56761 102.6617 127.06761 100.7617 C 126.76761 99.5617 126.76761 98.6617 127.16761 98.7617 C 127.46761 98.7617 129.26761 98.7617 131.16761 98.6617 C 134.46761 98.5617 134.56761 98.4617 132.66761 97.0617 C 130.96761 95.7617 130.96761 95.6617 132.46761 95.5617 C 134.36761 95.5617 135.06761 92.5617 133.16761 92.5617 C 132.66761 92.5617 132.46761 91.9617 132.86761 91.2617 C 133.26761 90.6617 132.56761 90.9617 131.36761 91.9617 L 129.16761 93.9617 L 130.06761 91.4617 C 131.26761 88.3617 133.86761 87.8617 134.76761 90.5617 C 135.06761 91.6617 135.86761 92.2617 136.46761 91.9617 C 137.16761 91.5617 137.06761 91.0617 136.36761 90.5617 C 134.16761 89.2617 138.26761 87.1617 142.86761 87.1617 L 147.26761 87.1617 L 147.06761 83.3617 C 146.96761 81.2617 147.26761 79.2617 147.56761 78.8617 C 147.96761 78.5617 147.66761 77.5617 146.96761 76.7617 C 145.96761 75.4617 146.06761 75.3617 147.26761 75.7617 C 148.06761 76.0617 148.66761 77.0617 148.56761 77.9617 C 148.56761 78.9617 148.66761 79.4617 148.96761 79.1617 C 149.26761 78.8617 150.36761 79.0617 151.36761 79.6617 C 152.76761 80.3617 153.26761 80.2617 153.26761 79.3617 C 153.26761 78.6617 155.06761 80.0617 157.26761 82.5617 C 159.46761 84.9617 161.2676 86.4617 161.2676 85.7617 C 161.2676 85.0617 160.0676 83.4617 158.56761 82.1617 C 155.96761 79.9617 155.96761 79.8617 157.66761 77.4617 L 159.46761 75.061704 L 158.96761 77.4617 C 158.56761 79.0617 159.06761 80.4617 160.8676 82.2617 C 162.3676 83.7617 163.2676 84.1617 163.3676 83.3617 C 163.4676 82.6617 163.5676 81.5617 163.7676 81.0617 C 163.8676 80.4617 164.0676 79.4617 164.0676 78.6617 C 164.2676 77.5617 164.6676 77.6617 165.7676 79.1617 C 167.3676 81.2617 167.7676 84.5617 166.3676 84.5617 C 165.8676 84.5617 165.6676 83.5617 165.8676 82.2617 C 166.2676 80.7617 165.7676 81.1617 164.3676 83.5617 C 163.0676 85.8617 162.8676 87.1617 163.5676 87.4617 C 164.1676 87.6617 164.8676 87.3617 165.0676 86.7617 C 165.2676 86.0617 166.4676 85.8617 167.8676 86.1617 C 169.3676 86.5617 170.2676 86.3617 170.2676 85.6617 C 170.2676 85.0617 169.8676 84.5617 169.3676 84.5617 C 168.7676 84.5617 168.4676 83.7617 168.5676 82.7617 C 168.7676 80.1617 165.4676 75.8617 161.9676 74.161704 C 158.96761 72.761704 155.86761 69.261704 155.76761 67.161704 C 155.76761 66.661704 155.06761 66.061704 154.26761 65.761704 C 153.46761 65.461704 153.06761 65.661704 153.46761 66.061704 C 153.86761 66.561704 153.76761 67.461704 153.26761 68.061704 C 152.46761 68.961704 152.66761 69.461704 153.76761 69.961704 C 154.56761 70.261704 155.26761 71.261704 155.26761 72.261704 C 155.26761 73.661704 155.46761 73.761704 156.16761 72.761704 C 156.86761 71.661704 157.06761 71.661704 157.56761 72.761704 C 157.86761 73.661704 157.46761 74.261704 156.56761 74.261704 C 155.66761 74.261704 154.76761 73.361704 154.46761 72.361704 C 154.26761 71.361704 153.66761 70.861704 153.16761 71.161704 C 151.56761 72.161704 152.16761 73.461704 154.96761 74.961704 C 156.56761 75.7617 157.26761 76.5617 156.76761 76.6617 C 150.86761 77.5617 150.56761 77.4617 150.86761 75.061704 C 150.96761 73.761704 151.36761 72.161704 151.76761 71.661704 C 152.06761 71.061704 151.96761 70.561704 151.46761 70.561704 C 150.96761 70.561704 150.26761 71.461704 149.96761 72.661704 C 149.66761 73.861704 148.96761 74.461704 148.36761 74.061704 C 147.76761 73.761704 147.46761 73.061704 147.76761 72.561704 C 148.06761 72.061704 147.86761 71.461704 147.26761 71.061704 C 145.76761 70.161704 147.16761 68.361704 148.86761 68.961704 C 150.56761 69.561704 152.46761 66.261704 151.66761 64.161704 C 151.36761 63.261704 150.46761 62.561704 149.76761 62.561704 C 148.36761 62.561704 146.76761 60.761704 147.46761 60.061704 C 147.66761 59.861704 148.66761 60.161704 149.66761 60.761704 Z M 162.3676 64.261704 C 162.8676 67.261704 162.1676 67.761704 160.3676 66.161704 C 159.26761 65.161704 157.86761 64.661704 157.36761 65.061704 C 156.76761 65.361704 156.26761 65.161704 156.26761 64.661704 C 156.26761 64.061704 155.26761 63.561704 153.96761 63.561704 C 151.76761 63.561704 151.86761 63.661704 154.26761 64.861704 C 155.66761 65.561704 156.76761 66.661704 156.76761 67.361704 C 156.76761 68.061704 157.16761 68.461704 157.76761 68.261704 C 158.26761 68.161704 158.66761 67.461704 158.66761 66.761704 C 158.46761 64.961704 159.06761 65.261704 160.3676 67.661704 C 161.1676 69.161704 161.1676 69.561704 160.3676 69.161704 C 159.76761 68.761704 159.26761 68.961704 159.26761 69.561704 C 159.26761 70.161704 160.3676 71.061704 161.7676 71.561704 C 163.1676 72.061704 164.2676 72.861704 164.2676 73.361704 C 164.2676 74.361704 168.6676 76.5617 170.6676 76.5617 C 172.3676 76.5617 171.5676 72.061704 169.6676 70.461704 C 168.0676 69.161704 167.7676 67.161704 169.2676 68.061704 C 169.7676 68.361704 170.2676 68.061704 170.2676 67.361704 C 170.2676 65.961704 166.7676 63.861704 163.9676 63.661704 C 163.0676 63.661704 162.3676 63.861704 162.3676 64.261704 Z M 149.16761 82.2617 C 149.06761 83.2617 149.06761 84.4617 149.16761 84.9617 C 149.46761 86.5617 146.96761 88.6617 145.36761 88.0617 C 144.36761 87.7617 144.56761 88.2617 145.86761 89.2617 C 147.46761 90.5617 147.86761 91.5617 147.26761 93.0617 C 146.76761 94.1617 146.36761 94.4617 146.36761 93.7617 C 146.26761 93.1617 145.86761 92.5617 145.26761 92.5617 C 143.26761 92.5617 146.06761 96.9617 148.56761 97.6617 C 150.46761 98.1617 151.16761 97.9617 151.56761 96.5617 C 151.86761 95.3617 151.36761 94.5617 150.16761 94.2617 C 148.16761 93.7617 147.46761 91.5617 149.36761 91.5617 C 149.86761 91.5617 150.06761 92.0617 149.66761 92.7617 C 149.16761 93.5617 149.46761 93.6617 150.76761 93.1617 C 151.86761 92.7617 152.96761 92.9617 153.46761 93.7617 C 153.96761 94.6617 154.26761 94.3617 154.26761 92.7617 C 154.26761 90.7617 153.76761 90.3617 151.66761 90.6617 C 151.26761 90.6617 150.56761 90.1617 150.16761 89.3617 C 149.46761 88.3617 149.26761 88.3617 149.26761 89.3617 C 149.26761 90.0617 148.76761 90.3617 148.16761 89.9617 C 145.96761 88.6617 149.46761 87.7617 152.86761 88.8617 C 157.86761 90.3617 159.16761 88.6617 156.46761 84.3617 C 155.26761 82.5617 154.26761 81.7617 154.26761 82.5617 C 154.26761 83.7617 153.96761 83.6617 152.56761 82.2617 C 150.36761 80.0617 149.26761 80.0617 149.16761 82.2617 Z M 182.9676 85.2617 C 182.5676 85.5617 182.6676 86.3617 183.1676 86.9617 C 183.6676 87.5617 184.1676 88.4617 184.1676 88.9617 C 184.1676 89.5617 184.8676 90.0617 185.6676 90.1617 C 186.7676 90.3617 186.8676 89.7617 186.0676 87.4617 C 185.0676 84.5617 184.1676 83.9617 182.9676 85.2617 Z M 170.2676 87.6617 C 170.2676 88.2617 169.5676 88.5617 168.7676 88.1617 C 167.4676 87.6617 167.3676 87.9617 168.3676 89.6617 C 169.3676 91.6617 169.4676 91.6617 170.7676 89.8617 C 172.4676 87.6617 172.6676 86.5617 171.2676 86.5617 C 170.6676 86.5617 170.2676 87.0617 170.2676 87.6617 Z M 138.36761 128.8617 C 139.26761 131.0617 139.26761 131.0617 138.86761 128.7617 C 138.56761 127.3617 138.96761 126.2617 139.86761 125.8617 C 140.66761 125.5617 141.26761 124.9617 141.26761 124.3617 C 141.26761 123.8617 140.76761 123.7617 140.26761 124.0617 C 139.66761 124.3617 139.26761 123.8617 139.16761 122.8617 C 139.16761 121.7617 138.76761 122.1617 138.26761 123.8617 C 137.76761 125.5617 137.76761 127.6617 138.36761 128.8617 Z" fill="black"/>
        </g>
        <g id="Graphic_38">
          <path d="M 144.26761 61.561704 C 144.26761 62.061704 144.96761 62.561704 145.76761 62.561704 C 146.56761 62.561704 147.26761 62.961704 147.26761 63.561704 C 147.26761 64.061704 147.96761 64.261704 148.76761 63.961704 C 149.56761 63.561704 150.26761 63.861704 150.26761 64.561704 C 150.26761 65.161704 149.86761 65.461704 149.36761 65.061704 C 148.76761 64.761704 147.26761 66.061704 145.96761 68.061704 C 144.66761 69.961704 143.26761 71.261704 142.76761 70.761704 C 142.26761 70.361704 142.26761 70.661704 142.66761 71.261704 C 143.06761 71.961704 142.86761 72.561704 142.36761 72.561704 C 141.76761 72.561704 141.26761 73.061704 141.26761 73.561704 C 141.26761 74.261704 141.96761 74.261704 143.36761 73.561704 C 144.46761 72.861704 145.66761 72.661704 146.06761 72.961704 C 146.36761 73.261704 146.06761 73.561704 145.36761 73.561704 C 144.56761 73.561704 144.26761 74.161704 144.66761 75.1617 C 145.16761 76.4617 144.96761 76.5617 144.06761 75.8617 C 142.26761 74.561704 137.76761 75.7617 137.76761 77.5617 C 137.76761 78.3617 138.76761 79.4617 139.96761 80.0617 C 141.26761 80.5617 142.26761 81.3617 142.26761 81.7617 C 142.26761 82.7617 138.96761 81.4617 138.06761 80.1617 C 137.16761 78.7617 132.86761 78.6617 132.06761 79.9617 C 131.46761 80.7617 131.26761 80.7617 131.26761 79.9617 C 131.26761 79.3617 130.26761 78.9617 128.96761 79.0617 C 127.76761 79.1617 127.56761 79.0617 128.46761 78.8617 C 129.46761 78.6617 130.26761 77.9617 130.26761 77.4617 C 130.26761 76.9617 131.26761 76.6617 132.36761 76.8617 C 133.56761 76.9617 134.76761 76.4617 135.06761 75.6617 C 135.36761 74.661704 134.96761 74.361704 133.66761 74.761704 C 132.06761 75.1617 131.76761 74.561704 131.56761 71.061704 C 131.36761 67.661704 131.76761 66.261704 133.86761 64.061704 C 135.96761 61.761704 136.66761 61.561704 137.36761 62.661704 C 138.06761 63.761704 138.26761 63.761704 138.26761 62.261704 C 138.26761 61.061704 139.06761 60.561704 141.26761 60.561704 C 142.86761 60.561704 144.26761 60.961704 144.26761 61.561704 Z M 140.86761 64.861704 C 141.06761 65.961704 141.46761 67.061704 141.86761 67.461704 C 142.26761 67.761704 142.26761 67.261704 141.96761 66.261704 C 141.16761 64.261704 143.06761 63.961704 143.86761 66.061704 C 144.36761 67.161704 144.76761 67.261704 145.76761 66.261704 C 146.46761 65.561704 146.86761 64.661704 146.56761 64.161704 C 146.26761 63.761704 145.66761 63.961704 145.16761 64.661704 C 144.46761 65.761704 144.26761 65.661704 144.26761 64.361704 C 144.26761 63.361704 143.56761 62.761704 142.36761 62.861704 C 141.06761 62.961704 140.56761 63.561704 140.86761 64.861704 Z M 136.16761 65.461704 C 135.56761 64.461704 135.26761 64.661704 135.26761 66.261704 C 135.26761 67.561704 134.76761 68.561704 134.16761 68.561704 C 133.36761 68.561704 133.36761 68.961704 134.26761 70.061704 C 134.86761 70.861704 135.06761 72.061704 134.66761 72.661704 C 134.26761 73.361704 134.36761 73.561704 135.06761 73.161704 C 135.56761 72.861704 136.36761 73.161704 136.66761 73.761704 C 136.96761 74.461704 136.96761 73.461704 136.66761 71.461704 C 136.26761 68.661704 136.46761 67.661704 137.76761 67.161704 C 138.76761 66.861704 139.06761 66.061704 138.66761 65.361704 C 138.06761 64.461704 137.76761 64.461704 137.46761 65.461704 C 137.06761 66.561704 136.86761 66.561704 136.16761 65.461704 Z" fill="black"/>
        </g>
        <g id="Graphic_37">
          <path d="M 116.26761 69.261704 C 124.36761 69.661704 130.56761 70.661704 129.86761 71.261704 C 128.76761 72.461704 109.26761 72.761704 109.26761 71.661704 C 109.26761 70.461704 106.36761 70.261704 103.86761 71.161704 C 102.56761 71.661704 102.46761 72.061704 103.36761 73.161704 C 104.26761 74.261704 104.16761 74.561704 103.06761 74.561704 C 102.36761 74.561704 101.06761 73.661704 100.26761 72.561704 C 98.76761 70.461704 96.26761 69.861704 96.26761 71.661704 C 96.26761 72.261704 93.76761 72.661704 89.96761 72.561704 C 86.56761 72.561704 81.26761 72.961704 78.26761 73.461704 C 75.26761 74.061704 70.26761 74.861704 67.16761 75.4617 C 64.06761 75.9617 59.56761 76.9617 57.16761 77.6617 C 54.76761 78.3617 51.56761 78.7617 50.06761 78.6617 C 48.56761 78.5617 46.76761 78.7617 46.06761 79.1617 C 45.36761 79.6617 39.56761 80.0617 33.26761 80.2617 C 26.96761 80.3617 20.66761 80.5617 19.36761 80.7617 C 18.06761 80.9617 16.76761 80.5617 16.56761 79.9617 C 16.06761 78.3617 21.56761 76.5617 23.46761 77.6617 C 24.46761 78.2617 26.16761 78.1617 27.86761 77.4617 C 29.46761 76.9617 33.66761 76.4617 37.26761 76.5617 C 40.86761 76.6617 47.36761 76.1617 51.76761 75.5617 C 56.16761 74.961704 61.06761 74.261704 62.76761 74.061704 C 67.76761 73.361704 70.56761 72.861704 74.56761 71.761704 C 76.66761 71.161704 79.06761 70.961704 79.86761 71.261704 C 80.66761 71.561704 81.86761 71.361704 82.56761 70.761704 C 83.86761 69.761704 106.96761 68.661704 116.26761 69.261704 Z" fill="black"/>
        </g>
        <g id="Graphic_36">
          <path d="M 127.56761 75.6617 C 126.86761 76.3617 125.46761 76.3617 123.16761 75.7617 L 119.76761 74.761704 L 124.16761 74.661704 C 127.36761 74.561704 128.36761 74.861704 127.56761 75.6617 Z" fill="black"/>
        </g>
        <g id="Graphic_35">
          <path d="M 118.16761 76.4617 L 120.66761 78.3617 L 117.96761 77.8617 C 116.46761 77.5617 115.26761 76.8617 115.26761 76.3617 C 115.26761 75.8617 114.86761 75.6617 114.46761 75.9617 C 114.06761 76.1617 113.06761 76.0617 112.26761 75.4617 C 111.06761 74.761704 111.36761 74.561704 113.26761 74.561704 C 114.66761 74.561704 116.86761 75.4617 118.16761 76.4617 Z" fill="black"/>
        </g>
        <g id="Graphic_34">
          <path d="M 142.56761 77.3617 C 142.96761 77.9617 143.96761 78.2617 144.76761 77.8617 C 145.56761 77.5617 146.26761 77.8617 146.26761 78.5617 C 146.26761 79.1617 145.76761 79.3617 145.06761 78.9617 C 144.26761 78.4617 144.16761 78.7617 144.56761 79.8617 C 145.46761 82.1617 144.36761 84.5617 142.56761 84.5617 C 141.36761 84.5617 141.36761 84.2617 142.76761 82.9617 C 144.16761 81.4617 144.16761 81.2617 142.66761 80.1617 C 141.76761 79.4617 141.16761 78.2617 141.46761 77.5617 C 141.76761 76.5617 142.06761 76.4617 142.56761 77.3617 Z" fill="black"/>
        </g>
        <g id="Graphic_33">
          <path d="M 73.66761 79.9617 C 69.06761 81.9617 68.56761 83.5617 72.46761 83.6617 C 75.56761 83.6617 75.56761 83.7617 73.46761 84.6617 C 70.26761 85.8617 66.46761 84.8617 66.66761 82.7617 C 66.76761 80.8617 71.26761 78.5617 74.66761 78.5617 C 76.36761 78.6617 76.16761 78.8617 73.66761 79.9617 Z" fill="black"/>
        </g>
        <g id="Graphic_32">
          <path d="M 104.26761 80.8617 C 104.56761 81.0617 109.86761 81.5617 116.16761 81.9617 C 122.46761 82.2617 127.86761 82.7617 128.06761 83.0617 C 128.96761 83.9617 126.86761 83.9617 104.46761 82.6617 C 96.56761 82.2617 88.66761 82.1617 86.96761 82.5617 C 84.16761 83.2617 84.46761 83.3617 89.06761 83.4617 C 92.66761 83.5617 94.16761 83.9617 93.66761 84.6617 C 93.36761 85.2617 91.66761 85.5617 89.86761 85.2617 C 88.16761 84.9617 84.36761 85.1617 81.36761 85.6617 C 75.36761 86.5617 73.56761 86.1617 77.36761 84.6617 C 78.66761 84.1617 79.06761 83.6617 78.26761 83.6617 C 77.26761 83.5617 77.16761 83.2617 77.96761 82.4617 C 78.96761 81.4617 103.36761 79.8617 104.26761 80.8617 Z" fill="black"/>
        </g>
        <g id="Graphic_31">
          <path d="M 52.66761 84.0617 C 52.26761 84.8617 51.56761 85.5617 50.86761 85.5617 C 50.26761 85.5617 48.76761 85.8617 47.46761 86.1617 C 46.16761 86.5617 45.26761 86.3617 45.26761 85.6617 C 45.26761 85.0617 46.16761 84.5617 47.36761 84.5617 C 48.46761 84.5617 50.26761 84.0617 51.26761 83.5617 C 52.86761 82.7617 53.06761 82.7617 52.66761 84.0617 Z" fill="black"/>
        </g>
        <g id="Graphic_30">
          <path d="M 294.2676 84.7617 C 296.1676 85.2617 298.4676 86.3617 299.2676 87.2617 C 300.5676 88.6617 300.3676 88.7617 296.7676 88.1617 C 287.4676 86.6617 279.3676 86.4617 273.7676 87.5617 C 270.4676 88.1617 266.8676 88.8617 265.7676 88.9617 C 257.6676 90.1617 248.4676 93.5617 231.2676 101.9617 C 215.8676 109.4617 211.9676 111.9617 211.7676 114.1617 C 211.2676 119.7617 207.2676 124.1617 207.2676 119.0617 C 207.2676 117.6617 207.7676 116.6617 208.3676 116.8617 C 208.9676 116.9617 209.6676 116.2617 209.7676 115.2617 C 210.1676 113.0617 209.7676 113.0617 207.4676 115.3617 C 206.3676 116.4617 205.7676 118.2617 205.9676 119.8617 C 206.2676 121.8617 205.8676 122.5617 204.6676 122.5617 C 203.5676 122.5617 203.1676 121.9617 203.5676 120.5617 C 203.8676 119.4617 203.6676 118.2617 203.1676 117.9617 C 201.6676 117.0617 202.1676 115.4617 203.8676 115.7617 C 205.1676 115.9617 207.3676 113.0617 209.9676 107.7617 C 209.9676 107.5617 212.5676 106.7617 215.5676 105.9617 C 218.5676 105.2617 226.9676 101.6617 234.3676 98.1617 C 241.7676 94.6617 252.2676 90.1617 257.7676 88.0617 C 266.8676 84.6617 268.8676 84.2617 279.2676 84.0617 C 285.5676 83.8617 292.3676 84.1617 294.2676 84.7617 Z" fill="black"/>
        </g>
        <g id="Graphic_29">
          <path d="M 179.5676 84.2617 C 180.6676 85.2617 180.3676 89.5617 179.1676 89.5617 C 178.6676 89.5617 178.4676 89.9617 178.7676 90.5617 C 179.0676 91.0617 178.7676 91.2617 177.8676 90.9617 C 177.0676 90.6617 176.6676 89.7617 176.9676 88.9617 C 177.2676 88.1617 177.9676 87.8617 178.6676 88.1617 C 179.2676 88.4617 178.8676 87.9617 177.8676 87.1617 C 176.0676 85.6617 176.0676 85.5617 177.6676 85.5617 C 178.5676 85.5617 179.0676 85.0617 178.7676 84.5617 C 178.0676 83.4617 178.5676 83.2617 179.5676 84.2617 Z" fill="black"/>
        </g>
        <g id="Graphic_28">
          <path d="M 41.56761 85.2617 C 41.96761 85.5617 42.26761 86.3617 42.26761 86.9617 C 42.26761 87.5617 41.86761 87.5617 41.46761 86.7617 C 40.76761 85.8617 40.16761 85.9617 38.76761 87.5617 C 36.66761 89.9617 36.76761 89.9617 45.26761 88.0617 C 48.86761 87.2617 52.86761 86.6617 54.26761 86.6617 C 58.96761 86.6617 54.06761 88.2617 44.06761 90.0617 C 38.66761 90.9617 33.96761 92.1617 33.66761 92.6617 C 33.36761 93.2617 32.56761 93.1617 31.66761 92.4617 C 30.76761 91.7617 28.96761 91.5617 26.66761 92.0617 C 24.56761 92.3617 21.06761 92.9617 18.86761 93.1617 C 16.56761 93.4617 14.06761 93.8617 13.26761 94.1617 C 12.46761 94.5617 10.06761 94.9617 7.96761 95.1617 C 4.7676095 95.4617 4.1676095 95.2617 4.4676095 93.8617 C 4.7676095 91.9617 11.76761 89.9617 20.76761 89.1617 C 23.76761 88.8617 26.16761 88.0617 26.86761 87.0617 C 27.66761 86.0617 28.26761 85.8617 28.76761 86.4617 C 29.16761 87.2617 29.96761 87.2617 31.26761 86.5617 C 33.56761 85.3617 34.56761 85.2617 33.86761 86.4617 C 33.56761 86.8617 34.46761 87.0617 35.76761 86.7617 C 37.16761 86.5617 38.56761 85.9617 38.86761 85.4617 C 39.46761 84.3617 40.66761 84.2617 41.56761 85.2617 Z" fill="black"/>
        </g>
        <g id="Graphic_27">
          <path d="M 230.2676 88.0617 C 232.1676 90.3617 230.8676 92.3617 227.8676 91.8617 C 224.1676 91.1617 219.0676 94.7617 212.1676 102.9617 C 208.8676 106.8617 205.0676 111.3617 203.6676 112.8617 C 201.8676 114.7617 201.1676 116.4617 201.5676 118.0617 C 201.7676 119.4617 201.5676 120.5617 201.1676 120.5617 C 200.6676 120.5617 200.2676 119.8617 200.2676 119.0617 C 200.2676 116.7617 198.6676 117.2617 198.5676 119.5617 C 198.4676 120.6617 198.7676 121.5617 199.3676 121.5617 C 201.4676 121.5617 200.0676 124.3617 197.7676 124.7617 C 195.9676 125.1617 195.5676 124.9617 196.1676 124.1617 C 196.6676 123.5617 197.3676 121.6617 197.6676 120.0617 C 198.6676 114.2617 199.4676 112.7617 201.8676 112.1617 C 204.3676 111.4617 204.9676 110.1617 203.2676 109.0617 C 202.7676 108.7617 202.2676 107.7617 202.2676 106.9617 C 202.2676 105.1617 199.8676 102.5617 198.3676 102.5617 C 197.7676 102.5617 197.2676 102.0617 197.2676 101.5617 C 197.2676 100.9617 196.8676 100.5617 196.3676 100.5617 C 195.8676 100.5617 195.7676 101.7617 196.1676 103.2617 C 196.5676 104.8617 197.4676 106.0617 198.2676 106.0617 C 198.9676 106.0617 199.7676 106.6617 200.0676 107.4617 C 200.3676 108.2617 200.0676 108.5617 199.3676 108.1617 C 198.6676 107.6617 198.4676 108.0617 198.8676 108.9617 C 199.1676 109.8617 198.9676 110.5617 198.3676 110.5617 C 197.7676 110.5617 197.2676 110.1617 197.2676 109.7617 C 197.2676 109.2617 196.5676 108.0617 195.7676 106.9617 C 194.4676 105.2617 194.4676 105.4617 195.4676 108.7617 C 196.0676 110.8617 196.9676 112.5617 197.4676 112.5617 C 198.7676 112.5617 198.3676 114.5617 196.7676 116.1617 C 195.4676 117.5617 195.2676 117.5617 195.2676 116.1617 C 195.2676 115.2617 195.8676 114.5617 196.4676 114.5617 C 197.3676 114.5617 197.4676 114.3617 196.6676 113.7617 C 195.5676 113.0617 193.6676 106.8617 194.0676 105.2617 C 194.1676 104.8617 193.5676 104.5617 192.6676 104.5617 C 191.8676 104.5617 191.3676 104.9617 191.6676 105.4617 C 192.0676 105.9617 191.2676 106.0617 190.0676 105.7617 C 188.0676 105.2617 188.0676 105.0617 189.5676 104.7617 C 190.6676 104.5617 191.1676 103.8617 190.8676 102.9617 C 190.4676 101.8617 190.8676 101.8617 192.7676 103.1617 C 195.2676 104.7617 195.8676 104.1617 194.6676 101.0617 C 194.2676 100.1617 193.6676 99.8617 193.3676 100.3617 C 192.9676 100.9617 191.8676 100.9617 190.3676 100.3617 C 188.5676 99.7617 188.1676 99.2617 189.0676 98.3617 C 191.1676 96.2617 197.1676 97.3617 201.0676 100.3617 C 206.4676 104.6617 208.5676 105.0617 210.2676 102.1617 C 213.1676 97.4617 219.4676 90.5617 222.6676 88.5617 C 226.6676 86.1617 228.5676 86.0617 230.2676 88.0617 Z" fill="black"/>
        </g>
        <g id="Graphic_26">
          <path d="M 104.46761 87.1617 C 104.86761 87.4617 107.06761 87.7617 109.46761 87.7617 C 111.96761 87.7617 114.56761 88.1617 115.36761 88.7617 C 116.26761 89.3617 114.66761 89.4617 110.26761 89.0617 C 106.66761 88.7617 103.36761 87.9617 102.76761 87.4617 C 102.26761 86.8617 102.26761 86.5617 102.86761 86.5617 C 103.46761 86.5617 104.16761 86.8617 104.46761 87.1617 Z" fill="black"/>
        </g>
        <g id="Graphic_25">
          <path d="M 129.06761 91.3617 C 128.66761 92.5617 128.86761 93.8617 129.36761 94.1617 C 130.76761 94.9617 130.36761 96.2617 128.66761 96.2617 C 127.56761 96.2617 127.26761 95.5617 127.56761 93.9617 C 128.16761 90.6617 125.86761 90.2617 123.16761 93.1617 L 120.76761 95.6617 L 119.06761 93.5617 C 117.66761 91.7617 117.26761 91.6617 117.26761 92.9617 C 117.26761 94.9617 115.86761 95.0617 114.26761 93.0617 C 113.16761 91.7617 112.76761 91.7617 112.16761 92.7617 C 111.56761 93.5617 111.26761 93.6617 111.26761 92.9617 C 111.26761 92.2617 109.46761 91.8617 106.36761 91.9617 C 101.26761 92.0617 100.56761 93.0617 103.56761 95.9617 C 105.46761 97.8617 105.76761 99.5617 104.26761 99.5617 C 103.76761 99.5617 104.16761 101.4617 105.26761 103.7617 C 106.26761 106.1617 107.36761 109.2617 107.76761 110.7617 C 108.16761 112.7617 108.76761 113.3617 110.06761 112.9617 C 111.26761 112.5617 111.36761 112.6617 110.46761 113.2617 C 109.56761 113.9617 109.46761 115.4617 110.16761 118.8617 C 111.16761 124.4617 109.76761 123.9617 106.66761 117.5617 C 105.56761 115.2617 104.26761 113.7617 103.46761 114.0617 C 102.86761 114.2617 102.26761 114.1617 102.26761 113.7617 C 102.26761 113.2617 102.86761 112.3617 103.46761 111.6617 C 104.56761 110.6617 104.36761 110.5617 102.86761 111.1617 C 101.56761 111.6617 101.16761 111.5617 101.66761 110.7617 C 102.86761 108.8617 104.26761 109.3617 105.36761 112.1617 C 106.56761 115.3617 107.76761 114.6617 106.66761 111.3617 C 106.26761 110.0617 105.96761 108.7617 106.06761 108.2617 C 106.16761 107.8617 105.76761 107.5617 105.26761 107.5617 C 104.76761 107.5617 104.36761 106.9617 104.56761 106.2617 C 104.66761 105.6617 104.26761 105.1617 103.66761 105.2617 C 102.86761 105.3617 102.66761 104.6617 103.06761 103.3617 C 103.46761 101.7617 103.26761 101.4617 102.16761 102.0617 C 101.36761 102.5617 101.06761 102.5617 101.46761 102.0617 C 101.86761 101.6617 101.66761 100.3617 101.06761 99.2617 C 100.16761 97.5617 100.26761 97.3617 101.86761 97.9617 C 103.56761 98.5617 103.56761 98.4617 101.66761 96.5617 C 99.46761 94.3617 92.26761 92.5617 92.26761 94.3617 C 92.26761 94.8617 93.16761 95.1617 94.16761 94.8617 C 95.26761 94.5617 96.96761 94.8617 97.96761 95.4617 C 99.46761 96.3617 99.26761 96.4617 96.86761 95.9617 C 94.96761 95.4617 93.76761 95.7617 93.16761 96.6617 C 92.56761 97.7617 92.26761 97.6617 91.66761 96.2617 C 91.36761 95.3617 90.56761 94.5617 89.86761 94.5617 C 88.56761 94.5617 81.86761 97.8617 79.86761 99.4617 C 79.16761 100.0617 78.36761 100.2617 78.06761 99.9617 C 77.76761 99.7617 77.46761 100.6617 77.46761 102.1617 C 77.46761 105.1617 75.26761 107.1617 73.96761 105.2617 C 73.36761 104.3617 73.26761 104.4617 73.36761 105.5617 C 73.66761 108.6617 73.16761 109.3617 70.96761 109.1617 C 67.76761 108.7617 66.26761 107.7617 66.26761 105.8617 C 66.26761 104.9617 66.86761 104.5617 67.76761 104.9617 C 68.66761 105.2617 69.26761 104.9617 69.26761 103.9617 C 69.26761 103.1617 69.86761 102.5617 70.56761 102.7617 C 71.36761 102.9617 73.16761 101.6617 74.66761 99.8617 C 76.06761 98.1617 78.66761 96.4617 80.26761 96.0617 C 83.46761 95.3617 84.36761 93.6617 81.46761 93.6617 C 80.56761 93.6617 77.66761 93.4617 75.06761 93.2617 C 70.36761 92.8617 68.06761 93.5617 68.16761 95.1617 C 68.26761 95.6617 67.66761 96.0617 66.96761 96.0617 C 66.36761 96.0617 65.76761 96.8617 65.76761 97.7617 C 65.76761 100.7617 64.36761 100.8617 63.66761 97.9617 L 62.96761 95.0617 L 62.16761 97.8617 C 61.76761 99.3617 61.76761 101.9617 62.26761 103.5617 C 63.06761 106.2617 62.86761 106.5617 60.86761 106.5617 C 58.96761 106.5617 58.66761 106.9617 58.96761 108.9617 C 59.26761 110.2617 58.96761 112.2617 58.36761 113.3617 C 57.16761 115.6617 59.06761 122.5617 62.06761 126.0617 C 63.76761 128.0617 63.76761 128.0617 61.46761 126.1617 C 60.26761 125.0617 58.96761 124.5617 58.56761 124.9617 C 58.16761 125.3617 58.26761 125.9617 58.86761 126.3617 C 59.46761 126.7617 60.16761 127.8617 60.56761 128.7617 C 60.86761 129.7617 61.66761 130.5617 62.26761 130.5617 C 62.86761 130.5617 63.16761 130.1617 62.76761 129.6617 C 62.46761 129.1617 62.66761 128.4617 63.16761 128.1617 C 63.66761 127.7617 65.76761 124.4617 67.86761 120.7617 C 69.86761 117.0617 71.96761 113.9617 72.36761 113.7617 C 72.76761 113.5617 73.66761 111.8617 74.26761 109.9617 C 74.86761 108.0617 75.86761 106.5617 76.46761 106.5617 C 76.96761 106.5617 77.26761 106.8617 77.06761 107.2617 C 73.86761 114.4617 61.96761 137.5617 61.36761 137.5617 C 57.86761 137.5617 53.76761 123.7617 54.06761 112.6617 C 54.26761 107.6617 54.96761 105.0617 57.36761 100.4617 C 59.16761 97.1617 60.96761 94.5617 61.46761 94.5617 C 62.06761 94.5617 63.26761 93.5617 64.16761 92.4617 C 65.86761 90.3617 66.76761 90.2617 87.36761 90.1617 C 99.16761 90.1617 110.36761 90.2617 112.26761 90.4617 C 114.16761 90.6617 118.86761 90.4617 122.66761 90.0617 C 129.46761 89.2617 129.56761 89.2617 129.06761 91.3617 Z" fill="black"/>
        </g>
        <g id="Graphic_24">
          <path d="M 181.6676 92.2617 C 181.9676 92.6617 182.2676 93.7617 182.2676 94.7617 C 182.2676 96.3617 181.9676 96.3617 180.2676 95.3617 C 179.1676 94.6617 178.2676 93.7617 178.2676 93.4617 C 178.2676 92.4617 180.9676 91.5617 181.6676 92.2617 Z" fill="black"/>
        </g>
        <g id="Graphic_23">
          <path d="M 161.2676 92.6617 C 161.2676 93.1617 161.9676 93.2617 162.7676 92.9617 C 163.5676 92.5617 164.2676 92.8617 164.2676 93.5617 C 164.2676 94.1617 163.7676 94.3617 163.2676 94.0617 C 162.6676 93.7617 162.2676 93.9617 162.2676 94.5617 C 162.2676 95.1617 161.8676 95.4617 161.3676 95.0617 C 160.8676 94.7617 160.1676 94.9617 159.86761 95.4617 C 159.56761 95.9617 159.96761 96.5617 160.7676 96.9617 C 161.5676 97.2617 162.2676 97.0617 162.2676 96.5617 C 162.2676 94.7617 164.0676 95.5617 164.5676 97.6617 C 164.9676 99.1617 164.7676 99.4617 163.8676 98.6617 C 162.9676 97.9617 162.2676 97.9617 161.2676 98.8617 C 160.3676 99.6617 160.1676 99.6617 160.6676 98.8617 C 160.9676 98.2617 160.7676 97.5617 160.0676 97.3617 C 158.46761 96.7617 158.36761 91.8617 159.96761 91.8617 C 160.6676 91.8617 161.2676 92.2617 161.2676 92.6617 Z" fill="black"/>
        </g>
        <g id="Graphic_22">
          <path d="M 169.2676 96.6617 C 169.2676 97.1617 169.7676 97.3617 170.3676 96.9617 C 170.9676 96.6617 172.7676 97.6617 174.4676 99.1617 C 176.1676 100.7617 177.2676 101.4617 176.8676 100.7617 C 176.4676 100.1617 176.6676 99.5617 177.1676 99.5617 C 178.4676 99.5617 178.4676 99.8617 177.6676 101.9617 C 177.2676 103.0617 176.5676 103.2617 175.3676 102.5617 C 174.0676 101.9617 173.5676 102.0617 173.5676 103.0617 C 173.5676 103.8617 174.0676 104.1617 174.5676 103.8617 C 175.1676 103.5617 175.2676 103.7617 174.8676 104.3617 C 173.7676 106.0617 171.2676 105.8617 171.8676 104.0617 C 172.2676 103.1617 171.2676 101.8617 169.0676 100.4617 C 167.2676 99.3617 166.5676 98.6617 167.5676 98.9617 C 169.0676 99.4617 169.2676 99.1617 168.7676 97.5617 C 168.3676 96.4617 168.3676 95.5617 168.6676 95.5617 C 168.9676 95.5617 169.2676 96.0617 169.2676 96.6617 Z" fill="black"/>
        </g>
        <g id="Graphic_21">
          <path d="M 109.46761 98.6617 C 108.96761 99.9617 107.76761 101.2617 106.76761 101.3617 C 104.46761 101.8617 105.26761 99.6617 108.06761 97.7617 C 110.16761 96.3617 110.26761 96.3617 109.46761 98.6617 Z" fill="black"/>
        </g>
        <g id="Graphic_20">
          <path d="M 91.36761 99.2617 C 91.96761 100.8617 92.66761 104.5617 92.96761 107.5617 C 93.56761 114.5617 99.06761 126.3617 102.96761 128.8617 C 108.56761 132.3617 112.16761 135.0617 112.26761 135.7617 C 112.26761 136.1617 110.36761 137.7617 108.06761 139.2617 C 104.16761 141.8617 103.26761 142.0617 95.06761 141.7617 C 85.96761 141.5617 73.46761 140.0617 72.46761 139.1617 C 71.76761 138.4617 79.56761 119.6617 83.16761 113.5617 C 84.26761 111.5617 90.26761 98.6617 90.26761 98.1617 C 90.26761 97.8617 89.46761 97.4617 88.46761 97.2617 C 86.86761 96.8617 86.86761 96.7617 88.56761 96.6617 C 89.56761 96.5617 90.76761 97.6617 91.36761 99.2617 Z M 88.76761 106.5617 C 89.06761 107.0617 88.56761 107.5617 87.56761 107.6617 C 86.26761 107.7617 86.46761 107.9617 88.26761 108.5617 C 90.06761 109.1617 90.26761 109.3617 88.96761 109.4617 C 87.96761 109.5617 87.36761 109.9617 87.66761 110.4617 C 88.06761 110.9617 87.16761 112.7617 85.76761 114.3617 C 83.26761 117.3617 79.16761 125.5617 78.56761 128.5617 C 78.46761 129.3617 78.26761 131.3617 78.06761 133.0617 C 77.76761 135.8617 77.96761 136.0617 80.96761 135.7617 C 82.76761 135.6617 84.26761 135.8617 84.26761 136.3617 C 84.26761 136.7617 85.86761 137.0617 87.76761 137.0617 C 89.76761 136.9617 91.56761 137.2617 91.86761 137.7617 C 92.16761 138.2617 92.86761 138.2617 93.46761 137.9617 C 94.06761 137.5617 96.46761 137.3617 98.76761 137.3617 C 101.06761 137.4617 103.66761 136.9617 104.86761 136.0617 C 106.76761 134.5617 106.76761 134.5617 104.76761 133.0617 C 100.36761 129.7617 98.26761 127.1617 95.76761 122.0617 C 94.26761 119.1617 92.86761 116.4617 92.46761 116.0617 C 92.06761 115.7617 91.76761 113.8617 91.56761 111.9617 C 91.46761 109.9617 90.86761 107.7617 90.16761 106.9617 C 88.86761 105.3617 87.86761 105.0617 88.76761 106.5617 Z" fill="black"/>
        </g>
        <g id="Graphic_19">
          <path d="M 124.26761 99.2617 C 124.26761 100.2617 123.86761 101.7617 123.26761 102.5617 C 122.46761 103.7617 122.26761 103.7617 121.66761 102.2617 C 120.96761 100.2617 121.76761 97.5617 123.26761 97.5617 C 123.76761 97.5617 124.26761 98.3617 124.26761 99.2617 Z" fill="black"/>
        </g>
        <g id="Graphic_18">
          <path d="M 98.16761 98.9617 C 98.86761 99.7617 99.56761 101.2617 99.76761 102.4617 C 99.96761 103.6617 100.46761 105.0617 100.86761 105.7617 C 101.36761 106.4617 101.16761 106.5617 100.26761 106.0617 C 99.26761 105.4617 99.06761 105.6617 99.56761 106.8617 C 99.86761 107.8617 99.86761 108.5617 99.36761 108.5617 C 97.76761 108.5617 97.26761 107.2617 98.36761 105.8617 C 99.26761 104.8617 98.96761 104.5617 97.16761 104.5617 L 94.76761 104.4617 L 97.26761 103.0617 C 99.56761 101.7617 98.76761 100.9617 95.86761 101.4617 C 95.36761 101.5617 95.46761 101.0617 96.16761 100.2617 C 97.06761 99.0617 97.06761 98.6617 96.06761 98.2617 C 95.26761 97.9617 95.26761 97.6617 95.86761 97.6617 C 96.46761 97.5617 97.56761 98.1617 98.16761 98.9617 Z" fill="black"/>
        </g>
        <g id="Graphic_17">
          <path d="M 83.56761 101.7617 C 82.86761 102.5617 82.56761 103.5617 82.96761 103.8617 C 83.26761 104.2617 83.06761 104.5617 82.46761 104.5617 C 81.76761 104.5617 81.26761 104.9617 81.26761 105.5617 C 81.26761 107.5617 83.36761 106.4617 84.26761 104.0617 C 84.76761 102.6617 85.66761 101.5617 86.16761 101.5617 C 86.76761 101.5617 85.76761 103.9617 83.96761 106.9617 C 81.86761 110.5617 80.36761 112.0617 79.66761 111.4617 C 79.06761 110.9617 78.26761 110.8617 77.86761 111.2617 C 77.46761 111.6617 77.46761 111.1617 77.86761 110.0617 C 78.36761 108.9617 78.76761 108.6617 79.06761 109.3617 C 79.66761 111.2617 80.86761 110.7617 80.96761 108.5617 C 81.06761 107.3617 80.66761 106.7617 80.16761 107.1617 C 79.56761 107.4617 79.76761 106.3617 80.66761 104.7617 C 81.56761 103.0617 82.86761 101.3617 83.46761 100.9617 C 84.46761 100.3617 84.56761 100.4617 83.56761 101.7617 Z" fill="black"/>
        </g>
        <g id="Graphic_16">
          <path d="M 164.2676 104.7617 C 163.5676 105.9617 162.8676 107.1617 162.7676 107.3617 C 162.1676 108.1617 157.26761 105.4617 157.76761 104.5617 C 158.06761 104.0617 157.86761 103.5617 157.16761 103.5617 C 156.46761 103.5617 156.16761 103.3617 156.46761 103.0617 C 156.76761 102.7617 158.06761 102.9617 159.46761 103.4617 C 160.9676 104.0617 162.5676 103.9617 163.6676 103.3617 C 165.2676 102.4617 165.3676 102.5617 164.2676 104.7617 Z" fill="black"/>
        </g>
        <g id="Graphic_15">
          <path d="M 185.4676 108.4617 C 181.9676 110.6617 180.8676 113.3617 184.1676 111.6617 C 185.7676 110.7617 186.3676 111.1617 188.1676 115.0617 C 190.3676 119.6617 190.8676 122.5617 189.4676 122.5617 C 187.9676 122.4617 185.7676 119.9617 185.4676 118.0617 C 185.0676 115.8617 182.4676 112.5617 181.0676 112.5617 C 179.0676 112.5617 180.4676 117.8617 183.1676 120.5617 C 184.7676 122.1617 185.7676 123.6617 185.5676 123.9617 C 185.2676 124.1617 185.9676 124.8617 187.0676 125.4617 C 189.3676 126.6617 192.1676 125.9617 192.3676 124.1617 C 192.8676 118.9617 192.2676 114.3617 190.8676 111.5617 C 189.0676 107.8617 189.5676 106.3617 191.6676 108.6617 C 193.3676 110.2617 194.5676 115.3617 194.5676 120.9617 C 194.6676 123.9617 194.0676 125.3617 191.9676 127.1617 C 190.5676 128.3617 189.7676 129.5617 190.1676 129.7617 C 190.6676 129.9617 190.4676 130.6617 189.6676 131.2617 C 188.5676 132.3617 188.3676 132.1617 188.5676 130.2617 C 188.6676 129.0617 188.3676 128.0617 187.7676 128.0617 C 187.2676 128.0617 186.9676 128.6617 187.0676 129.4617 C 187.2676 130.1617 186.9676 130.4617 186.3676 130.0617 C 184.6676 129.0617 185.0676 130.4617 187.1676 132.6617 C 188.3676 133.9617 189.2676 134.3617 189.7676 133.6617 C 190.0676 133.0617 190.8676 132.5617 191.3676 132.5617 C 191.9676 132.5617 192.0676 133.0617 191.6676 133.6617 C 191.2676 134.3617 191.5676 134.6617 192.3676 134.3617 C 193.1676 134.0617 193.7676 132.7617 193.6676 131.4617 C 193.5676 130.0617 194.2676 128.3617 195.0676 127.5617 C 196.4676 126.2617 196.5676 126.3617 195.9676 127.7617 C 195.2676 129.6617 197.6676 132.0617 199.3676 131.0617 C 199.9676 130.6617 199.6676 131.4617 198.7676 132.9617 C 196.8676 135.8617 197.7676 136.5617 199.8676 133.7617 C 201.1676 132.1617 201.1676 132.1617 201.2676 133.8617 C 201.2676 134.8617 200.7676 136.6617 200.1676 137.7617 C 199.1676 139.5617 198.4676 139.7617 194.1676 139.1617 C 190.0676 138.5617 189.3676 138.7617 189.8676 140.0617 C 190.1676 140.8617 189.9676 141.5617 189.3676 141.5617 C 187.3676 141.5617 188.1676 137.5617 190.4676 136.6617 C 193.0676 135.7617 191.7676 134.6617 188.2676 134.9617 C 184.7676 135.2617 181.2676 133.0617 177.5676 128.2617 C 173.7676 123.1617 172.8676 119.8617 174.2676 116.1617 C 174.9676 114.0617 175.7676 113.5617 176.9676 114.0617 C 177.9676 114.3617 178.3676 114.3617 178.0676 114.0617 C 177.1676 113.0617 183.2676 107.9617 186.2676 107.1617 C 188.3676 106.5617 188.2676 106.7617 185.4676 108.4617 Z M 175.4676 118.8617 C 175.6676 120.0617 176.4676 121.7617 177.2676 122.5617 C 178.1676 123.3617 179.5676 125.2617 180.5676 126.7617 C 181.5676 128.3617 182.8676 129.5617 183.5676 129.4617 C 184.4676 129.4617 184.4676 129.2617 183.4676 128.8617 C 182.4676 128.4617 182.4676 128.0617 183.3676 126.9617 C 184.9676 124.9617 183.6676 122.2617 181.3676 122.8617 C 179.4676 123.3617 177.2676 120.1617 177.2676 116.9617 C 177.2676 116.1617 176.7676 115.7617 176.2676 116.0617 C 175.6676 116.4617 175.2676 117.6617 175.4676 118.8617 Z M 195.0676 132.4617 C 196.0676 133.0617 196.0676 133.5617 194.7676 134.5617 C 192.7676 136.1617 192.8676 137.1617 195.0676 137.1617 C 196.1676 137.1617 196.8676 136.2617 196.9676 134.5617 C 197.0676 132.2617 195.4676 130.0617 194.3676 131.1617 C 194.0676 131.4617 194.3676 132.0617 195.0676 132.4617 Z" fill="black"/>
        </g>
        <g id="Graphic_14">
          <path d="M 166.6676 109.1617 C 167.5676 111.4617 167.4676 111.4617 165.0676 111.0617 C 162.7676 110.5617 160.1676 108.5617 161.8676 108.5617 C 162.3676 108.5617 163.4676 109.1617 164.1676 109.7617 C 165.1676 110.8617 165.2676 110.7617 164.7676 109.2617 C 164.3676 108.3617 164.4676 107.5617 165.0676 107.5617 C 165.5676 107.5617 166.3676 108.2617 166.6676 109.1617 Z" fill="black"/>
        </g>
        <g id="Graphic_13">
          <path d="M 174.5676 110.9617 C 174.1676 111.5617 173.7676 112.2617 173.7676 112.5617 C 173.6676 114.1617 171.2676 116.5617 167.7676 118.7617 C 163.6676 121.3617 160.3676 124.5617 161.8676 124.5617 C 162.3676 124.5617 161.6676 125.2617 160.3676 126.1617 C 158.46761 127.5617 157.86761 127.5617 157.16761 126.4617 C 155.76761 124.1617 156.16761 123.3617 158.36761 124.0617 C 160.2676 124.6617 160.3676 124.4617 159.76761 121.3617 C 159.36761 119.5617 158.66761 117.8617 158.16761 117.5617 C 156.76761 116.5617 158.96761 114.2617 161.6676 113.9617 C 164.6676 113.6617 166.0676 115.1617 164.3676 116.8617 C 163.4676 117.7617 163.2676 117.6617 163.7676 116.2617 C 164.1676 115.3617 164.2676 114.5617 163.8676 114.5617 C 162.8676 114.5617 161.1676 118.5617 161.7676 119.5617 C 162.6676 120.9617 164.8676 119.6617 166.1676 116.9617 C 166.7676 115.5617 167.5676 114.6617 168.0676 114.8617 C 168.4676 115.1617 169.6676 114.4617 170.6676 113.4617 C 171.7676 112.3617 172.0676 111.5617 171.4676 111.5617 C 169.1676 111.5617 170.3676 110.0617 172.7676 109.9617 C 174.3676 109.8617 174.9676 110.1617 174.5676 110.9617 Z" fill="black"/>
        </g>
        <g id="Graphic_12">
          <path d="M 97.06761 111.2617 C 97.66761 111.4617 97.96761 112.1617 97.66761 112.7617 C 97.26761 113.3617 97.86761 113.5617 99.36761 113.0617 C 101.16761 112.5617 101.36761 112.6617 100.26761 113.4617 C 99.06761 114.2617 99.06761 114.5617 100.66761 115.1617 C 102.06761 115.6617 102.16761 116.0617 101.06761 116.6617 C 100.06761 117.3617 100.16761 117.5617 101.56761 117.5617 C 102.56761 117.5617 103.16761 117.9617 102.76761 118.4617 C 102.46761 118.9617 103.56761 120.4617 105.16761 121.7617 C 108.26761 124.1617 109.66761 128.5617 107.46761 129.2617 C 106.76761 129.5617 106.46761 129.1617 106.86761 128.1617 C 107.26761 126.9617 106.86761 126.5617 105.36761 126.5617 C 104.16761 126.5617 103.26761 126.0617 103.26761 125.4617 C 103.26761 124.8617 104.16761 124.6617 105.26761 125.0617 C 106.36761 125.4617 107.26761 125.2617 107.26761 124.6617 C 107.26761 124.0617 105.96761 123.5617 104.36761 123.5617 C 101.16761 123.5617 99.36761 122.0617 101.46761 121.2617 C 102.46761 120.8617 102.46761 120.6617 101.46761 120.6617 C 100.76761 120.5617 100.46761 120.0617 100.86761 119.3617 C 101.36761 118.6617 101.06761 118.4617 100.16761 118.7617 C 99.36761 119.0617 98.16761 118.7617 97.56761 117.9617 C 96.56761 116.9617 96.66761 116.5617 98.06761 116.2617 C 99.66761 115.8617 99.66761 115.7617 97.96761 115.6617 C 97.06761 115.6617 96.26761 115.2617 96.16761 114.7617 C 96.16761 114.3617 95.96761 113.2617 95.76761 112.2617 C 95.56761 111.3617 95.46761 110.5617 95.56761 110.6617 C 95.66761 110.6617 96.36761 110.9617 97.06761 111.2617 Z" fill="black"/>
        </g>
        <g id="Graphic_11">
          <path d="M 80.26761 113.8617 C 80.26761 114.0617 79.36761 115.2617 78.26761 116.5617 C 77.16761 117.7617 76.56761 119.1617 76.86761 119.6617 C 77.16761 120.1617 76.76761 121.5617 76.06761 122.7617 C 75.46761 124.0617 74.76761 125.6617 74.66761 126.4617 C 74.46761 127.1617 72.96761 130.6617 71.16761 134.1617 C 64.06761 147.9617 37.26761 165.8617 31.76761 160.3617 C 31.46761 160.0617 33.36761 159.2617 35.96761 158.5617 C 38.56761 157.9617 42.56761 156.4617 44.76761 155.2617 C 50.46761 152.2617 63.06761 141.3617 63.16761 139.3617 C 63.26761 137.1617 64.96761 136.1617 65.66761 137.7617 C 66.06761 138.4617 66.06761 138.0617 65.86761 136.8617 C 65.66761 135.6617 65.96761 134.7617 66.46761 134.8617 C 67.76761 135.1617 72.26761 126.9617 71.36761 125.9617 C 71.06761 125.5617 71.36761 125.5617 71.96761 125.9617 C 72.86761 126.4617 73.26761 125.9617 73.26761 124.6617 C 73.26761 123.4617 73.66761 122.5617 74.26761 122.5617 C 74.76761 122.5617 75.26761 121.8617 75.26761 121.0617 C 75.26761 118.8617 78.16761 113.5617 79.26761 113.5617 C 79.86761 113.5617 80.26761 113.7617 80.26761 113.8617 Z" fill="black"/>
        </g>
        <g id="Graphic_10">
          <path d="M 157.06761 117.9617 C 157.86761 119.7617 157.76761 120.7617 156.66761 122.4617 C 154.66761 125.2617 153.56761 124.4617 153.86761 120.4617 C 154.16761 116.1617 155.66761 114.9617 157.06761 117.9617 Z" fill="black"/>
        </g>
        <g id="Graphic_9">
          <path d="M 149.76761 116.4617 C 149.46761 116.9617 150.06761 117.5617 150.96761 117.8617 C 152.66761 118.2617 152.66761 118.2617 150.86761 119.0617 C 149.66761 119.5617 148.76761 119.3617 148.26761 118.4617 C 147.26761 116.9617 147.86761 115.5617 149.36761 115.5617 C 149.96761 115.5617 150.16761 115.9617 149.76761 116.4617 Z" fill="black"/>
        </g>
        <g id="Graphic_8">
          <path d="M 148.96761 121.9617 C 151.66761 123.1617 151.86761 124.3617 149.76761 125.1617 C 148.96761 125.5617 148.26761 126.6617 148.26761 127.6617 C 148.26761 128.6617 147.56761 129.5617 146.76761 129.5617 C 145.56761 129.5617 145.36761 128.7617 145.86761 125.2617 C 146.26761 122.9617 146.56761 121.0617 146.66761 120.9617 C 146.76761 120.9617 147.76761 121.4617 148.96761 121.9617 Z" fill="black"/>
        </g>
        <g id="Graphic_7">
          <path d="M 172.0676 123.4617 C 173.0676 124.0617 172.4676 124.8617 169.7676 126.4617 C 163.6676 130.0617 160.0676 128.7617 165.7676 124.8617 C 169.4676 122.3617 170.1676 122.1617 172.0676 123.4617 Z" fill="black"/>
        </g>
        <g id="Graphic_6">
          <path d="M 117.16761 123.8617 C 117.26761 126.1617 114.36761 132.5617 113.16761 132.5617 C 111.86761 132.5617 111.16761 130.7617 112.26761 130.0617 C 112.76761 129.7617 113.26761 128.9617 113.26761 128.4617 C 113.26761 127.8617 112.76761 127.7617 112.26761 128.0617 C 110.96761 128.8617 109.06761 127.6617 109.76761 126.5617 C 110.06761 125.9617 111.36761 126.0617 112.76761 126.5617 C 114.76761 127.3617 115.26761 127.0617 116.16761 124.7617 C 116.86761 122.8617 117.16761 122.5617 117.16761 123.8617 Z" fill="black"/>
        </g>
        <g id="Graphic_5">
          <path d="M 205.1676 127.5617 C 202.9676 131.7617 201.8676 132.4617 200.9676 130.2617 C 200.3676 128.5617 201.2676 127.0617 203.5676 126.2617 C 204.5676 125.8617 205.0676 125.1617 204.7676 124.5617 C 204.4676 124.0617 204.8676 123.5617 205.6676 123.5617 C 206.9676 123.5617 206.8676 124.1617 205.1676 127.5617 Z" fill="black"/>
        </g>
        <g id="Graphic_4">
          <path d="M 155.56761 126.9617 C 157.06761 128.5617 158.56761 131.0617 158.86761 132.4617 C 159.16761 133.8617 160.4676 139.0617 161.7676 144.0617 C 163.8676 151.6617 165.3676 163.1617 166.5676 180.5617 C 166.9676 186.7617 164.7676 185.3617 164.1676 179.0617 C 163.0676 169.1617 162.2676 163.3617 161.7676 162.4617 C 161.2676 161.7617 159.66761 154.8617 158.86761 149.5617 C 158.56761 148.1617 157.96761 145.0617 157.36761 142.5617 C 156.76761 139.6617 156.76761 137.7617 157.36761 136.9617 C 157.96761 136.1617 157.76761 135.5617 156.66761 135.1617 C 154.36761 134.2617 154.36761 134.3617 154.76761 136.5617 C 155.16761 138.8617 152.46761 139.3617 150.46761 137.3617 C 148.76761 135.6617 148.96761 131.0617 150.66761 129.5617 C 151.46761 128.9617 152.26761 127.4617 152.46761 126.2617 C 152.76761 124.1617 152.86761 124.1617 155.56761 126.9617 Z" fill="black"/>
        </g>
        <g id="Graphic_3">
          <path d="M 119.76761 129.6617 C 119.36761 130.9617 117.56761 136.0617 115.76761 141.0617 C 113.86761 145.9617 112.06761 151.4617 111.76761 153.2617 C 110.96761 157.0617 94.36761 178.5617 92.16761 178.5617 C 90.56761 178.5617 91.16761 177.1617 94.36761 173.5617 C 96.06761 171.6617 99.06761 167.6617 100.86761 164.7617 C 102.76761 161.8617 104.96761 159.2617 105.76761 158.9617 C 106.66761 158.5617 107.06761 157.3617 106.86761 155.3617 C 106.56761 152.5617 109.46761 143.5617 112.06761 138.9617 C 112.96761 137.5617 113.16761 137.4617 113.26761 138.5617 C 113.26761 140.4617 116.06761 135.2617 117.06761 131.2617 C 117.46761 129.5617 118.46761 127.9617 119.16761 127.7617 C 120.16761 127.4617 120.26761 127.9617 119.76761 129.6617 Z" fill="black"/>
        </g>
      </g>
    </g>
  </g>
</svg>
