<?xml version="1.0" standalone="no"?>
<!DOCTYPE svg PUBLIC "-//W3C//DTD SVG 20010904//EN"
 "http://www.w3.org/TR/2001/REC-SVG-20010904/DTD/svg10.dtd">
<svg version="1.0" xmlns="http://www.w3.org/2000/svg"
 width="300.000000pt" height="300.000000pt" viewBox="0 0 300.000000 300.000000"
 preserveAspectRatio="xMidYMid meet">
<metadata>
Created by potrace 1.10, written by Peter Selinger 2001-2011
</metadata>
<g transform="translate(0.000000,300.000000) scale(0.100000,-0.100000)"
fill="#000000" stroke="none">
<path d="M1506 1668 c-10 -6 -35 -13 -55 -15 -20 -3 -41 -9 -47 -14 -8 -6 -14
-4 -17 6 -5 11 -15 13 -39 9 -43 -8 -168 -64 -168 -76 0 -5 -12 -13 -26 -18
-22 -9 -25 -15 -20 -38 5 -20 4 -23 -4 -12 -9 13 -11 13 -20 0 -5 -8 -8 -21
-5 -28 3 -7 -1 -23 -9 -35 -18 -29 -13 -107 8 -123 9 -6 16 -16 16 -23 0 -6 7
-11 15 -11 20 0 39 -37 22 -43 -7 -3 0 -9 15 -15 14 -6 29 -15 32 -21 8 -12
36 -3 36 11 0 6 -8 4 -17 -3 -15 -12 -16 -12 -10 4 9 24 -2 47 -23 47 -13 0
-18 6 -15 20 3 14 -5 22 -31 32 -19 6 -35 17 -36 23 -5 37 -4 64 3 59 5 -3 9
0 9 5 0 6 -8 11 -17 11 -15 0 -16 2 -3 9 8 6 18 7 22 5 4 -3 8 0 8 5 0 6 4 11
10 11 10 0 -9 -51 -23 -61 -5 -3 -1 -13 7 -22 12 -11 13 -17 3 -21 -6 -2 -1
-3 12 -2 32 4 61 75 36 89 -21 11 -19 27 4 27 11 0 22 4 25 8 6 10 -36 8 -52
-2 -7 -4 -12 -2 -12 5 0 8 -5 6 -12 -4 -12 -16 -13 -15 -13 6 0 18 5 23 22 21
16 -1 20 2 16 13 -4 11 -2 14 8 11 8 -3 12 -14 11 -24 -3 -15 -1 -16 8 -7 7 6
19 9 26 6 8 -3 14 0 14 7 0 6 -5 8 -11 4 -7 -4 -9 0 -5 14 4 11 2 23 -4 27 -5
3 -10 12 -10 18 0 7 4 6 10 -3 8 -12 14 -10 38 13 26 25 62 29 62 7 0 -9 -31
-24 -43 -21 -5 1 -6 -3 -2 -9 3 -5 1 -10 -6 -10 -8 0 -8 -4 1 -15 11 -13 8
-19 -11 -17 -3 1 -6 -5 -6 -13 0 -7 6 -11 14 -8 7 3 13 9 13 14 0 5 10 5 23 0
12 -4 29 -6 37 -3 13 5 13 3 0 -14 -23 -30 -32 -33 -57 -23 -31 11 -30 12 -30
-6 0 -11 9 -14 34 -11 38 4 41 -13 5 -29 -23 -10 -30 -25 -12 -25 18 0 10 -19
-11 -25 -12 -4 -18 -12 -15 -21 3 -9 -6 -20 -25 -30 -17 -8 -29 -18 -26 -20 7
-8 57 7 57 17 0 5 14 16 31 25 24 12 34 13 39 4 5 -8 9 -6 14 6 3 9 9 14 12
11 4 -3 15 3 27 14 31 29 56 25 64 -12 4 -22 8 -27 14 -17 6 9 9 7 9 -9 0 -13
-5 -23 -11 -23 -5 0 -7 -4 -4 -10 3 -5 -1 -10 -9 -10 -9 0 -16 -7 -16 -15 0
-8 5 -15 11 -15 5 0 8 4 5 9 -3 5 1 11 9 15 14 5 19 -5 16 -31 -1 -7 3 -13 9
-13 14 0 13 33 -2 48 -10 10 -10 15 2 22 11 7 17 4 23 -14 9 -27 -8 -80 -23
-71 -6 4 -10 3 -9 -2 3 -19 -2 -34 -10 -28 -12 7 -45 -26 -34 -34 5 -3 13 -15
17 -26 5 -12 10 -15 13 -8 2 7 0 20 -6 31 -7 14 -7 19 4 19 8 0 12 -4 9 -9 -3
-4 -1 -8 5 -8 6 0 8 -7 4 -16 -3 -9 0 -20 8 -25 19 -12 29 -11 29 2 0 5 -4 8
-9 4 -5 -3 -12 -1 -16 5 -3 6 4 10 17 10 l22 0 -22 16 c-12 8 -22 19 -22 24 0
17 42 49 59 43 13 -4 13 -3 2 5 -7 5 -10 15 -7 21 4 6 3 11 -2 11 -5 0 -9 7
-9 15 0 12 3 12 16 2 9 -7 12 -8 8 -1 -4 7 0 11 9 10 11 0 21 12 29 34 8 23
18 34 29 32 9 -2 16 4 16 12 0 8 5 18 12 22 8 5 9 2 5 -10 -4 -9 0 -28 9 -41
9 -14 14 -31 11 -39 -7 -17 -39 -15 -45 2 -2 7 2 10 10 7 9 -4 14 2 15 15 3
31 -13 24 -31 -15 -15 -31 -25 -39 -47 -37 -3 0 -6 -15 -7 -34 -2 -19 2 -34 8
-34 5 0 10 -11 10 -23 0 -13 9 -32 20 -42 29 -26 27 0 -5 59 -29 55 -29 56
-11 56 8 0 16 7 20 15 3 8 11 15 17 15 8 0 8 -4 2 -12 -13 -16 -13 -48 0 -48
5 0 7 6 4 14 -3 8 1 22 10 33 14 17 14 17 8 -1 -6 -19 -5 -19 14 -2 19 17 19
17 16 -21 -1 -21 0 -28 2 -15 2 12 9 22 14 22 6 0 8 -4 4 -9 -3 -5 -1 -12 4
-15 6 -4 6 -20 0 -41 -9 -30 -6 -44 15 -90 32 -67 32 -73 1 -85 -14 -5 -25
-16 -25 -25 0 -8 -5 -15 -11 -15 -8 0 -10 15 -5 46 4 31 2 43 -5 38 -7 -4 -9
0 -6 12 3 11 8 37 12 58 l7 39 -25 -29 c-14 -16 -37 -36 -51 -43 -31 -17 -33
-42 -7 -85 58 -92 135 -121 189 -68 40 39 30 60 -13 27 -19 -14 -42 -25 -52
-25 -12 1 -8 5 12 15 l30 14 -27 -4 c-37 -5 -35 6 3 27 17 10 28 22 25 27 -11
17 22 20 44 4 21 -15 22 -15 11 5 -6 11 -15 22 -20 24 -8 3 -14 48 -12 91 2
32 21 17 21 -17 0 -18 7 -39 15 -46 13 -11 15 -7 15 28 0 53 -8 72 -27 65 -8
-3 -19 0 -25 8 -8 11 -9 11 -5 -3 3 -9 0 -19 -8 -22 -10 -4 -12 -13 -5 -35 6
-21 5 -31 -2 -31 -6 0 -8 -9 -5 -21 3 -13 1 -19 -6 -16 -7 2 -11 16 -10 31 1
14 -2 24 -7 21 -4 -3 -6 4 -3 16 3 12 1 24 -5 28 -16 10 -3 53 14 47 8 -3 14
-1 14 4 0 6 7 10 16 10 9 0 14 6 11 13 -2 7 -19 11 -40 10 -26 -1 -37 2 -37
13 0 8 -4 14 -10 14 -5 0 -10 5 -10 10 0 16 32 11 45 -6 11 -15 12 -15 17 4 3
12 3 21 -1 20 -3 0 -21 0 -40 1 -33 1 -34 2 -15 16 17 13 17 14 2 15 -19 0
-26 30 -7 30 5 0 7 6 3 13 -4 6 3 3 15 -7 l22 -20 -9 25 c-12 31 -38 36 -47 9
-3 -11 -11 -17 -17 -14 -7 4 -6 9 1 14 22 13 -19 34 -65 34 l-44 0 2 38 c1 21
-2 41 -5 45 -4 3 -1 13 6 21 10 13 9 14 -3 10 -8 -3 -14 -13 -13 -22 0 -10 -1
-15 -4 -12 -3 3 -14 1 -24 -5 -14 -7 -19 -6 -19 3 0 7 -18 -7 -40 -32 -22 -24
-40 -39 -40 -32 0 7 12 23 27 36 26 22 26 23 9 47 l-18 24 5 -24 c4 -16 -1
-30 -19 -48 -15 -15 -24 -19 -25 -11 -1 7 -2 18 -4 23 -1 6 -3 16 -3 24 -2 11
-6 10 -17 -5 -16 -21 -20 -54 -6 -54 5 0 7 10 5 23 -4 15 1 11 15 -13 13 -23
15 -36 8 -39 -6 -2 -13 1 -15 7 -2 7 -14 9 -28 6 -15 -4 -24 -2 -24 5 0 6 4
11 9 11 6 0 9 8 8 18 -2 26 31 69 66 86 30 14 61 49 62 70 0 5 7 11 15 14 8 3
12 1 8 -3 -4 -5 -3 -14 2 -20 8 -9 6 -14 -5 -19 -8 -3 -15 -13 -15 -23 0 -14
-2 -15 -9 -5 -7 11 -9 11 -14 0 -3 -9 1 -15 10 -15 9 0 18 9 21 19 2 10 8 15
13 12 16 -10 10 -23 -18 -38 -16 -8 -23 -16 -18 -17 59 -9 62 -8 59 16 -1 13
-5 29 -9 34 -3 6 -2 11 3 11 5 0 12 -9 15 -21 3 -12 10 -18 16 -14 6 3 9 10 6
15 -3 5 -1 11 5 15 15 9 1 27 -16 21 -17 -6 -36 27 -28 48 3 9 12 16 19 16 14
0 30 18 23 25 -2 2 -12 -1 -22 -7z m-127 -35 c-5 -30 2 -35 20 -19 11 10 25
15 30 11 6 -3 11 -1 11 4 0 6 10 11 23 11 22 0 21 -1 -3 -13 -14 -7 -25 -18
-25 -25 0 -7 -4 -11 -10 -9 -5 1 -9 8 -9 15 2 18 -4 15 -17 -9 -8 -15 -8 -19
0 -15 6 4 11 2 11 -4 0 -6 -11 -15 -25 -20 -14 -5 -25 -13 -25 -18 0 -10 -44
-32 -64 -32 -17 0 -9 45 10 61 16 13 19 33 4 24 -5 -3 -10 0 -10 7 0 14 35 35
63 37 9 0 16 -2 16 -6z m132 -180 c1 -10 1 -22 0 -27 -3 -16 22 -37 38 -31 10
3 8 -2 -5 -12 -16 -13 -20 -23 -14 -38 5 -11 9 -14 9 -7 1 6 5 12 11 12 20 0
-8 -44 -33 -51 -19 -5 -26 -3 -30 11 -3 12 2 20 14 23 20 5 27 27 8 27 -5 0
-7 -5 -3 -12 5 -8 2 -9 -11 -4 -11 4 -22 2 -27 -6 -5 -9 -8 -6 -8 10 0 20 5
24 26 21 4 0 11 5 15 13 7 10 9 10 9 0 0 -7 5 -10 11 -6 22 13 -13 22 -47 11
-50 -15 -63 2 -36 45 12 18 22 26 22 18 0 -12 3 -11 17 3 22 22 33 22 34 0z
m-338 -30 c4 -3 3 -11 -2 -17 -5 -6 -10 -15 -10 -20 0 -6 -7 -11 -15 -12 -11
-2 -12 4 -4 27 10 29 19 35 31 22z m127 -24 c0 -6 7 -9 15 -5 13 5 14 2 4 -15
-10 -20 -11 -20 -24 -2 -17 22 -19 33 -5 33 6 0 10 -5 10 -11z m319 -412 c-9
-22 -9 -22 -5 1 3 14 -1 25 -10 29 -8 3 -14 9 -14 15 0 5 5 6 10 3 6 -3 10 2
11 12 0 11 4 7 9 -10 5 -17 5 -38 -1 -50z"/>
<path d="M1560 1660 c0 -5 -7 -10 -15 -10 -8 0 -15 -4 -15 -10 0 -5 -7 -7 -15
-4 -8 4 -15 1 -15 -6 0 -6 4 -9 9 -5 6 3 21 -10 34 -30 13 -19 27 -32 32 -27
5 4 5 1 1 -5 -4 -7 -2 -13 3 -13 6 0 11 -5 11 -10 0 -7 -7 -7 -21 0 -11 7 -23
9 -27 6 -3 -3 0 -6 7 -6 8 0 11 -6 7 -16 -5 -13 -3 -14 6 -7 18 13 63 1 63
-17 0 -8 -10 -19 -22 -25 -13 -5 -23 -13 -23 -17 0 -10 33 3 42 16 9 14 52 15
60 2 6 -8 8 -8 8 0 0 6 10 10 23 9 12 -1 14 0 5 2 -10 2 -18 9 -18 14 0 5 -10
8 -21 6 -12 -1 -24 4 -27 12 -3 10 1 13 14 9 16 -4 19 2 21 37 2 34 -2 48 -23
70 -21 23 -28 25 -35 14 -7 -11 -9 -11 -9 4 0 12 -8 17 -30 17 -16 0 -30 -4
-30 -10z m34 -33 c-2 -11 -6 -22 -10 -26 -4 -3 -4 2 -1 12 8 20 -11 23 -19 2
-5 -11 -9 -12 -19 -2 -7 7 -11 16 -8 21 3 4 9 2 14 -5 7 -11 9 -10 9 3 0 10 7
16 19 15 13 -1 18 -7 15 -20z m47 -6 c6 10 9 8 9 -8 0 -13 5 -23 11 -23 8 0 8
-4 -1 -15 -6 -8 -8 -20 -4 -26 4 -7 3 -9 -4 -5 -5 3 -13 0 -16 -6 -3 -7 -3 3
0 23 4 28 2 38 -11 43 -10 3 -13 11 -9 18 6 9 9 9 12 -1 4 -11 6 -11 13 0z"/>
<path d="M1840 1583 c-81 -4 -143 -14 -136 -20 11 -12 206 -15 206 -4 0 12 29
14 54 5 13 -5 14 -9 5 -20 -9 -11 -8 -14 3 -14 7 0 20 9 28 20 15 21 40 27 40
9 0 -6 25 -10 63 -9 34 0 87 -4 117 -9 30 -6 80 -14 111 -20 31 -5 76 -15 100
-22 24 -7 56 -11 71 -10 15 1 33 -1 40 -5 7 -5 65 -9 128 -11 63 -1 126 -3
139 -5 13 -2 26 2 28 8 5 16 -50 34 -69 23 -10 -6 -27 -5 -44 2 -16 5 -58 10
-94 9 -36 -1 -101 4 -145 10 -44 6 -93 13 -110 15 -50 7 -78 12 -118 23 -21 6
-45 8 -53 5 -8 -3 -20 -1 -27 5 -13 10 -244 21 -337 15z"/>
<path d="M1727 1519 c7 -7 21 -7 44 -1 l34 10 -44 1 c-32 1 -42 -2 -34 -10z"/>
<path d="M1821 1511 l-25 -19 27 5 c15 3 27 10 27 15 0 5 4 7 8 4 4 -2 14 -1
22 5 12 7 9 9 -10 9 -14 0 -36 -9 -49 -19z"/>
<path d="M1577 1502 c-4 -6 -14 -9 -22 -5 -8 3 -15 0 -15 -7 0 -6 5 -8 12 -4
8 5 9 2 5 -9 -9 -23 2 -47 20 -47 12 0 12 3 -2 16 -14 15 -14 17 1 28 9 7 15
19 12 26 -3 10 -6 11 -11 2z"/>
<path d="M2266 1476 c46 -20 51 -36 12 -37 -31 0 -31 -1 -10 -10 32 -12 70 -2
68 19 -1 19 -46 42 -80 42 -17 -1 -15 -3 10 -14z"/>
<path d="M1960 1467 c-3 -2 -56 -7 -119 -11 -63 -3 -117 -8 -119 -11 -9 -9 12
-9 236 4 79 4 158 5 175 1 28 -7 25 -8 -21 -9 -36 -1 -51 -5 -46 -12 3 -6 20
-9 38 -6 17 3 55 1 85 -4 60 -9 78 -5 40 10 -13 5 -17 10 -9 10 10 1 11 4 3
12 -10 10 -254 26 -263 16z"/>
<path d="M2476 1435 c4 -8 11 -15 18 -15 6 0 21 -3 34 -6 13 -4 22 -2 22 5 0
6 -9 11 -21 11 -11 0 -29 5 -39 10 -16 8 -18 8 -14 -5z"/>
<path d="M60 1428 c-19 -5 -42 -16 -50 -25 -13 -14 -11 -15 25 -9 93 15 174
17 230 6 33 -6 69 -13 80 -14 81 -12 173 -46 345 -130 154 -75 193 -100 195
-122 5 -56 45 -100 45 -49 0 14 -5 24 -11 22 -6 -1 -13 6 -14 16 -4 22 0 22
23 -1 11 -11 17 -29 15 -45 -3 -20 1 -27 13 -27 11 0 15 6 11 20 -3 11 -1 23
4 26 15 9 10 25 -7 22 -13 -2 -35 27 -61 80 0 2 -26 10 -56 18 -30 7 -114 43
-188 78 -74 35 -179 80 -234 101 -91 34 -111 38 -215 40 -63 2 -131 -1 -150
-7z"/>
<path d="M1207 1433 c-11 -10 -8 -53 4 -53 5 0 7 -4 4 -10 -3 -5 0 -7 9 -4 8
3 12 12 9 20 -3 8 -10 11 -17 8 -6 -3 -2 2 8 10 18 15 18 16 2 16 -9 0 -14 5
-11 10 7 11 2 13 -8 3z"/>
<path d="M2587 1423 c-4 -3 -7 -11 -7 -17 0 -6 4 -6 8 2 7 9 13 8 27 -8 21
-24 20 -24 -65 -5 -36 8 -76 14 -90 14 -47 0 2 -16 102 -34 54 -9 101 -21 104
-26 3 -6 11 -5 20 2 9 7 27 9 50 4 21 -3 56 -9 78 -11 23 -3 48 -7 56 -10 8
-4 32 -8 53 -10 32 -3 38 -1 35 13 -3 19 -73 39 -163 47 -30 3 -54 11 -61 21
-8 10 -14 12 -19 6 -4 -8 -12 -8 -25 -1 -23 12 -33 13 -26 1 3 -4 -6 -6 -19
-3 -14 2 -28 8 -31 13 -6 11 -18 12 -27 2z"/>
<path d="M700 1395 c-19 -23 -6 -43 24 -38 37 7 88 -29 157 -111 33 -39 71
-84 85 -99 18 -19 25 -36 21 -52 -2 -14 0 -25 4 -25 5 0 9 7 9 15 0 23 16 18
17 -5 1 -11 -2 -20 -8 -20 -21 0 -7 -28 16 -32 18 -4 22 -2 16 6 -5 6 -12 25
-15 41 -10 58 -18 73 -42 79 -25 7 -31 20 -14 31 5 3 10 13 10 21 0 18 24 44
39 44 6 0 11 5 11 10 0 6 4 10 9 10 5 0 6 -12 2 -27 -4 -16 -13 -28 -21 -28
-7 0 -15 -6 -18 -14 -3 -8 0 -11 7 -7 7 5 9 1 5 -8 -3 -9 -1 -16 5 -16 6 0 11
4 11 8 0 5 7 17 15 28 13 17 13 15 3 -18 -6 -21 -15 -38 -20 -38 -13 0 -9 -20
7 -36 13 -14 15 -14 15 0 0 9 -6 16 -12 16 -9 0 -10 2 -2 8 11 7 30 69 26 85
-1 4 5 7 14 7 8 0 13 -4 10 -9 -4 -5 4 -6 16 -3 20 5 20 7 5 10 -11 2 -16 9
-13 18 4 11 0 11 -19 -2 -25 -16 -31 -10 -19 21 4 9 10 12 13 7 4 -6 15 -6 30
0 18 6 22 11 13 20 -21 21 -81 10 -120 -20 -54 -43 -75 -47 -92 -18 -29 47
-92 116 -124 136 -40 24 -59 25 -76 5z"/>
<path d="M1958 1404 c-4 -3 -26 -6 -50 -6 -25 0 -51 -4 -59 -10 -9 -6 7 -7 51
-3 36 3 69 11 75 16 5 6 5 9 -1 9 -6 0 -13 -3 -16 -6z"/>
<path d="M1712 1362 c4 -12 2 -25 -3 -28 -14 -8 -10 -21 7 -21 11 0 14 7 11
23 -6 33 17 37 44 8 l24 -25 17 21 c14 18 18 19 18 6 0 -20 14 -21 30 -1 11
13 15 13 21 3 6 -8 9 -9 9 -2 0 7 18 11 49 10 51 -1 58 -11 28 -40 -19 -19
-22 -36 -7 -36 5 0 1 -19 -10 -42 -10 -24 -21 -55 -25 -70 -4 -20 -10 -26 -23
-22 -12 4 -13 3 -4 -3 9 -7 10 -22 3 -56 -10 -56 4 -51 35 13 11 23 24 38 32
35 6 -2 12 -1 12 3 0 5 -6 14 -12 21 -11 10 -9 11 6 5 13 -5 17 -4 12 4 -12
19 -26 14 -37 -14 -12 -32 -24 -25 -13 8 4 13 7 26 6 31 -1 4 3 7 8 7 5 0 9 6
7 13 -1 6 3 11 9 10 8 -1 10 6 6 19 -4 16 -2 19 9 13 8 -5 11 -5 7 0 -4 4 -2
17 4 28 9 17 8 19 -8 13 -17 -6 -17 -5 2 14 22 22 94 40 94 22 0 -5 -9 -8 -19
-5 -11 3 -28 0 -38 -6 -15 -9 -13 -10 11 -5 19 5 31 2 37 -7 6 -11 9 -10 15 4
3 9 11 17 18 17 13 0 80 -33 100 -49 7 -6 15 -8 18 -5 3 2 6 -7 6 -22 0 -30
22 -50 35 -31 6 9 7 8 6 -3 -3 -31 2 -38 24 -36 32 4 47 14 47 33 0 9 -6 13
-15 9 -9 -3 -15 0 -15 10 0 8 -6 14 -13 12 -8 -2 -26 11 -41 29 -14 17 -40 34
-56 38 -32 7 -41 24 -12 24 9 0 38 2 64 4 47 4 70 -3 69 -19 -1 -5 5 -9 12 -9
6 0 12 -8 12 -17 0 -30 14 -31 21 -2 l7 29 8 -28 c4 -15 4 -41 -1 -57 -8 -27
-6 -30 14 -30 19 0 22 -4 19 -24 -3 -13 0 -33 6 -44 12 -23 -7 -92 -37 -127
-17 -20 -17 -20 6 -1 12 11 25 16 29 12 4 -4 3 -10 -3 -14 -6 -4 -13 -15 -17
-24 -3 -10 -11 -18 -17 -18 -6 0 -9 4 -5 9 3 5 1 12 -4 15 -5 4 -26 37 -47 74
-20 37 -41 68 -45 70 -4 2 -13 19 -19 38 -6 19 -16 34 -22 34 -5 0 -8 -3 -6
-7 32 -72 151 -303 157 -303 35 0 76 138 73 249 -2 50 -9 76 -33 122 -18 33
-36 59 -41 59 -6 0 -18 10 -27 21 -17 21 -26 22 -232 23 -118 0 -230 -1 -249
-3 -19 -2 -66 0 -104 4 -68 8 -69 8 -64 -13z"/>
<path d="M1186 1353 c-3 -4 -6 -15 -6 -25 0 -16 3 -16 20 -6 11 7 20 16 20 19
0 10 -27 19 -34 12z"/>
<path d="M1390 1349 c0 -5 -7 -6 -15 -3 -8 4 -15 1 -15 -6 0 -6 5 -8 10 -5 6
3 10 1 10 -5 0 -6 4 -9 9 -5 5 3 12 1 15 -4 3 -5 -1 -11 -9 -15 -8 -3 -15 -1
-15 4 0 18 -18 10 -23 -11 -4 -15 -2 -18 7 -10 9 7 16 7 26 -2 9 -8 11 -8 6 0
-3 6 -1 13 6 15 16 6 17 55 1 55 -7 0 -13 -4 -13 -8z"/>
<path d="M1310 1309 c0 -5 -5 -7 -11 -3 -6 3 -24 -7 -41 -22 -17 -16 -28 -23
-24 -16 4 6 2 12 -3 12 -13 0 -13 -3 -5 -24 4 -11 11 -13 23 -6 13 6 18 5 18
-5 0 -8 -5 -11 -10 -8 -6 3 -7 1 -3 -5 11 -17 36 -15 30 3 -4 9 6 22 28 36 18
11 25 18 15 15 -15 -5 -17 -2 -12 14 4 11 4 20 1 20 -3 0 -6 -5 -6 -11z"/>
<path d="M1908 1289 c5 -13 17 -26 27 -27 23 -5 15 17 -13 36 -21 14 -22 14
-14 -9z"/>
<path d="M2089 1283 c-6 -16 -13 -53 -16 -83 -6 -70 -61 -188 -100 -213 -56
-35 -92 -62 -93 -69 0 -4 19 -20 42 -35 39 -26 48 -28 130 -25 91 2 216 17
226 26 7 7 -71 195 -107 256 -11 20 -71 149 -71 154 0 3 8 7 18 9 16 4 16 5
-1 6 -10 1 -22 -10 -28 -26z m26 -73 c-3 -5 2 -10 12 -11 13 -1 11 -3 -7 -9
-18 -6 -20 -8 -7 -9 10 -1 16 -5 13 -10 -4 -5 5 -23 19 -39 25 -30 66 -112 72
-142 1 -8 3 -28 5 -45 3 -28 1 -30 -29 -27 -18 1 -33 -1 -33 -6 0 -4 -16 -7
-35 -7 -20 1 -38 -2 -41 -7 -3 -5 -10 -5 -16 -2 -6 4 -30 6 -53 6 -23 -1 -49
4 -61 13 -19 15 -19 15 1 30 44 33 65 59 90 110 15 29 29 56 33 60 4 3 7 22 9
41 1 20 7 42 14 50 13 16 23 19 14 4z"/>
<path d="M1760 1283 c0 -10 4 -25 10 -33 8 -12 10 -12 16 3 7 20 -1 47 -16 47
-5 0 -10 -8 -10 -17z"/>
<path d="M2021 1286 c-7 -8 -14 -23 -16 -35 -2 -12 -7 -26 -11 -33 -5 -7 -3
-8 6 -3 10 6 12 4 7 -8 -3 -10 -3 -17 2 -17 16 0 21 13 10 27 -9 10 -6 13 12
13 l24 1 -25 14 c-23 13 -15 21 14 16 5 -1 4 4 -3 12 -9 12 -9 16 1 20 8 3 8
6 2 6 -6 1 -17 -5 -23 -13z"/>
<path d="M2167 1258 c7 -8 10 -18 6 -21 -3 -4 -1 -7 5 -7 7 0 12 -4 12 -10 0
-20 -21 -9 -30 15 -5 14 -14 25 -19 25 -6 0 4 -24 22 -54 21 -36 36 -51 43
-45 6 5 14 6 18 2 4 -4 4 1 0 12 -5 11 -9 14 -12 7 -6 -19 -18 -14 -19 8 -1
12 3 18 8 14 6 -3 4 8 -5 24 -9 17 -22 34 -28 38 -10 6 -11 5 -1 -8z"/>
<path d="M1360 1228 c7 -12 14 -24 15 -26 6 -8 55 19 50 28 -3 5 -1 10 6 10 7
0 10 2 7 5 -3 3 -16 1 -30 -4 -15 -6 -31 -5 -42 1 -16 9 -17 8 -6 -14z"/>
<path d="M1148 1191 c35 -22 46 -49 13 -32 -16 9 -22 5 -40 -34 -22 -46 -27
-75 -13 -75 15 1 37 26 40 45 4 22 30 55 44 55 20 0 6 -53 -21 -80 -16 -16
-26 -31 -24 -34 3 -2 -4 -9 -15 -15 -23 -12 -51 -5 -53 13 -5 52 1 98 15 126
18 37 13 52 -8 29 -17 -16 -29 -67 -29 -123 -1 -30 5 -44 26 -62 14 -12 22
-24 18 -26 -5 -2 -3 -9 5 -15 11 -11 13 -9 11 10 -1 12 2 22 8 22 5 0 8 -6 7
-14 -2 -7 1 -10 7 -6 17 10 13 -4 -8 -26 -12 -13 -21 -17 -26 -10 -3 6 -11 11
-16 11 -6 0 -7 -5 -3 -11 4 -7 1 -10 -7 -7 -8 3 -14 16 -13 29 1 14 -6 31 -14
39 -14 13 -15 12 -9 -2 7 -19 -17 -43 -34 -33 -6 4 -3 -4 6 -19 19 -29 10 -36
-11 -8 -13 16 -13 16 -14 -1 0 -10 5 -28 11 -39 10 -18 17 -20 60 -14 41 6 48
4 43 -9 -3 -8 -1 -15 5 -15 20 0 12 40 -11 49 -26 9 -13 20 22 17 35 -3 70 19
107 67 38 51 47 84 33 121 -7 21 -15 26 -27 21 -10 -3 -14 -3 -11 0 9 10 -52
61 -82 69 -21 6 -20 4 8 -13z m100 -104 c-2 -12 -10 -29 -18 -37 -9 -8 -23
-27 -33 -42 -10 -16 -23 -28 -30 -27 -9 0 -9 2 1 6 10 4 10 8 1 19 -16 20 -3
47 20 41 19 -5 41 27 41 59 0 8 5 12 10 9 6 -4 10 -16 8 -28z m-196 -136 c-10
-6 -10 -11 3 -21 20 -16 19 -26 -3 -26 -11 0 -18 9 -19 26 -1 23 15 45 26 34
3 -3 0 -9 -7 -13z"/>
<path d="M1336 1184 c-9 -23 -8 -23 16 -19 23 5 49 25 32 25 -5 0 -16 -6 -23
-12 -10 -11 -11 -10 -6 5 4 9 3 17 -3 17 -5 0 -13 -7 -16 -16z"/>
<path d="M1257 1166 c4 -6 8 -13 8 -16 1 -16 25 -40 60 -62 41 -26 74 -58 59
-58 -5 0 2 -7 15 -16 19 -14 25 -14 32 -3 14 23 10 31 -12 24 -19 -6 -20 -4
-14 27 4 18 11 35 16 38 14 10 -8 33 -35 36 -30 3 -44 -12 -27 -29 9 -9 11 -8
6 6 -4 9 -5 17 -1 17 10 0 27 -40 21 -50 -9 -14 -31 -1 -44 26 -6 14 -14 23
-19 21 -4 -3 -16 4 -26 14 -11 11 -14 19 -8 19 23 0 11 15 -13 16 -16 1 -22
-2 -18 -10z"/>
<path d="M2032 1163 c-6 -2 -9 -9 -6 -15 4 -6 -2 -8 -17 -3 -18 5 -20 4 -9 -4
12 -8 12 -11 -4 -17 -14 -5 -15 -9 -4 -15 10 -7 9 -9 -5 -9 -10 0 -16 -4 -12
-9 3 -5 -8 -20 -24 -33 -31 -24 -45 -68 -23 -75 7 -3 10 1 6 11 -4 12 0 16 15
16 12 0 21 5 21 11 0 6 -9 8 -20 4 -11 -4 -20 -2 -20 4 0 6 13 11 29 11 32 0
50 15 29 23 -10 4 -10 6 0 6 7 1 10 6 6 13 -5 7 -2 9 7 6 8 -3 20 0 26 8 10
10 9 14 -5 17 -16 4 -16 5 1 6 9 0 17 4 18 9 0 4 2 15 4 25 2 9 3 17 2 16 -1
0 -8 -3 -15 -6z"/>
<path d="M2200 1137 c0 -2 9 -14 20 -27 11 -12 17 -26 14 -31 -3 -5 1 -19 8
-31 6 -13 13 -29 14 -37 2 -7 17 -42 35 -77 71 -138 339 -317 394 -262 3 3
-16 11 -42 18 -26 6 -66 21 -88 33 -57 30 -183 139 -184 159 -1 22 -18 32 -25
16 -4 -7 -4 -3 -2 9 2 12 -1 21 -6 20 -13 -3 -58 79 -49 89 3 4 0 4 -6 0 -9
-5 -13 0 -13 13 0 12 -4 21 -10 21 -5 0 -10 7 -10 15 0 22 -29 75 -40 75 -6 0
-10 -2 -10 -3z"/>
<path d="M1432 1096 c-8 -18 -7 -28 4 -45 20 -28 31 -20 28 20 -3 43 -18 55
-32 25z"/>
<path d="M1505 1111 c3 -5 -3 -11 -12 -14 -17 -4 -17 -4 1 -12 12 -5 21 -3 26
6 10 15 4 29 -11 29 -6 0 -8 -4 -4 -9z"/>
<path d="M1513 1056 c-27 -12 -29 -24 -8 -32 8 -4 15 -15 15 -25 0 -10 7 -19
15 -19 12 0 14 8 9 43 -4 23 -7 42 -8 43 -1 0 -11 -5 -23 -10z"/>
<path d="M1282 1041 c-10 -6 -4 -14 23 -30 61 -36 97 -23 40 16 -37 25 -44 27
-63 14z"/>
<path d="M1831 1037 c-1 -23 28 -87 40 -87 13 0 20 18 9 25 -5 3 -10 11 -10
16 0 6 5 7 10 4 13 -8 32 4 25 15 -3 6 -16 5 -30 0 -20 -8 -25 -5 -34 18 -7
19 -10 22 -10 9z"/>
<path d="M951 1000 c22 -42 33 -49 42 -27 6 17 -3 32 -26 40 -10 4 -15 11 -12
17 3 5 -1 10 -9 10 -13 0 -12 -6 5 -40z"/>
<path d="M1447 1006 c-15 -16 -30 -41 -33 -55 -3 -14 -16 -66 -29 -116 -21
-76 -36 -191 -48 -365 -4 -62 18 -48 24 15 11 99 19 157 24 166 5 7 21 76 29
129 3 14 9 45 15 70 6 29 6 48 0 56 -6 8 -4 14 7 18 23 9 23 8 19 -14 -4 -23
23 -28 43 -8 17 17 15 63 -2 78 -8 6 -16 21 -18 33 -3 21 -4 21 -31 -7z"/>
<path d="M1805 979 c4 -13 22 -64 40 -114 19 -49 37 -104 40 -122 8 -38 174
-253 196 -253 16 0 10 14 -22 50 -17 19 -47 59 -65 88 -19 29 -41 55 -49 58
-9 4 -13 16 -11 36 3 28 -26 118 -52 164 -9 14 -11 15 -12 4 0 -19 -28 33 -38
73 -4 17 -14 33 -21 35 -10 3 -11 -2 -6 -19z"/>
</g>
</svg>
