<?xml version="1.0" encoding="UTF-8" standalone="no"?>
<!DOCTYPE svg PUBLIC "-//W3C//DTD SVG 1.1//EN" "http://www.w3.org/Graphics/SVG/1.1/DTD/svg11.dtd">
<svg xmlns="http://www.w3.org/2000/svg" xmlns:dc="http://purl.org/dc/elements/1.1/" version="1.1" xmlns:xl="http://www.w3.org/1999/xlink" viewBox="0 0 300 200" width="300" height="200">
  <defs/>
  <metadata> Produced by OmniGraffle 7.18.6\n2022-07-23 20:40:17 +0000</metadata>
  <g id="Canvas_1" stroke="none" stroke-opacity="1" fill-opacity="1" fill="none" stroke-dasharray="none">
    <title>Canvas 1</title>
    <g id="Canvas_1_Layer_1">
      <title>Layer 1</title>
      <g id="Group_2">
        <g id="Graphic_39">
          <path d="M 154.73144 60.761704 C 153.73144 61.361704 151.23144 62.061704 149.23144 62.261704 C 147.23144 62.561704 145.13144 63.161704 144.53144 63.661704 C 143.73144 64.261704 143.13144 64.061704 142.83144 63.061704 C 142.33144 61.961704 141.33144 61.761704 138.93144 62.161704 C 134.63144 62.961704 122.13144 68.561704 122.13144 69.761704 C 122.13144 70.261704 120.93144 71.061704 119.53144 71.561704 C 117.33144 72.461704 117.03144 73.061704 117.53144 75.3617 C 118.03144 77.3617 117.93144 77.6617 117.13144 76.5617 C 116.23144 75.2617 116.03144 75.2617 115.13144 76.5617 C 114.63144 77.3617 114.33144 78.6617 114.63144 79.3617 C 114.93144 80.0617 114.53144 81.6617 113.73144 82.8617 C 111.93144 85.7617 112.43144 93.5617 114.53144 95.1617 C 115.43144 95.7617 116.13144 96.7617 116.13144 97.4617 C 116.13144 98.0617 116.83144 98.5617 117.63144 98.5617 C 119.63144 98.5617 121.53144 102.2617 119.83144 102.8617 C 119.13144 103.1617 119.83144 103.7617 121.33144 104.3617 C 122.73144 104.9617 124.23144 105.8617 124.53144 106.4617 C 125.33144 107.6617 128.13144 106.7617 128.13144 105.3617 C 128.13144 104.7617 127.33144 104.9617 126.43144 105.6617 C 124.93144 106.8617 124.83144 106.8617 125.43144 105.2617 C 126.33144 102.8617 125.23144 100.5617 123.13144 100.5617 C 121.83144 100.5617 121.33144 99.9617 121.63144 98.5617 C 121.93144 97.1617 121.13144 96.3617 118.53144 95.3617 C 116.63144 94.7617 115.03144 93.6617 114.93144 93.0617 C 114.43144 89.3617 114.53144 86.6617 115.23144 87.1617 C 115.73144 87.4617 116.13144 87.1617 116.13144 86.6617 C 116.13144 86.0617 115.33144 85.5617 114.43144 85.5617 C 112.93144 85.5617 112.83144 85.3617 114.13144 84.6617 C 114.93144 84.0617 115.93144 83.9617 116.33144 84.1617 C 116.73144 84.4617 117.13144 84.1617 117.13144 83.6617 C 117.13144 83.0617 117.53144 82.5617 118.13144 82.5617 C 119.13144 82.5617 117.23144 87.6617 115.83144 88.6617 C 115.33144 88.9617 115.73144 89.9617 116.53144 90.8617 C 117.73144 91.9617 117.83144 92.5617 116.83144 92.9617 C 116.23144 93.1617 116.73144 93.2617 118.03144 93.1617 C 121.23144 92.7617 124.13144 85.6617 121.63144 84.2617 C 119.53144 83.1617 119.73144 81.5617 122.03144 81.5617 C 123.13144 81.5617 124.23144 81.1617 124.53144 80.7617 C 125.13144 79.7617 120.93144 79.9617 119.33144 80.9617 C 118.63144 81.3617 118.13144 81.1617 118.13144 80.4617 C 118.13144 79.6617 117.63144 79.8617 116.93144 80.8617 C 115.73144 82.4617 115.63144 82.3617 115.63144 80.2617 C 115.63144 78.4617 116.13144 77.9617 117.83144 78.1617 C 119.43144 78.2617 119.83144 77.9617 119.43144 76.8617 C 119.03144 75.7617 119.23144 75.4617 120.23144 75.7617 C 121.03144 76.0617 121.43144 77.1617 121.33144 78.1617 C 121.03144 79.6617 121.23144 79.7617 122.13144 78.8617 C 122.83144 78.2617 124.03144 77.9617 124.73144 78.2617 C 125.53144 78.5617 126.13144 78.2617 126.13144 77.5617 C 126.13144 76.9617 125.63144 76.7617 125.03144 77.1617 C 124.33144 77.5617 124.13144 77.1617 124.53144 75.7617 C 124.93144 74.661704 124.73144 73.461704 124.13144 73.061704 C 123.63144 72.761704 123.13144 71.861704 123.13144 71.261704 C 123.13144 70.561704 123.53144 70.661704 124.13144 71.561704 C 124.93144 72.761704 125.53144 72.561704 127.93144 70.261704 C 130.53144 67.761704 134.13144 67.361704 134.13144 69.561704 C 134.13144 70.461704 131.03144 71.961704 129.83144 71.661704 C 129.33144 71.561704 129.23144 71.961704 129.63144 72.561704 C 129.93144 73.061704 129.73144 73.561704 129.03144 73.561704 C 128.23144 73.561704 128.23144 73.961704 129.13144 75.061704 C 130.23144 76.3617 129.93144 76.9617 128.03144 76.7617 C 127.73144 76.6617 127.43144 77.2617 127.43144 78.0617 C 127.43144 78.7617 128.03144 79.1617 128.83144 78.8617 C 129.53144 78.5617 130.13144 77.9617 130.13144 77.4617 C 130.13144 76.9617 131.13144 76.9617 132.43144 77.4617 C 133.63144 77.8617 135.33144 78.0617 136.13144 77.7617 C 137.43144 77.2617 137.43144 77.4617 136.13144 79.1617 C 133.83144 82.1617 132.93144 82.4617 130.43144 81.4617 C 127.33144 80.3617 127.43144 80.2617 127.43144 82.0617 C 127.43144 83.1617 128.33144 83.4617 130.83144 83.1617 C 134.63144 82.7617 134.93144 84.4617 131.33144 86.0617 C 129.03144 87.0617 128.33144 88.5617 130.13144 88.5617 C 131.93144 88.5617 131.13144 90.4617 129.03144 91.0617 C 127.83144 91.4617 127.23144 92.2617 127.53144 93.1617 C 127.83144 94.0617 126.93144 95.1617 125.03144 96.1617 C 123.33144 96.9617 122.13144 97.9617 122.43144 98.1617 C 123.13144 98.9617 128.13144 97.4617 128.13144 96.4617 C 128.13144 95.9617 129.53144 94.8617 131.23144 93.9617 C 133.63144 92.7617 134.63144 92.6617 135.13144 93.5617 C 135.63144 94.3617 136.03144 94.1617 136.53144 92.9617 C 136.83144 92.0617 137.43144 91.5617 137.73144 91.8617 C 138.13144 92.1617 139.23144 91.5617 140.43144 90.4617 C 143.53144 87.5617 146.03144 87.9617 146.83144 91.6617 C 147.23144 93.8617 147.63144 94.3617 148.23144 93.3617 C 148.83144 92.4617 149.13144 92.6617 149.13144 94.2617 C 149.13144 95.5617 148.63144 96.5617 148.03144 96.5617 C 147.53144 96.5617 147.33144 96.9617 147.63144 97.5617 C 147.93144 98.0617 147.53144 98.5617 146.73144 98.5617 C 145.83144 98.5617 145.13144 99.2617 145.13144 100.0617 C 145.13144 100.8617 145.63144 101.5617 146.23144 101.5617 C 146.73144 101.5617 147.03144 101.1617 146.73144 100.6617 C 146.43144 100.1617 146.83144 99.5617 147.63144 99.1617 C 149.03144 98.6617 149.53144 99.6617 149.23144 102.2617 C 149.13144 102.9617 149.53144 103.5617 150.13144 103.5617 C 151.53144 103.5617 151.43144 100.2617 149.93144 98.7617 C 148.93144 97.7617 148.93144 97.2617 150.13144 96.5617 C 151.23144 95.8617 151.83144 96.1617 152.43144 97.9617 C 153.33144 100.6617 151.63144 105.9617 150.13144 105.0617 C 149.53144 104.6617 149.13144 104.7617 149.23144 105.2617 C 149.53144 107.1617 149.03144 108.6617 148.23144 108.0617 C 147.03144 107.3617 143.73144 110.6617 144.83144 111.4617 C 145.33144 111.7617 146.13144 112.9617 146.53144 114.0617 C 147.03144 115.2617 147.53144 115.5617 147.83144 114.8617 C 148.03144 114.1617 147.83144 112.8617 147.23144 111.7617 C 146.53144 110.3617 146.53144 109.8617 147.63144 109.8617 C 148.43144 109.8617 148.83144 110.2617 148.53144 110.7617 C 148.23144 111.1617 148.43144 111.5617 149.03144 111.5617 C 149.63144 111.5617 149.83144 112.2617 149.43144 113.1617 C 149.13144 114.0617 149.43144 115.1617 150.23144 115.6617 C 152.13144 116.8617 153.13144 116.7617 153.13144 115.4617 C 153.13144 114.9617 152.73144 114.6617 152.23144 115.0617 C 151.73144 115.3617 151.03144 115.1617 150.63144 114.5617 C 150.33144 113.9617 151.03144 113.5617 152.33144 113.5617 L 154.53144 113.5617 L 152.33144 111.9617 C 151.13144 111.1617 150.13144 110.0617 150.13144 109.5617 C 150.13144 107.8617 154.33144 104.6617 156.03144 105.2617 C 157.33144 105.6617 157.33144 105.5617 156.23144 104.7617 C 155.53144 104.2617 155.23144 103.2617 155.53144 102.6617 C 155.93144 102.0617 155.83144 101.5617 155.33144 101.5617 C 154.83144 101.5617 154.43144 100.8617 154.43144 100.0617 C 154.43144 98.8617 154.73144 98.8617 156.03144 99.8617 C 156.93144 100.5617 157.23144 100.6617 156.83144 99.9617 C 156.43144 99.2617 156.83144 98.8617 157.73144 98.9617 C 158.83144 98.9617 159.83144 97.7617 160.63144 95.5617 C 161.43144 93.2617 162.43144 92.1617 163.53144 92.3617 C 164.43144 92.5617 165.13144 91.9617 165.13144 91.1617 C 165.13144 90.3617 165.63144 89.3617 166.33144 88.9617 C 167.13144 88.4617 167.23144 88.7617 166.83144 89.9617 C 166.43144 90.8617 166.83144 92.7617 167.73144 94.0617 C 168.63144 95.4617 169.13144 97.1617 168.83144 97.9617 C 168.13144 99.6617 164.93144 99.4617 164.33144 97.7617 C 164.13144 97.0617 164.53144 96.7617 165.33144 97.0617 C 166.23144 97.4617 166.73144 96.8617 166.83144 95.5617 C 167.13144 92.4617 165.53144 93.1617 163.73144 97.0617 C 162.23144 100.1617 161.23144 100.9617 159.03144 100.7617 C 158.73144 100.7617 158.43144 102.2617 158.33144 104.1617 C 158.13144 106.0617 158.53144 107.5617 159.13144 107.5617 C 159.63144 107.5617 160.13144 108.6617 160.13144 109.8617 C 160.13144 111.1617 161.03144 113.0617 162.13144 114.0617 C 165.03144 116.6617 164.83144 114.0617 161.63144 108.1617 C 158.73144 102.6617 158.73144 102.5617 160.53144 102.5617 C 161.33144 102.5617 162.13144 101.8617 162.53144 101.0617 C 162.83144 100.2617 163.63144 99.5617 164.23144 99.5617 C 165.03144 99.5617 165.03144 99.9617 164.43144 100.7617 C 163.13144 102.3617 163.13144 105.5617 164.43144 105.5617 C 164.93144 105.5617 165.13144 104.9617 164.83144 104.1617 C 164.53144 103.3617 164.93144 101.9617 165.83144 100.8617 C 167.23144 99.1617 167.23144 99.1617 166.63144 100.9617 C 166.03144 102.8617 166.13144 102.8617 168.03144 101.1617 C 169.93144 99.4617 169.93144 99.4617 169.63144 103.2617 C 169.53144 105.3617 169.63144 106.0617 169.83144 104.7617 C 170.03144 103.5617 170.73144 102.5617 171.23144 102.5617 C 171.83144 102.5617 172.03144 102.9617 171.63144 103.4617 C 171.33144 103.9617 171.53144 104.6617 172.03144 104.9617 C 172.63144 105.3617 172.63144 106.9617 172.03144 109.0617 C 171.13144 112.0617 171.43144 113.4617 173.53144 118.0617 C 176.73144 124.7617 176.73144 125.3617 173.63144 126.5617 C 172.23144 127.0617 171.13144 128.1617 171.13144 129.0617 C 171.13144 129.8617 170.63144 130.5617 170.03144 130.5617 C 169.23144 130.5617 169.03144 129.0617 169.53144 125.9617 C 169.93144 122.8617 169.73144 121.6617 169.03144 122.1617 C 168.33144 122.5617 168.13144 122.1617 168.43144 120.9617 C 168.73144 119.8617 169.23144 117.2617 169.63144 115.1617 L 170.33144 111.2617 L 167.83144 114.1617 C 166.43144 115.7617 164.13144 117.7617 162.73144 118.4617 C 159.63144 120.1617 159.43144 122.6617 162.03144 126.9617 C 167.83144 136.1617 175.53144 139.0617 180.93144 133.7617 C 184.93144 129.8617 183.93144 127.7617 179.63144 131.0617 C 177.73144 132.4617 175.43144 133.5617 174.43144 133.5617 C 173.23144 133.4617 173.63144 133.0617 175.63144 132.0617 L 178.63144 130.6617 L 175.93144 131.0617 C 172.23144 131.5617 172.43144 130.4617 176.23144 128.3617 C 177.93144 127.3617 179.03144 126.1617 178.73144 125.6617 C 177.63144 123.9617 180.93144 123.6617 183.13144 125.2617 C 185.23144 126.7617 185.33144 126.7617 184.23144 124.7617 C 183.63144 123.6617 182.73144 122.5617 182.23144 122.3617 C 181.43144 122.0617 180.83144 117.5617 181.03144 113.2617 C 181.23144 110.0617 183.13144 111.5617 183.13144 114.9617 C 183.13144 116.7617 183.83144 118.8617 184.63144 119.5617 C 185.93144 120.6617 186.13144 120.2617 186.13144 116.7617 C 186.13144 111.4617 185.33144 109.5617 183.43144 110.2617 C 182.63144 110.5617 181.53144 110.2617 180.93144 109.4617 C 180.13144 108.3617 180.03144 108.3617 180.43144 109.7617 C 180.73144 110.6617 180.43144 111.6617 179.63144 111.9617 C 178.63144 112.3617 178.43144 113.2617 179.13144 115.4617 C 179.73144 117.5617 179.63144 118.5617 178.93144 118.5617 C 178.33144 118.5617 178.13144 119.4617 178.43144 120.6617 C 178.73144 121.9617 178.53144 122.5617 177.83144 122.2617 C 177.13144 122.0617 176.73144 120.6617 176.83144 119.1617 C 176.93144 117.7617 176.63144 116.7617 176.13144 117.0617 C 175.73144 117.3617 175.53144 116.6617 175.83144 115.4617 C 176.13144 114.2617 175.93144 113.0617 175.33144 112.6617 C 173.73144 111.6617 175.03144 107.3617 176.73144 107.9617 C 177.53144 108.2617 178.13144 108.0617 178.13144 107.5617 C 178.13144 106.9617 178.83144 106.5617 179.73144 106.5617 C 180.63144 106.5617 181.13144 105.9617 180.83144 105.2617 C 180.63144 104.5617 178.93144 104.1617 176.83144 104.2617 C 174.23144 104.3617 173.13144 104.0617 173.13144 102.9617 C 173.13144 102.1617 172.73144 101.5617 172.13144 101.5617 C 171.63144 101.5617 171.13144 101.0617 171.13144 100.5617 C 171.13144 98.9617 174.33144 99.4617 175.63144 101.1617 C 176.73144 102.6617 176.83144 102.6617 177.33144 100.7617 C 177.63144 99.5617 177.63144 98.6617 177.23144 98.7617 C 176.93144 98.7617 175.13144 98.7617 173.23144 98.6617 C 169.93144 98.5617 169.83144 98.4617 171.73144 97.0617 C 173.43144 95.7617 173.43144 95.6617 171.93144 95.5617 C 170.03144 95.5617 169.33144 92.5617 171.23144 92.5617 C 171.73144 92.5617 171.93144 91.9617 171.53144 91.2617 C 171.13144 90.6617 171.83144 90.9617 173.03144 91.9617 L 175.23144 93.9617 L 174.33144 91.4617 C 173.13144 88.3617 170.53144 87.8617 169.63144 90.5617 C 169.33144 91.6617 168.53144 92.2617 167.93144 91.9617 C 167.23144 91.5617 167.33144 91.0617 168.03144 90.5617 C 170.23144 89.2617 166.13144 87.1617 161.53144 87.1617 L 157.13144 87.1617 L 157.33144 83.3617 C 157.43144 81.2617 157.13144 79.2617 156.83144 78.8617 C 156.43144 78.5617 156.73144 77.5617 157.43144 76.7617 C 158.43144 75.4617 158.33144 75.3617 157.13144 75.7617 C 156.33144 76.0617 155.73144 77.0617 155.83144 77.9617 C 155.83144 78.9617 155.73144 79.4617 155.43144 79.1617 C 155.13144 78.8617 154.03144 79.0617 153.03144 79.6617 C 151.63144 80.3617 151.13144 80.2617 151.13144 79.3617 C 151.13144 78.6617 149.33144 80.0617 147.13144 82.5617 C 144.93144 84.9617 143.13144 86.4617 143.13144 85.7617 C 143.13144 85.0617 144.33144 83.4617 145.83144 82.1617 C 148.43144 79.9617 148.43144 79.8617 146.73144 77.4617 L 144.93144 75.061704 L 145.43144 77.4617 C 145.83144 79.0617 145.33144 80.4617 143.53144 82.2617 C 142.03144 83.7617 141.13144 84.1617 141.03144 83.3617 C 140.93144 82.6617 140.83144 81.5617 140.63144 81.0617 C 140.53144 80.4617 140.33144 79.4617 140.33144 78.6617 C 140.13144 77.5617 139.73144 77.6617 138.63144 79.1617 C 137.03144 81.2617 136.63144 84.5617 138.03144 84.5617 C 138.53144 84.5617 138.73144 83.5617 138.53144 82.2617 C 138.13144 80.7617 138.63144 81.1617 140.03144 83.5617 C 141.33144 85.8617 141.53144 87.1617 140.83144 87.4617 C 140.23144 87.6617 139.53144 87.3617 139.33144 86.7617 C 139.13144 86.0617 137.93144 85.8617 136.53144 86.1617 C 135.03144 86.5617 134.13144 86.3617 134.13144 85.6617 C 134.13144 85.0617 134.53144 84.5617 135.03144 84.5617 C 135.63144 84.5617 135.93144 83.7617 135.83144 82.7617 C 135.63144 80.1617 138.93144 75.8617 142.43144 74.161704 C 145.43144 72.761704 148.53144 69.261704 148.63144 67.161704 C 148.63144 66.661704 149.33144 66.061704 150.13144 65.761704 C 150.93144 65.461704 151.33144 65.661704 150.93144 66.061704 C 150.53144 66.561704 150.63144 67.461704 151.13144 68.061704 C 151.93144 68.961704 151.73144 69.461704 150.63144 69.961704 C 149.83144 70.261704 149.13144 71.261704 149.13144 72.261704 C 149.13144 73.661704 148.93144 73.761704 148.23144 72.761704 C 147.53144 71.661704 147.33144 71.661704 146.83144 72.761704 C 146.53144 73.661704 146.93144 74.261704 147.83144 74.261704 C 148.73144 74.261704 149.63144 73.361704 149.93144 72.361704 C 150.13144 71.361704 150.73144 70.861704 151.23144 71.161704 C 152.83144 72.161704 152.23144 73.461704 149.43144 74.961704 C 147.83144 75.7617 147.13144 76.5617 147.63144 76.6617 C 153.53144 77.5617 153.83144 77.4617 153.53144 75.061704 C 153.43144 73.761704 153.03144 72.161704 152.63144 71.661704 C 152.33144 71.061704 152.43144 70.561704 152.93144 70.561704 C 153.43144 70.561704 154.13144 71.461704 154.43144 72.661704 C 154.73144 73.861704 155.43144 74.461704 156.03144 74.061704 C 156.63144 73.761704 156.93144 73.061704 156.63144 72.561704 C 156.33144 72.061704 156.53144 71.461704 157.13144 71.061704 C 158.63144 70.161704 157.23144 68.361704 155.53144 68.961704 C 153.83144 69.561704 151.93144 66.261704 152.73144 64.161704 C 153.03144 63.261704 153.93144 62.561704 154.63144 62.561704 C 156.03144 62.561704 157.63144 60.761704 156.93144 60.061704 C 156.73144 59.861704 155.73144 60.161704 154.73144 60.761704 Z M 142.03144 64.261704 C 141.53144 67.261704 142.23144 67.761704 144.03144 66.161704 C 145.13144 65.161704 146.53144 64.661704 147.03144 65.061704 C 147.63144 65.361704 148.13144 65.161704 148.13144 64.661704 C 148.13144 64.061704 149.13144 63.561704 150.43144 63.561704 C 152.63144 63.561704 152.53144 63.661704 150.13144 64.861704 C 148.73144 65.561704 147.63144 66.661704 147.63144 67.361704 C 147.63144 68.061704 147.23144 68.461704 146.63144 68.261704 C 146.13144 68.161704 145.73144 67.461704 145.73144 66.761704 C 145.93144 64.961704 145.33144 65.261704 144.03144 67.661704 C 143.23144 69.161704 143.23144 69.561704 144.03144 69.161704 C 144.63144 68.761704 145.13144 68.961704 145.13144 69.561704 C 145.13144 70.161704 144.03144 71.061704 142.63144 71.561704 C 141.23144 72.061704 140.13144 72.861704 140.13144 73.361704 C 140.13144 74.361704 135.73144 76.5617 133.73144 76.5617 C 132.03144 76.5617 132.83144 72.061704 134.73144 70.461704 C 136.33144 69.161704 136.63144 67.161704 135.13144 68.061704 C 134.63144 68.361704 134.13144 68.061704 134.13144 67.361704 C 134.13144 65.961704 137.63144 63.861704 140.43144 63.661704 C 141.33144 63.661704 142.03144 63.861704 142.03144 64.261704 Z M 155.23144 82.2617 C 155.33144 83.2617 155.33144 84.4617 155.23144 84.9617 C 154.93144 86.5617 157.43144 88.6617 159.03144 88.0617 C 160.03144 87.7617 159.83144 88.2617 158.53144 89.2617 C 156.93144 90.5617 156.53144 91.5617 157.13144 93.0617 C 157.63144 94.1617 158.03144 94.4617 158.03144 93.7617 C 158.13144 93.1617 158.53144 92.5617 159.13144 92.5617 C 161.13144 92.5617 158.33144 96.9617 155.83144 97.6617 C 153.93144 98.1617 153.23144 97.9617 152.83144 96.5617 C 152.53144 95.3617 153.03144 94.5617 154.23144 94.2617 C 156.23144 93.7617 156.93144 91.5617 155.03144 91.5617 C 154.53144 91.5617 154.33144 92.0617 154.73144 92.7617 C 155.23144 93.5617 154.93144 93.6617 153.63144 93.1617 C 152.53144 92.7617 151.43144 92.9617 150.93144 93.7617 C 150.43144 94.6617 150.13144 94.3617 150.13144 92.7617 C 150.13144 90.7617 150.63144 90.3617 152.73144 90.6617 C 153.13144 90.6617 153.83144 90.1617 154.23144 89.3617 C 154.93144 88.3617 155.13144 88.3617 155.13144 89.3617 C 155.13144 90.0617 155.63144 90.3617 156.23144 89.9617 C 158.43144 88.6617 154.93144 87.7617 151.53144 88.8617 C 146.53144 90.3617 145.23144 88.6617 147.93144 84.3617 C 149.13144 82.5617 150.13144 81.7617 150.13144 82.5617 C 150.13144 83.7617 150.43144 83.6617 151.83144 82.2617 C 154.03144 80.0617 155.13144 80.0617 155.23144 82.2617 Z M 121.43144 85.2617 C 121.83144 85.5617 121.73144 86.3617 121.23144 86.9617 C 120.73144 87.5617 120.23144 88.4617 120.23144 88.9617 C 120.23144 89.5617 119.53144 90.0617 118.73144 90.1617 C 117.63144 90.3617 117.53144 89.7617 118.33144 87.4617 C 119.33144 84.5617 120.23144 83.9617 121.43144 85.2617 Z M 134.13144 87.6617 C 134.13144 88.2617 134.83144 88.5617 135.63144 88.1617 C 136.93144 87.6617 137.03144 87.9617 136.03144 89.6617 C 135.03144 91.6617 134.93144 91.6617 133.63144 89.8617 C 131.93144 87.6617 131.73144 86.5617 133.13144 86.5617 C 133.73144 86.5617 134.13144 87.0617 134.13144 87.6617 Z M 166.03144 128.8617 C 165.13144 131.0617 165.13144 131.0617 165.53144 128.7617 C 165.83144 127.3617 165.43144 126.2617 164.53144 125.8617 C 163.73144 125.5617 163.13144 124.9617 163.13144 124.3617 C 163.13144 123.8617 163.63144 123.7617 164.13144 124.0617 C 164.73144 124.3617 165.13144 123.8617 165.23144 122.8617 C 165.23144 121.7617 165.63144 122.1617 166.13144 123.8617 C 166.63144 125.5617 166.63144 127.6617 166.03144 128.8617 Z" fill="black"/>
        </g>
        <g id="Graphic_38">
          <path d="M 160.13144 61.561704 C 160.13144 62.061704 159.43144 62.561704 158.63144 62.561704 C 157.83144 62.561704 157.13144 62.961704 157.13144 63.561704 C 157.13144 64.061704 156.43144 64.261704 155.63144 63.961704 C 154.83144 63.561704 154.13144 63.861704 154.13144 64.561704 C 154.13144 65.161704 154.53144 65.461704 155.03144 65.061704 C 155.63144 64.761704 157.13144 66.061704 158.43144 68.061704 C 159.73144 69.961704 161.13144 71.261704 161.63144 70.761704 C 162.13144 70.361704 162.13144 70.661704 161.73144 71.261704 C 161.33144 71.961704 161.53144 72.561704 162.03144 72.561704 C 162.63144 72.561704 163.13144 73.061704 163.13144 73.561704 C 163.13144 74.261704 162.43144 74.261704 161.03144 73.561704 C 159.93144 72.861704 158.73144 72.661704 158.33144 72.961704 C 158.03144 73.261704 158.33144 73.561704 159.03144 73.561704 C 159.83144 73.561704 160.13144 74.161704 159.73144 75.1617 C 159.23144 76.4617 159.43144 76.5617 160.33144 75.8617 C 162.13144 74.561704 166.63144 75.7617 166.63144 77.5617 C 166.63144 78.3617 165.63144 79.4617 164.43144 80.0617 C 163.13144 80.5617 162.13144 81.3617 162.13144 81.7617 C 162.13144 82.7617 165.43144 81.4617 166.33144 80.1617 C 167.23144 78.7617 171.53144 78.6617 172.33144 79.9617 C 172.93144 80.7617 173.13144 80.7617 173.13144 79.9617 C 173.13144 79.3617 174.13144 78.9617 175.43144 79.0617 C 176.63144 79.1617 176.83144 79.0617 175.93144 78.8617 C 174.93144 78.6617 174.13144 77.9617 174.13144 77.4617 C 174.13144 76.9617 173.13144 76.6617 172.03144 76.8617 C 170.83144 76.9617 169.63144 76.4617 169.33144 75.6617 C 169.03144 74.661704 169.43144 74.361704 170.73144 74.761704 C 172.33144 75.1617 172.63144 74.561704 172.83144 71.061704 C 173.03144 67.661704 172.63144 66.261704 170.53144 64.061704 C 168.43144 61.761704 167.73144 61.561704 167.03144 62.661704 C 166.33144 63.761704 166.13144 63.761704 166.13144 62.261704 C 166.13144 61.061704 165.33144 60.561704 163.13144 60.561704 C 161.53144 60.561704 160.13144 60.961704 160.13144 61.561704 Z M 163.53144 64.861704 C 163.33144 65.961704 162.93144 67.061704 162.53144 67.461704 C 162.13144 67.761704 162.13144 67.261704 162.43144 66.261704 C 163.23144 64.261704 161.33144 63.961704 160.53144 66.061704 C 160.03144 67.161704 159.63144 67.261704 158.63144 66.261704 C 157.93144 65.561704 157.53144 64.661704 157.83144 64.161704 C 158.13144 63.761704 158.73144 63.961704 159.23144 64.661704 C 159.93144 65.761704 160.13144 65.661704 160.13144 64.361704 C 160.13144 63.361704 160.83144 62.761704 162.03144 62.861704 C 163.33144 62.961704 163.83144 63.561704 163.53144 64.861704 Z M 168.23144 65.461704 C 168.83144 64.461704 169.13144 64.661704 169.13144 66.261704 C 169.13144 67.561704 169.63144 68.561704 170.23144 68.561704 C 171.03144 68.561704 171.03144 68.961704 170.13144 70.061704 C 169.53144 70.861704 169.33144 72.061704 169.73144 72.661704 C 170.13144 73.361704 170.03144 73.561704 169.33144 73.161704 C 168.83144 72.861704 168.03144 73.161704 167.73144 73.761704 C 167.43144 74.461704 167.43144 73.461704 167.73144 71.461704 C 168.13144 68.661704 167.93144 67.661704 166.63144 67.161704 C 165.63144 66.861704 165.33144 66.061704 165.73144 65.361704 C 166.33144 64.461704 166.63144 64.461704 166.93144 65.461704 C 167.33144 66.561704 167.53144 66.561704 168.23144 65.461704 Z" fill="black"/>
        </g>
        <g id="Graphic_37">
          <path d="M 188.13144 69.261704 C 180.03144 69.661704 173.83144 70.661704 174.53144 71.261704 C 175.63144 72.461704 195.13144 72.761704 195.13144 71.661704 C 195.13144 70.461704 198.03144 70.261704 200.53144 71.161704 C 201.83144 71.661704 201.93144 72.061704 201.03144 73.161704 C 200.13144 74.261704 200.23144 74.561704 201.33144 74.561704 C 202.03144 74.561704 203.33144 73.661704 204.13144 72.561704 C 205.63144 70.461704 208.13144 69.861704 208.13144 71.661704 C 208.13144 72.261704 210.63144 72.661704 214.43144 72.561704 C 217.83144 72.561704 223.13144 72.961704 226.13144 73.461704 C 229.13144 74.061704 234.13144 74.861704 237.23144 75.4617 C 240.33144 75.9617 244.83144 76.9617 247.23144 77.6617 C 249.63144 78.3617 252.83144 78.7617 254.33144 78.6617 C 255.83144 78.5617 257.63144 78.7617 258.33144 79.1617 C 259.03144 79.6617 264.83144 80.0617 271.13144 80.2617 C 277.43144 80.3617 283.73144 80.5617 285.03144 80.7617 C 286.33144 80.9617 287.63144 80.5617 287.83144 79.9617 C 288.33144 78.3617 282.83144 76.5617 280.93144 77.6617 C 279.93144 78.2617 278.23144 78.1617 276.53144 77.4617 C 274.93144 76.9617 270.73144 76.4617 267.13144 76.5617 C 263.53144 76.6617 257.03144 76.1617 252.63144 75.5617 C 248.23144 74.961704 243.33144 74.261704 241.63144 74.061704 C 236.63144 73.361704 233.83144 72.861704 229.83144 71.761704 C 227.73144 71.161704 225.33144 70.961704 224.53144 71.261704 C 223.73144 71.561704 222.53144 71.361704 221.83144 70.761704 C 220.53144 69.761704 197.43144 68.661704 188.13144 69.261704 Z" fill="black"/>
        </g>
        <g id="Graphic_36">
          <path d="M 176.83144 75.6617 C 177.53144 76.3617 178.93144 76.3617 181.23144 75.7617 L 184.63144 74.761704 L 180.23144 74.661704 C 177.03144 74.561704 176.03144 74.861704 176.83144 75.6617 Z" fill="black"/>
        </g>
        <g id="Graphic_35">
          <path d="M 186.23144 76.4617 L 183.73144 78.3617 L 186.43144 77.8617 C 187.93144 77.5617 189.13144 76.8617 189.13144 76.3617 C 189.13144 75.8617 189.53144 75.6617 189.93144 75.9617 C 190.33144 76.1617 191.33144 76.0617 192.13144 75.4617 C 193.33144 74.761704 193.03144 74.561704 191.13144 74.561704 C 189.73144 74.561704 187.53144 75.4617 186.23144 76.4617 Z" fill="black"/>
        </g>
        <g id="Graphic_34">
          <path d="M 161.83144 77.3617 C 161.43144 77.9617 160.43144 78.2617 159.63144 77.8617 C 158.83144 77.5617 158.13144 77.8617 158.13144 78.5617 C 158.13144 79.1617 158.63144 79.3617 159.33144 78.9617 C 160.13144 78.4617 160.23144 78.7617 159.83144 79.8617 C 158.93144 82.1617 160.03144 84.5617 161.83144 84.5617 C 163.03144 84.5617 163.03144 84.2617 161.63144 82.9617 C 160.23144 81.4617 160.23144 81.2617 161.73144 80.1617 C 162.63144 79.4617 163.23144 78.2617 162.93144 77.5617 C 162.63144 76.5617 162.33144 76.4617 161.83144 77.3617 Z" fill="black"/>
        </g>
        <g id="Graphic_33">
          <path d="M 230.73144 79.9617 C 235.33144 81.9617 235.83144 83.5617 231.93144 83.6617 C 228.83144 83.6617 228.83144 83.7617 230.93144 84.6617 C 234.13144 85.8617 237.93144 84.8617 237.73144 82.7617 C 237.63144 80.8617 233.13144 78.5617 229.73144 78.5617 C 228.03144 78.6617 228.23144 78.8617 230.73144 79.9617 Z" fill="black"/>
        </g>
        <g id="Graphic_32">
          <path d="M 200.13144 80.8617 C 199.83144 81.0617 194.53144 81.5617 188.23144 81.9617 C 181.93144 82.2617 176.53144 82.7617 176.33144 83.0617 C 175.43144 83.9617 177.53144 83.9617 199.93144 82.6617 C 207.83144 82.2617 215.73144 82.1617 217.43144 82.5617 C 220.23144 83.2617 219.93144 83.3617 215.33144 83.4617 C 211.73144 83.5617 210.23144 83.9617 210.73144 84.6617 C 211.03144 85.2617 212.73144 85.5617 214.53144 85.2617 C 216.23144 84.9617 220.03144 85.1617 223.03144 85.6617 C 229.03144 86.5617 230.83144 86.1617 227.03144 84.6617 C 225.73144 84.1617 225.33144 83.6617 226.13144 83.6617 C 227.13144 83.5617 227.23144 83.2617 226.43144 82.4617 C 225.43144 81.4617 201.03144 79.8617 200.13144 80.8617 Z" fill="black"/>
        </g>
        <g id="Graphic_31">
          <path d="M 251.73144 84.0617 C 252.13144 84.8617 252.83144 85.5617 253.53144 85.5617 C 254.13144 85.5617 255.63144 85.8617 256.93144 86.1617 C 258.23144 86.5617 259.13144 86.3617 259.13144 85.6617 C 259.13144 85.0617 258.23144 84.5617 257.03144 84.5617 C 255.93144 84.5617 254.13144 84.0617 253.13144 83.5617 C 251.53144 82.7617 251.33144 82.7617 251.73144 84.0617 Z" fill="black"/>
        </g>
        <g id="Graphic_30">
          <path d="M 10.131443 84.7617 C 8.231443 85.2617 5.931443 86.3617 5.131443 87.2617 C 3.831443 88.6617 4.031443 88.7617 7.631443 88.1617 C 16.931443 86.6617 25.031443 86.4617 30.631443 87.5617 C 33.931443 88.1617 37.531443 88.8617 38.631443 88.9617 C 46.731443 90.1617 55.93144 93.5617 73.13144 101.9617 C 88.53144 109.4617 92.43144 111.9617 92.63144 114.1617 C 93.13144 119.7617 97.13144 124.1617 97.13144 119.0617 C 97.13144 117.6617 96.63144 116.6617 96.03144 116.8617 C 95.43144 116.9617 94.73144 116.2617 94.63144 115.2617 C 94.23144 113.0617 94.63144 113.0617 96.93144 115.3617 C 98.03144 116.4617 98.63144 118.2617 98.43144 119.8617 C 98.13144 121.8617 98.53144 122.5617 99.73144 122.5617 C 100.83144 122.5617 101.23144 121.9617 100.83144 120.5617 C 100.53144 119.4617 100.73144 118.2617 101.23144 117.9617 C 102.73144 117.0617 102.23144 115.4617 100.53144 115.7617 C 99.23144 115.9617 97.03144 113.0617 94.43144 107.7617 C 94.43144 107.5617 91.83144 106.7617 88.83144 105.9617 C 85.83144 105.2617 77.43144 101.6617 70.03144 98.1617 C 62.63144 94.6617 52.131443 90.1617 46.631443 88.0617 C 37.531443 84.6617 35.531443 84.2617 25.131443 84.0617 C 18.831443 83.8617 12.031443 84.1617 10.131443 84.7617 Z" fill="black"/>
        </g>
        <g id="Graphic_29">
          <path d="M 124.83144 84.2617 C 123.73144 85.2617 124.03144 89.5617 125.23144 89.5617 C 125.73144 89.5617 125.93144 89.9617 125.63144 90.5617 C 125.33144 91.0617 125.63144 91.2617 126.53144 90.9617 C 127.33144 90.6617 127.73144 89.7617 127.43144 88.9617 C 127.13144 88.1617 126.43144 87.8617 125.73144 88.1617 C 125.13144 88.4617 125.53144 87.9617 126.53144 87.1617 C 128.33144 85.6617 128.33144 85.5617 126.73144 85.5617 C 125.83144 85.5617 125.33144 85.0617 125.63144 84.5617 C 126.33144 83.4617 125.83144 83.2617 124.83144 84.2617 Z" fill="black"/>
        </g>
        <g id="Graphic_28">
          <path d="M 262.83144 85.2617 C 262.43144 85.5617 262.13144 86.3617 262.13144 86.9617 C 262.13144 87.5617 262.53144 87.5617 262.93144 86.7617 C 263.63144 85.8617 264.23144 85.9617 265.63144 87.5617 C 267.73144 89.9617 267.63144 89.9617 259.13144 88.0617 C 255.53144 87.2617 251.53144 86.6617 250.13144 86.6617 C 245.43144 86.6617 250.33144 88.2617 260.33144 90.0617 C 265.73144 90.9617 270.43144 92.1617 270.73144 92.6617 C 271.03144 93.2617 271.83144 93.1617 272.73144 92.4617 C 273.63144 91.7617 275.43144 91.5617 277.73144 92.0617 C 279.83144 92.3617 283.33144 92.9617 285.53144 93.1617 C 287.83144 93.4617 290.33144 93.8617 291.13144 94.1617 C 291.93144 94.5617 294.33144 94.9617 296.43144 95.1617 C 299.63144 95.4617 300.23144 95.2617 299.93144 93.8617 C 299.63144 91.9617 292.63144 89.9617 283.63144 89.1617 C 280.63144 88.8617 278.23144 88.0617 277.53144 87.0617 C 276.73144 86.0617 276.13144 85.8617 275.63144 86.4617 C 275.23144 87.2617 274.43144 87.2617 273.13144 86.5617 C 270.83144 85.3617 269.83144 85.2617 270.53144 86.4617 C 270.83144 86.8617 269.93144 87.0617 268.63144 86.7617 C 267.23144 86.5617 265.83144 85.9617 265.53144 85.4617 C 264.93144 84.3617 263.73144 84.2617 262.83144 85.2617 Z" fill="black"/>
        </g>
        <g id="Graphic_27">
          <path d="M 74.13144 88.0617 C 72.23144 90.3617 73.53144 92.3617 76.53144 91.8617 C 80.23144 91.1617 85.33144 94.7617 92.23144 102.9617 C 95.53144 106.8617 99.33144 111.3617 100.73144 112.8617 C 102.53144 114.7617 103.23144 116.4617 102.83144 118.0617 C 102.63144 119.4617 102.83144 120.5617 103.23144 120.5617 C 103.73144 120.5617 104.13144 119.8617 104.13144 119.0617 C 104.13144 116.7617 105.73144 117.2617 105.83144 119.5617 C 105.93144 120.6617 105.63144 121.5617 105.03144 121.5617 C 102.93144 121.5617 104.33144 124.3617 106.63144 124.7617 C 108.43144 125.1617 108.83144 124.9617 108.23144 124.1617 C 107.73144 123.5617 107.03144 121.6617 106.73144 120.0617 C 105.73144 114.2617 104.93144 112.7617 102.53144 112.1617 C 100.03144 111.4617 99.43144 110.1617 101.13144 109.0617 C 101.63144 108.7617 102.13144 107.7617 102.13144 106.9617 C 102.13144 105.1617 104.53144 102.5617 106.03144 102.5617 C 106.63144 102.5617 107.13144 102.0617 107.13144 101.5617 C 107.13144 100.9617 107.53144 100.5617 108.03144 100.5617 C 108.53144 100.5617 108.63144 101.7617 108.23144 103.2617 C 107.83144 104.8617 106.93144 106.0617 106.13144 106.0617 C 105.43144 106.0617 104.63144 106.6617 104.33144 107.4617 C 104.03144 108.2617 104.33144 108.5617 105.03144 108.1617 C 105.73144 107.6617 105.93144 108.0617 105.53144 108.9617 C 105.23144 109.8617 105.43144 110.5617 106.03144 110.5617 C 106.63144 110.5617 107.13144 110.1617 107.13144 109.7617 C 107.13144 109.2617 107.83144 108.0617 108.63144 106.9617 C 109.93144 105.2617 109.93144 105.4617 108.93144 108.7617 C 108.33144 110.8617 107.43144 112.5617 106.93144 112.5617 C 105.63144 112.5617 106.03144 114.5617 107.63144 116.1617 C 108.93144 117.5617 109.13144 117.5617 109.13144 116.1617 C 109.13144 115.2617 108.53144 114.5617 107.93144 114.5617 C 107.03144 114.5617 106.93144 114.3617 107.73144 113.7617 C 108.83144 113.0617 110.73144 106.8617 110.33144 105.2617 C 110.23144 104.8617 110.83144 104.5617 111.73144 104.5617 C 112.53144 104.5617 113.03144 104.9617 112.73144 105.4617 C 112.33144 105.9617 113.13144 106.0617 114.33144 105.7617 C 116.33144 105.2617 116.33144 105.0617 114.83144 104.7617 C 113.73144 104.5617 113.23144 103.8617 113.53144 102.9617 C 113.93144 101.8617 113.53144 101.8617 111.63144 103.1617 C 109.13144 104.7617 108.53144 104.1617 109.73144 101.0617 C 110.13144 100.1617 110.73144 99.8617 111.03144 100.3617 C 111.43144 100.9617 112.53144 100.9617 114.03144 100.3617 C 115.83144 99.7617 116.23144 99.2617 115.33144 98.3617 C 113.23144 96.2617 107.23144 97.3617 103.33144 100.3617 C 97.93144 104.6617 95.83144 105.0617 94.13144 102.1617 C 91.23144 97.4617 84.93144 90.5617 81.73144 88.5617 C 77.73144 86.1617 75.83144 86.0617 74.13144 88.0617 Z" fill="black"/>
        </g>
        <g id="Graphic_26">
          <path d="M 199.93144 87.1617 C 199.53144 87.4617 197.33144 87.7617 194.93144 87.7617 C 192.43144 87.7617 189.83144 88.1617 189.03144 88.7617 C 188.13144 89.3617 189.73144 89.4617 194.13144 89.0617 C 197.73144 88.7617 201.03144 87.9617 201.63144 87.4617 C 202.13144 86.8617 202.13144 86.5617 201.53144 86.5617 C 200.93144 86.5617 200.23144 86.8617 199.93144 87.1617 Z" fill="black"/>
        </g>
        <g id="Graphic_25">
          <path d="M 175.33144 91.3617 C 175.73144 92.5617 175.53144 93.8617 175.03144 94.1617 C 173.63144 94.9617 174.03144 96.2617 175.73144 96.2617 C 176.83144 96.2617 177.13144 95.5617 176.83144 93.9617 C 176.23144 90.6617 178.53144 90.2617 181.23144 93.1617 L 183.63144 95.6617 L 185.33144 93.5617 C 186.73144 91.7617 187.13144 91.6617 187.13144 92.9617 C 187.13144 94.9617 188.53144 95.0617 190.13144 93.0617 C 191.23144 91.7617 191.63144 91.7617 192.23144 92.7617 C 192.83144 93.5617 193.13144 93.6617 193.13144 92.9617 C 193.13144 92.2617 194.93144 91.8617 198.03144 91.9617 C 203.13144 92.0617 203.83144 93.0617 200.83144 95.9617 C 198.93144 97.8617 198.63144 99.5617 200.13144 99.5617 C 200.63144 99.5617 200.23144 101.4617 199.13144 103.7617 C 198.13144 106.1617 197.03144 109.2617 196.63144 110.7617 C 196.23144 112.7617 195.63144 113.3617 194.33144 112.9617 C 193.13144 112.5617 193.03144 112.6617 193.93144 113.2617 C 194.83144 113.9617 194.93144 115.4617 194.23144 118.8617 C 193.23144 124.4617 194.63144 123.9617 197.73144 117.5617 C 198.83144 115.2617 200.13144 113.7617 200.93144 114.0617 C 201.53144 114.2617 202.13144 114.1617 202.13144 113.7617 C 202.13144 113.2617 201.53144 112.3617 200.93144 111.6617 C 199.83144 110.6617 200.03144 110.5617 201.53144 111.1617 C 202.83144 111.6617 203.23144 111.5617 202.73144 110.7617 C 201.53144 108.8617 200.13144 109.3617 199.03144 112.1617 C 197.83144 115.3617 196.63144 114.6617 197.73144 111.3617 C 198.13144 110.0617 198.43144 108.7617 198.33144 108.2617 C 198.23144 107.8617 198.63144 107.5617 199.13144 107.5617 C 199.63144 107.5617 200.03144 106.9617 199.83144 106.2617 C 199.73144 105.6617 200.13144 105.1617 200.73144 105.2617 C 201.53144 105.3617 201.73144 104.6617 201.33144 103.3617 C 200.93144 101.7617 201.13144 101.4617 202.23144 102.0617 C 203.03144 102.5617 203.33144 102.5617 202.93144 102.0617 C 202.53144 101.6617 202.73144 100.3617 203.33144 99.2617 C 204.23144 97.5617 204.13144 97.3617 202.53144 97.9617 C 200.83144 98.5617 200.83144 98.4617 202.73144 96.5617 C 204.93144 94.3617 212.13144 92.5617 212.13144 94.3617 C 212.13144 94.8617 211.23144 95.1617 210.23144 94.8617 C 209.13144 94.5617 207.43144 94.8617 206.43144 95.4617 C 204.93144 96.3617 205.13144 96.4617 207.53144 95.9617 C 209.43144 95.4617 210.63144 95.7617 211.23144 96.6617 C 211.83144 97.7617 212.13144 97.6617 212.73144 96.2617 C 213.03144 95.3617 213.83144 94.5617 214.53144 94.5617 C 215.83144 94.5617 222.53144 97.8617 224.53144 99.4617 C 225.23144 100.0617 226.03144 100.2617 226.33144 99.9617 C 226.63144 99.7617 226.93144 100.6617 226.93144 102.1617 C 226.93144 105.1617 229.13144 107.1617 230.43144 105.2617 C 231.03144 104.3617 231.13144 104.4617 231.03144 105.5617 C 230.73144 108.6617 231.23144 109.3617 233.43144 109.1617 C 236.63144 108.7617 238.13144 107.7617 238.13144 105.8617 C 238.13144 104.9617 237.53144 104.5617 236.63144 104.9617 C 235.73144 105.2617 235.13144 104.9617 235.13144 103.9617 C 235.13144 103.1617 234.53144 102.5617 233.83144 102.7617 C 233.03144 102.9617 231.23144 101.6617 229.73144 99.8617 C 228.33144 98.1617 225.73144 96.4617 224.13144 96.0617 C 220.93144 95.3617 220.03144 93.6617 222.93144 93.6617 C 223.83144 93.6617 226.73144 93.4617 229.33144 93.2617 C 234.03144 92.8617 236.33144 93.5617 236.23144 95.1617 C 236.13144 95.6617 236.73144 96.0617 237.43144 96.0617 C 238.03144 96.0617 238.63144 96.8617 238.63144 97.7617 C 238.63144 100.7617 240.03144 100.8617 240.73144 97.9617 L 241.43144 95.0617 L 242.23144 97.8617 C 242.63144 99.3617 242.63144 101.9617 242.13144 103.5617 C 241.33144 106.2617 241.53144 106.5617 243.53144 106.5617 C 245.43144 106.5617 245.73144 106.9617 245.43144 108.9617 C 245.13144 110.2617 245.43144 112.2617 246.03144 113.3617 C 247.23144 115.6617 245.33144 122.5617 242.33144 126.0617 C 240.63144 128.0617 240.63144 128.0617 242.93144 126.1617 C 244.13144 125.0617 245.43144 124.5617 245.83144 124.9617 C 246.23144 125.3617 246.13144 125.9617 245.53144 126.3617 C 244.93144 126.7617 244.23144 127.8617 243.83144 128.7617 C 243.53144 129.7617 242.73144 130.5617 242.13144 130.5617 C 241.53144 130.5617 241.23144 130.1617 241.63144 129.6617 C 241.93144 129.1617 241.73144 128.4617 241.23144 128.1617 C 240.73144 127.7617 238.63144 124.4617 236.53144 120.7617 C 234.53144 117.0617 232.43144 113.9617 232.03144 113.7617 C 231.63144 113.5617 230.73144 111.8617 230.13144 109.9617 C 229.53144 108.0617 228.53144 106.5617 227.93144 106.5617 C 227.43144 106.5617 227.13144 106.8617 227.33144 107.2617 C 230.53144 114.4617 242.43144 137.5617 243.03144 137.5617 C 246.53144 137.5617 250.63144 123.7617 250.33144 112.6617 C 250.13144 107.6617 249.43144 105.0617 247.03144 100.4617 C 245.23144 97.1617 243.43144 94.5617 242.93144 94.5617 C 242.33144 94.5617 241.13144 93.5617 240.23144 92.4617 C 238.53144 90.3617 237.63144 90.2617 217.03144 90.1617 C 205.23144 90.1617 194.03144 90.2617 192.13144 90.4617 C 190.23144 90.6617 185.53144 90.4617 181.73144 90.0617 C 174.93144 89.2617 174.83144 89.2617 175.33144 91.3617 Z" fill="black"/>
        </g>
        <g id="Graphic_24">
          <path d="M 122.73144 92.2617 C 122.43144 92.6617 122.13144 93.7617 122.13144 94.7617 C 122.13144 96.3617 122.43144 96.3617 124.13144 95.3617 C 125.23144 94.6617 126.13144 93.7617 126.13144 93.4617 C 126.13144 92.4617 123.43144 91.5617 122.73144 92.2617 Z" fill="black"/>
        </g>
        <g id="Graphic_23">
          <path d="M 143.13144 92.6617 C 143.13144 93.1617 142.43144 93.2617 141.63144 92.9617 C 140.83144 92.5617 140.13144 92.8617 140.13144 93.5617 C 140.13144 94.1617 140.63144 94.3617 141.13144 94.0617 C 141.73144 93.7617 142.13144 93.9617 142.13144 94.5617 C 142.13144 95.1617 142.53144 95.4617 143.03144 95.0617 C 143.53144 94.7617 144.23144 94.9617 144.53144 95.4617 C 144.83144 95.9617 144.43144 96.5617 143.63144 96.9617 C 142.83144 97.2617 142.13144 97.0617 142.13144 96.5617 C 142.13144 94.7617 140.33144 95.5617 139.83144 97.6617 C 139.43144 99.1617 139.63144 99.4617 140.53144 98.6617 C 141.43144 97.9617 142.13144 97.9617 143.13144 98.8617 C 144.03144 99.6617 144.23144 99.6617 143.73144 98.8617 C 143.43144 98.2617 143.63144 97.5617 144.33144 97.3617 C 145.93144 96.7617 146.03144 91.8617 144.43144 91.8617 C 143.73144 91.8617 143.13144 92.2617 143.13144 92.6617 Z" fill="black"/>
        </g>
        <g id="Graphic_22">
          <path d="M 135.13144 96.6617 C 135.13144 97.1617 134.63144 97.3617 134.03144 96.9617 C 133.43144 96.6617 131.63144 97.6617 129.93144 99.1617 C 128.23144 100.7617 127.13144 101.4617 127.53144 100.7617 C 127.93144 100.1617 127.73144 99.5617 127.23144 99.5617 C 125.93144 99.5617 125.93144 99.8617 126.73144 101.9617 C 127.13144 103.0617 127.83144 103.2617 129.03144 102.5617 C 130.33144 101.9617 130.83144 102.0617 130.83144 103.0617 C 130.83144 103.8617 130.33144 104.1617 129.83144 103.8617 C 129.23144 103.5617 129.13144 103.7617 129.53144 104.3617 C 130.63144 106.0617 133.13144 105.8617 132.53144 104.0617 C 132.13144 103.1617 133.13144 101.8617 135.33144 100.4617 C 137.13144 99.3617 137.83144 98.6617 136.83144 98.9617 C 135.33144 99.4617 135.13144 99.1617 135.63144 97.5617 C 136.03144 96.4617 136.03144 95.5617 135.73144 95.5617 C 135.43144 95.5617 135.13144 96.0617 135.13144 96.6617 Z" fill="black"/>
        </g>
        <g id="Graphic_21">
          <path d="M 194.93144 98.6617 C 195.43144 99.9617 196.63144 101.2617 197.63144 101.3617 C 199.93144 101.8617 199.13144 99.6617 196.33144 97.7617 C 194.23144 96.3617 194.13144 96.3617 194.93144 98.6617 Z" fill="black"/>
        </g>
        <g id="Graphic_20">
          <path d="M 213.03144 99.2617 C 212.43144 100.8617 211.73144 104.5617 211.43144 107.5617 C 210.83144 114.5617 205.33144 126.3617 201.43144 128.8617 C 195.83144 132.3617 192.23144 135.0617 192.13144 135.7617 C 192.13144 136.1617 194.03144 137.7617 196.33144 139.2617 C 200.23144 141.8617 201.13144 142.0617 209.33144 141.7617 C 218.43144 141.5617 230.93144 140.0617 231.93144 139.1617 C 232.63144 138.4617 224.83144 119.6617 221.23144 113.5617 C 220.13144 111.5617 214.13144 98.6617 214.13144 98.1617 C 214.13144 97.8617 214.93144 97.4617 215.93144 97.2617 C 217.53144 96.8617 217.53144 96.7617 215.83144 96.6617 C 214.83144 96.5617 213.63144 97.6617 213.03144 99.2617 Z M 215.63144 106.5617 C 215.33144 107.0617 215.83144 107.5617 216.83144 107.6617 C 218.13144 107.7617 217.93144 107.9617 216.13144 108.5617 C 214.33144 109.1617 214.13144 109.3617 215.43144 109.4617 C 216.43144 109.5617 217.03144 109.9617 216.73144 110.4617 C 216.33144 110.9617 217.23144 112.7617 218.63144 114.3617 C 221.13144 117.3617 225.23144 125.5617 225.83144 128.5617 C 225.93144 129.3617 226.13144 131.3617 226.33144 133.0617 C 226.63144 135.8617 226.43144 136.0617 223.43144 135.7617 C 221.63144 135.6617 220.13144 135.8617 220.13144 136.3617 C 220.13144 136.7617 218.53144 137.0617 216.63144 137.0617 C 214.63144 136.9617 212.83144 137.2617 212.53144 137.7617 C 212.23144 138.2617 211.53144 138.2617 210.93144 137.9617 C 210.33144 137.5617 207.93144 137.3617 205.63144 137.3617 C 203.33144 137.4617 200.73144 136.9617 199.53144 136.0617 C 197.63144 134.5617 197.63144 134.5617 199.63144 133.0617 C 204.03144 129.7617 206.13144 127.1617 208.63144 122.0617 C 210.13144 119.1617 211.53144 116.4617 211.93144 116.0617 C 212.33144 115.7617 212.63144 113.8617 212.83144 111.9617 C 212.93144 109.9617 213.53144 107.7617 214.23144 106.9617 C 215.53144 105.3617 216.53144 105.0617 215.63144 106.5617 Z" fill="black"/>
        </g>
        <g id="Graphic_19">
          <path d="M 180.13144 99.2617 C 180.13144 100.2617 180.53144 101.7617 181.13144 102.5617 C 181.93144 103.7617 182.13144 103.7617 182.73144 102.2617 C 183.43144 100.2617 182.63144 97.5617 181.13144 97.5617 C 180.63144 97.5617 180.13144 98.3617 180.13144 99.2617 Z" fill="black"/>
        </g>
        <g id="Graphic_18">
          <path d="M 206.23144 98.9617 C 205.53144 99.7617 204.83144 101.2617 204.63144 102.4617 C 204.43144 103.6617 203.93144 105.0617 203.53144 105.7617 C 203.03144 106.4617 203.23144 106.5617 204.13144 106.0617 C 205.13144 105.4617 205.33144 105.6617 204.83144 106.8617 C 204.53144 107.8617 204.53144 108.5617 205.03144 108.5617 C 206.63144 108.5617 207.13144 107.2617 206.03144 105.8617 C 205.13144 104.8617 205.43144 104.5617 207.23144 104.5617 L 209.63144 104.4617 L 207.13144 103.0617 C 204.83144 101.7617 205.63144 100.9617 208.53144 101.4617 C 209.03144 101.5617 208.93144 101.0617 208.23144 100.2617 C 207.33144 99.0617 207.33144 98.6617 208.33144 98.2617 C 209.13144 97.9617 209.13144 97.6617 208.53144 97.6617 C 207.93144 97.5617 206.83144 98.1617 206.23144 98.9617 Z" fill="black"/>
        </g>
        <g id="Graphic_17">
          <path d="M 220.83144 101.7617 C 221.53144 102.5617 221.83144 103.5617 221.43144 103.8617 C 221.13144 104.2617 221.33144 104.5617 221.93144 104.5617 C 222.63144 104.5617 223.13144 104.9617 223.13144 105.5617 C 223.13144 107.5617 221.03144 106.4617 220.13144 104.0617 C 219.63144 102.6617 218.73144 101.5617 218.23144 101.5617 C 217.63144 101.5617 218.63144 103.9617 220.43144 106.9617 C 222.53144 110.5617 224.03144 112.0617 224.73144 111.4617 C 225.33144 110.9617 226.13144 110.8617 226.53144 111.2617 C 226.93144 111.6617 226.93144 111.1617 226.53144 110.0617 C 226.03144 108.9617 225.63144 108.6617 225.33144 109.3617 C 224.73144 111.2617 223.53144 110.7617 223.43144 108.5617 C 223.33144 107.3617 223.73144 106.7617 224.23144 107.1617 C 224.83144 107.4617 224.63144 106.3617 223.73144 104.7617 C 222.83144 103.0617 221.53144 101.3617 220.93144 100.9617 C 219.93144 100.3617 219.83144 100.4617 220.83144 101.7617 Z" fill="black"/>
        </g>
        <g id="Graphic_16">
          <path d="M 140.13144 104.7617 C 140.83144 105.9617 141.53144 107.1617 141.63144 107.3617 C 142.23144 108.1617 147.13144 105.4617 146.63144 104.5617 C 146.33144 104.0617 146.53144 103.5617 147.23144 103.5617 C 147.93144 103.5617 148.23144 103.3617 147.93144 103.0617 C 147.63144 102.7617 146.33144 102.9617 144.93144 103.4617 C 143.43144 104.0617 141.83144 103.9617 140.73144 103.3617 C 139.13144 102.4617 139.03144 102.5617 140.13144 104.7617 Z" fill="black"/>
        </g>
        <g id="Graphic_15">
          <path d="M 118.93144 108.4617 C 122.43144 110.6617 123.53144 113.3617 120.23144 111.6617 C 118.63144 110.7617 118.03144 111.1617 116.23144 115.0617 C 114.03144 119.6617 113.53144 122.5617 114.93144 122.5617 C 116.43144 122.4617 118.63144 119.9617 118.93144 118.0617 C 119.33144 115.8617 121.93144 112.5617 123.33144 112.5617 C 125.33144 112.5617 123.93144 117.8617 121.23144 120.5617 C 119.63144 122.1617 118.63144 123.6617 118.83144 123.9617 C 119.13144 124.1617 118.43144 124.8617 117.33144 125.4617 C 115.03144 126.6617 112.23144 125.9617 112.03144 124.1617 C 111.53144 118.9617 112.13144 114.3617 113.53144 111.5617 C 115.33144 107.8617 114.83144 106.3617 112.73144 108.6617 C 111.03144 110.2617 109.83144 115.3617 109.83144 120.9617 C 109.73144 123.9617 110.33144 125.3617 112.43144 127.1617 C 113.83144 128.3617 114.63144 129.5617 114.23144 129.7617 C 113.73144 129.9617 113.93144 130.6617 114.73144 131.2617 C 115.83144 132.3617 116.03144 132.1617 115.83144 130.2617 C 115.73144 129.0617 116.03144 128.0617 116.63144 128.0617 C 117.13144 128.0617 117.43144 128.6617 117.33144 129.4617 C 117.13144 130.1617 117.43144 130.4617 118.03144 130.0617 C 119.73144 129.0617 119.33144 130.4617 117.23144 132.6617 C 116.03144 133.9617 115.13144 134.3617 114.63144 133.6617 C 114.33144 133.0617 113.53144 132.5617 113.03144 132.5617 C 112.43144 132.5617 112.33144 133.0617 112.73144 133.6617 C 113.13144 134.3617 112.83144 134.6617 112.03144 134.3617 C 111.23144 134.0617 110.63144 132.7617 110.73144 131.4617 C 110.83144 130.0617 110.13144 128.3617 109.33144 127.5617 C 107.93144 126.2617 107.83144 126.3617 108.43144 127.7617 C 109.13144 129.6617 106.73144 132.0617 105.03144 131.0617 C 104.43144 130.6617 104.73144 131.4617 105.63144 132.9617 C 107.53144 135.8617 106.63144 136.5617 104.53144 133.7617 C 103.23144 132.1617 103.23144 132.1617 103.13144 133.8617 C 103.13144 134.8617 103.63144 136.6617 104.23144 137.7617 C 105.23144 139.5617 105.93144 139.7617 110.23144 139.1617 C 114.33144 138.5617 115.03144 138.7617 114.53144 140.0617 C 114.23144 140.8617 114.43144 141.5617 115.03144 141.5617 C 117.03144 141.5617 116.23144 137.5617 113.93144 136.6617 C 111.33144 135.7617 112.63144 134.6617 116.13144 134.9617 C 119.63144 135.2617 123.13144 133.0617 126.83144 128.2617 C 130.63144 123.1617 131.53144 119.8617 130.13144 116.1617 C 129.43144 114.0617 128.63144 113.5617 127.43144 114.0617 C 126.43144 114.3617 126.03144 114.3617 126.33144 114.0617 C 127.23144 113.0617 121.13144 107.9617 118.13144 107.1617 C 116.03144 106.5617 116.13144 106.7617 118.93144 108.4617 Z M 128.93144 118.8617 C 128.73144 120.0617 127.93144 121.7617 127.13144 122.5617 C 126.23144 123.3617 124.83144 125.2617 123.83144 126.7617 C 122.83144 128.3617 121.53144 129.5617 120.83144 129.4617 C 119.93144 129.4617 119.93144 129.2617 120.93144 128.8617 C 121.93144 128.4617 121.93144 128.0617 121.03144 126.9617 C 119.43144 124.9617 120.73144 122.2617 123.03144 122.8617 C 124.93144 123.3617 127.13144 120.1617 127.13144 116.9617 C 127.13144 116.1617 127.63144 115.7617 128.13144 116.0617 C 128.73144 116.4617 129.13144 117.6617 128.93144 118.8617 Z M 109.33144 132.4617 C 108.33144 133.0617 108.33144 133.5617 109.63144 134.5617 C 111.63144 136.1617 111.53144 137.1617 109.33144 137.1617 C 108.23144 137.1617 107.53144 136.2617 107.43144 134.5617 C 107.33144 132.2617 108.93144 130.0617 110.03144 131.1617 C 110.33144 131.4617 110.03144 132.0617 109.33144 132.4617 Z" fill="black"/>
        </g>
        <g id="Graphic_14">
          <path d="M 137.73144 109.1617 C 136.83144 111.4617 136.93144 111.4617 139.33144 111.0617 C 141.63144 110.5617 144.23144 108.5617 142.53144 108.5617 C 142.03144 108.5617 140.93144 109.1617 140.23144 109.7617 C 139.23144 110.8617 139.13144 110.7617 139.63144 109.2617 C 140.03144 108.3617 139.93144 107.5617 139.33144 107.5617 C 138.83144 107.5617 138.03144 108.2617 137.73144 109.1617 Z" fill="black"/>
        </g>
        <g id="Graphic_13">
          <path d="M 129.83144 110.9617 C 130.23144 111.5617 130.63144 112.2617 130.63144 112.5617 C 130.73144 114.1617 133.13144 116.5617 136.63144 118.7617 C 140.73144 121.3617 144.03144 124.5617 142.53144 124.5617 C 142.03144 124.5617 142.73144 125.2617 144.03144 126.1617 C 145.93144 127.5617 146.53144 127.5617 147.23144 126.4617 C 148.63144 124.1617 148.23144 123.3617 146.03144 124.0617 C 144.13144 124.6617 144.03144 124.4617 144.63144 121.3617 C 145.03144 119.5617 145.73144 117.8617 146.23144 117.5617 C 147.63144 116.5617 145.43144 114.2617 142.73144 113.9617 C 139.73144 113.6617 138.33144 115.1617 140.03144 116.8617 C 140.93144 117.7617 141.13144 117.6617 140.63144 116.2617 C 140.23144 115.3617 140.13144 114.5617 140.53144 114.5617 C 141.53144 114.5617 143.23144 118.5617 142.63144 119.5617 C 141.73144 120.9617 139.53144 119.6617 138.23144 116.9617 C 137.63144 115.5617 136.83144 114.6617 136.33144 114.8617 C 135.93144 115.1617 134.73144 114.4617 133.73144 113.4617 C 132.63144 112.3617 132.33144 111.5617 132.93144 111.5617 C 135.23144 111.5617 134.03144 110.0617 131.63144 109.9617 C 130.03144 109.8617 129.43144 110.1617 129.83144 110.9617 Z" fill="black"/>
        </g>
        <g id="Graphic_12">
          <path d="M 207.33144 111.2617 C 206.73144 111.4617 206.43144 112.1617 206.73144 112.7617 C 207.13144 113.3617 206.53144 113.5617 205.03144 113.0617 C 203.23144 112.5617 203.03144 112.6617 204.13144 113.4617 C 205.33144 114.2617 205.33144 114.5617 203.73144 115.1617 C 202.33144 115.6617 202.23144 116.0617 203.33144 116.6617 C 204.33144 117.3617 204.23144 117.5617 202.83144 117.5617 C 201.83144 117.5617 201.23144 117.9617 201.63144 118.4617 C 201.93144 118.9617 200.83144 120.4617 199.23144 121.7617 C 196.13144 124.1617 194.73144 128.5617 196.93144 129.2617 C 197.63144 129.5617 197.93144 129.1617 197.53144 128.1617 C 197.13144 126.9617 197.53144 126.5617 199.03144 126.5617 C 200.23144 126.5617 201.13144 126.0617 201.13144 125.4617 C 201.13144 124.8617 200.23144 124.6617 199.13144 125.0617 C 198.03144 125.4617 197.13144 125.2617 197.13144 124.6617 C 197.13144 124.0617 198.43144 123.5617 200.03144 123.5617 C 203.23144 123.5617 205.03144 122.0617 202.93144 121.2617 C 201.93144 120.8617 201.93144 120.6617 202.93144 120.6617 C 203.63144 120.5617 203.93144 120.0617 203.53144 119.3617 C 203.03144 118.6617 203.33144 118.4617 204.23144 118.7617 C 205.03144 119.0617 206.23144 118.7617 206.83144 117.9617 C 207.83144 116.9617 207.73144 116.5617 206.33144 116.2617 C 204.73144 115.8617 204.73144 115.7617 206.43144 115.6617 C 207.33144 115.6617 208.13144 115.2617 208.23144 114.7617 C 208.23144 114.3617 208.43144 113.2617 208.63144 112.2617 C 208.83144 111.3617 208.93144 110.5617 208.83144 110.6617 C 208.73144 110.6617 208.03144 110.9617 207.33144 111.2617 Z" fill="black"/>
        </g>
        <g id="Graphic_11">
          <path d="M 224.13144 113.8617 C 224.13144 114.0617 225.03144 115.2617 226.13144 116.5617 C 227.23144 117.7617 227.83144 119.1617 227.53144 119.6617 C 227.23144 120.1617 227.63144 121.5617 228.33144 122.7617 C 228.93144 124.0617 229.63144 125.6617 229.73144 126.4617 C 229.93144 127.1617 231.43144 130.6617 233.23144 134.1617 C 240.33144 147.9617 267.13144 165.8617 272.63144 160.3617 C 272.93144 160.0617 271.03144 159.2617 268.43144 158.5617 C 265.83144 157.9617 261.83144 156.4617 259.63144 155.2617 C 253.93144 152.2617 241.33144 141.3617 241.23144 139.3617 C 241.13144 137.1617 239.43144 136.1617 238.73144 137.7617 C 238.33144 138.4617 238.33144 138.0617 238.53144 136.8617 C 238.73144 135.6617 238.43144 134.7617 237.93144 134.8617 C 236.63144 135.1617 232.13144 126.9617 233.03144 125.9617 C 233.33144 125.5617 233.03144 125.5617 232.43144 125.9617 C 231.53144 126.4617 231.13144 125.9617 231.13144 124.6617 C 231.13144 123.4617 230.73144 122.5617 230.13144 122.5617 C 229.63144 122.5617 229.13144 121.8617 229.13144 121.0617 C 229.13144 118.8617 226.23144 113.5617 225.13144 113.5617 C 224.53144 113.5617 224.13144 113.7617 224.13144 113.8617 Z" fill="black"/>
        </g>
        <g id="Graphic_10">
          <path d="M 147.33144 117.9617 C 146.53144 119.7617 146.63144 120.7617 147.73144 122.4617 C 149.73144 125.2617 150.83144 124.4617 150.53144 120.4617 C 150.23144 116.1617 148.73144 114.9617 147.33144 117.9617 Z" fill="black"/>
        </g>
        <g id="Graphic_9">
          <path d="M 154.63144 116.4617 C 154.93144 116.9617 154.33144 117.5617 153.43144 117.8617 C 151.73144 118.2617 151.73144 118.2617 153.53144 119.0617 C 154.73144 119.5617 155.63144 119.3617 156.13144 118.4617 C 157.13144 116.9617 156.53144 115.5617 155.03144 115.5617 C 154.43144 115.5617 154.23144 115.9617 154.63144 116.4617 Z" fill="black"/>
        </g>
        <g id="Graphic_8">
          <path d="M 155.43144 121.9617 C 152.73144 123.1617 152.53144 124.3617 154.63144 125.1617 C 155.43144 125.5617 156.13144 126.6617 156.13144 127.6617 C 156.13144 128.6617 156.83144 129.5617 157.63144 129.5617 C 158.83144 129.5617 159.03144 128.7617 158.53144 125.2617 C 158.13144 122.9617 157.83144 121.0617 157.73144 120.9617 C 157.63144 120.9617 156.63144 121.4617 155.43144 121.9617 Z" fill="black"/>
        </g>
        <g id="Graphic_7">
          <path d="M 132.33144 123.4617 C 131.33144 124.0617 131.93144 124.8617 134.63144 126.4617 C 140.73144 130.0617 144.33144 128.7617 138.63144 124.8617 C 134.93144 122.3617 134.23144 122.1617 132.33144 123.4617 Z" fill="black"/>
        </g>
        <g id="Graphic_6">
          <path d="M 187.23144 123.8617 C 187.13144 126.1617 190.03144 132.5617 191.23144 132.5617 C 192.53144 132.5617 193.23144 130.7617 192.13144 130.0617 C 191.63144 129.7617 191.13144 128.9617 191.13144 128.4617 C 191.13144 127.8617 191.63144 127.7617 192.13144 128.0617 C 193.43144 128.8617 195.33144 127.6617 194.63144 126.5617 C 194.33144 125.9617 193.03144 126.0617 191.63144 126.5617 C 189.63144 127.3617 189.13144 127.0617 188.23144 124.7617 C 187.53144 122.8617 187.23144 122.5617 187.23144 123.8617 Z" fill="black"/>
        </g>
        <g id="Graphic_5">
          <path d="M 99.23144 127.5617 C 101.43144 131.7617 102.53144 132.4617 103.43144 130.2617 C 104.03144 128.5617 103.13144 127.0617 100.83144 126.2617 C 99.83144 125.8617 99.33144 125.1617 99.63144 124.5617 C 99.93144 124.0617 99.53144 123.5617 98.73144 123.5617 C 97.43144 123.5617 97.53144 124.1617 99.23144 127.5617 Z" fill="black"/>
        </g>
        <g id="Graphic_4">
          <path d="M 148.83144 126.9617 C 147.33144 128.5617 145.83144 131.0617 145.53144 132.4617 C 145.23144 133.8617 143.93144 139.0617 142.63144 144.0617 C 140.53144 151.6617 139.03144 163.1617 137.83144 180.5617 C 137.43144 186.7617 139.63144 185.3617 140.23144 179.0617 C 141.33144 169.1617 142.13144 163.3617 142.63144 162.4617 C 143.13144 161.7617 144.73144 154.8617 145.53144 149.5617 C 145.83144 148.1617 146.43144 145.0617 147.03144 142.5617 C 147.63144 139.6617 147.63144 137.7617 147.03144 136.9617 C 146.43144 136.1617 146.63144 135.5617 147.73144 135.1617 C 150.03144 134.2617 150.03144 134.3617 149.63144 136.5617 C 149.23144 138.8617 151.93144 139.3617 153.93144 137.3617 C 155.63144 135.6617 155.43144 131.0617 153.73144 129.5617 C 152.93144 128.9617 152.13144 127.4617 151.93144 126.2617 C 151.63144 124.1617 151.53144 124.1617 148.83144 126.9617 Z" fill="black"/>
        </g>
        <g id="Graphic_3">
          <path d="M 184.63144 129.6617 C 185.03144 130.9617 186.83144 136.0617 188.63144 141.0617 C 190.53144 145.9617 192.33144 151.4617 192.63144 153.2617 C 193.43144 157.0617 210.03144 178.5617 212.23144 178.5617 C 213.83144 178.5617 213.23144 177.1617 210.03144 173.5617 C 208.33144 171.6617 205.33144 167.6617 203.53144 164.7617 C 201.63144 161.8617 199.43144 159.2617 198.63144 158.9617 C 197.73144 158.5617 197.33144 157.3617 197.53144 155.3617 C 197.83144 152.5617 194.93144 143.5617 192.33144 138.9617 C 191.43144 137.5617 191.23144 137.4617 191.13144 138.5617 C 191.13144 140.4617 188.33144 135.2617 187.33144 131.2617 C 186.93144 129.5617 185.93144 127.9617 185.23144 127.7617 C 184.23144 127.4617 184.13144 127.9617 184.63144 129.6617 Z" fill="black"/>
        </g>
      </g>
    </g>
  </g>
</svg>
