<?xml version='1.0' encoding='iso-8859-1'?>
<!DOCTYPE svg PUBLIC '-//W3C//DTD SVG 1.1//EN' 'http://www.w3.org/Graphics/SVG/1.1/DTD/svg11.dtd'>
<svg version="1.1" xmlns="http://www.w3.org/2000/svg" viewBox="0 0 205.041 205.041" xmlns:xlink="http://www.w3.org/1999/xlink" enable-background="new 0 0 205.041 205.041">
  <path d="m198.969,60.373c-2.884-2.972-7.633-3.044-10.604-0.159l-29.809,28.927c-7.275-9.046-14.93-17.727-22.123-25.378l14.42-6.413c1.887-0.839 3.345-2.419 4.028-4.368l15.097-42.995c1.372-3.908-0.684-8.189-4.592-9.562-3.904-1.371-8.189,0.685-9.561,4.592l-14.025,39.942-1.46,.649c0.036-0.567 0.06-1.141 0.06-1.723 0-16.894-16.546-36.531-37.877-36.531-21.337,0-37.887,19.638-37.887,36.531 0,0.581 0.022,1.153 0.059,1.719l-1.451-.646-14.026-39.941c-1.371-3.908-5.653-5.961-9.561-4.592-3.908,1.372-5.964,5.653-4.592,9.562l15.097,42.995c0.684,1.948 2.142,3.529 4.028,4.368l14.419,6.413c-7.194,7.652-14.849,16.333-22.124,25.379l-29.808-28.928c-2.973-2.885-7.722-2.814-10.604,0.159-2.885,2.973-2.813,7.721 0.159,10.605l31.042,30.124c-19.331,26.319-32.612,53.26-20.392,65.483 3.287,3.286 7.607,4.699 12.606,4.699 6.113,0 13.244-2.12 20.744-5.507l10.162,33.914c0.974,3.25 3.954,5.349 7.182,5.349 0.713,0 1.438-0.102 2.155-0.317 3.968-1.189 6.221-5.37 5.032-9.337l-11.013-36.752c4.486-2.674 8.969-5.608 13.321-8.643 4.741,9.245 14.365,15.589 25.449,15.589s20.707-6.344 25.449-15.588c4.353,3.035 8.835,5.969 13.321,8.643l-11.013,36.751c-1.188,3.968 1.064,8.149 5.032,9.337 0.718,0.215 1.442,0.317 2.155,0.317 3.227,0 6.208-2.1 7.182-5.349l10.162-33.914c7.5,3.387 14.631,5.506 20.744,5.506 4.999,0 9.32-1.414 12.607-4.7 12.219-12.222-1.063-39.162-20.394-65.481l31.042-30.124c2.975-2.884 3.046-7.632 0.162-10.605zm-96.447-38.019c12.32,0 22.877,11.839 22.877,21.531 0,11.708-19.057,12.301-22.877,12.301-3.822,0-22.887-0.593-22.887-12.301 0.001-9.691 10.561-21.531 22.887-21.531zm-75.028,133.633c-0.829-1.074-1.436-9.219 10.757-29.452 4.085-6.779 9.063-14.014 14.767-21.498 0.067-0.083 0.132-0.168 0.195-0.252 6.14-8.04 13.119-16.363 20.718-24.714v53.72c-29.312,21.48-44.272,23.844-46.437,22.196zm75.026-5.407c-7.493,0-13.59-6.096-13.59-13.59v-67.233c4.114,0.935 8.665,1.429 13.592,1.429 4.926,0 9.475-0.495 13.588-1.429v67.233c1.42109e-14,7.494-6.096,13.59-13.59,13.59zm75.044,5.388c-2.183,1.666-17.145-0.7-46.454-22.175v-53.722c7.6,8.352 14.58,16.676 20.72,24.716 0.063,0.083 0.126,0.167 0.192,0.248 5.704,7.485 10.683,14.721 14.769,21.501 12.192,20.233 11.585,28.377 10.773,29.432z"
  	stroke="white" fill="white" />
</svg>
