<?xml version="1.0" encoding="iso-8859-1"?>
<svg version="1.1" id="Layer_1" xmlns="http://www.w3.org/2000/svg" xmlns:xlink="http://www.w3.org/1999/xlink" x="0px" y="0px"
	 viewBox="0 0 501.665 501.665" style="enable-background:new 0 0 501.665 501.665;" xml:space="preserve">
<g>
	<g>
		<path d="M485.149,381.442l-10.133-37.653c-5.547-21.333-18.88-39.787-37.547-51.52l-21.013-13.12
			c-0.213-0.107-0.427-0.107-0.64-0.213c0.213-4.373,0.427-8.64,0.427-12.907c0.107-11.84-0.96-23.68-3.093-35.307
			c41.813-8.427,72.32-46.827,72.32-91.307v-0.213c0-3.2-1.387-6.4-3.947-8.32c-2.24-1.707-4.48-2.347-6.72-2.347
			c-5.973,0.107-10.667,5.013-10.667,10.987c0,34.347-23.36,64-55.573,70.4c-0.32,0.107-0.747,0.32-1.067,0.427
			c-9.173-26.027-24.747-43.733-42.987-55.893c2.347-7.68,3.52-15.573,3.52-23.573c0-33.92-20.48-63.893-51.52-81.6
			c-0.107-0.32-0.107-0.64-0.32-0.96c-1.387-2.453-2.24-5.227-2.133-8.107c0-10.24,9.707-18.56,21.76-18.773
			c5.44-0.107,10.347-3.947,10.987-9.387c0.747-6.4-4.267-11.947-10.56-11.947c-23.467,0-42.453,17.28-43.2,38.72
			c-27.413-8.96-56.853-8.96-84.267,0c-0.747-21.333-19.413-38.507-42.667-38.827c-5.547-0.107-10.56,3.84-11.2,9.28
			c-0.853,6.507,4.267,12.053,10.56,12.053c12.16,0,22.08,8.427,22.08,18.773c0,2.88-0.747,5.653-2.133,8.107
			c-0.107,0.32-0.213,0.747-0.32,1.067c-31.253,17.92-51.627,47.787-51.627,81.6c0,8,1.28,15.893,3.52,23.573
			c-18.133,12.16-33.813,29.867-42.987,55.893c-0.32-0.213-0.747-0.32-1.067-0.427c-32.107-6.507-55.467-36.053-55.467-70.507
			v-0.533c0-5.76-4.693-10.453-10.453-10.453c-0.107,0-0.107,0-0.213,0c-5.973,0.107-10.667,5.013-10.667,10.987
			c0,44.373,30.507,82.773,72.427,91.307c-2.133,11.627-3.2,23.467-3.093,35.307c0,4.267,0.107,8.64,0.32,12.907
			c-0.213,0.107-0.427,0.107-0.64,0.213l-21.013,13.227c-18.56,11.733-32,30.187-37.547,51.52l-10.133,37.76
			c-1.493,5.653,1.813,11.52,7.573,13.12s11.52-1.813,13.013-7.573l10.133-37.653c4.16-16.107,14.293-29.973,28.267-38.933
			l12.587-7.893c3.84,27.307,11.307,53.973,22.187,79.253l-10.773,11.093c-19.307,18.027-29.973,39.68-29.973,60.907v36.693
			c0,5.333,3.84,10.133,9.067,10.88c6.613,0.96,12.267-4.16,12.267-10.56v-37.013c0-14.933,8.533-31.573,23.68-45.867l5.653-5.76
			c29.973,56.853,76.8,99.307,130.667,99.307c53.867,0,100.8-42.453,130.667-99.307l5.973,6.08
			c14.827,13.973,23.36,30.507,23.36,45.547v36.693c0,5.333,3.84,10.133,9.067,10.88c6.613,0.96,12.267-4.16,12.267-10.56v-37.013
			c0-21.12-10.667-42.88-29.76-60.8l-11.093-11.413c10.987-25.28,18.453-51.947,22.187-79.253l12.587,7.893
			c13.973,8.96,24.107,22.827,28.267,38.933l10.133,37.653c1.6,7.147,10.027,10.987,16.853,6.187
			c0.853-0.64,1.707-1.387,2.347-2.347C485.575,388.055,486.002,384.535,485.149,381.442z M240.242,479.362
			c-74.88-9.6-133.44-120.64-133.44-213.333c0-42.24,12.373-72.107,38.293-90.987l0.107,0.107l10.24-5.547
			c21.227-11.413,49.173-18.24,81.28-19.733c1.173,0,2.347,0,3.52-0.107V479.362z M156.295,143.895
			c-0.96-4.267-1.493-8.533-1.493-13.013c0-42.667,43.093-77.333,96-77.333s96,34.667,96,77.333c0,4.373-0.533,8.747-1.493,13.013
			c-35.307-15.68-74.667-15.68-94.507-15.68C230.962,128.215,191.709,128.215,156.295,143.895z M261.469,479.469v-329.6
			c1.173,0,2.347,0,3.52,0.107c32.107,1.493,59.947,8.213,81.28,19.733l10.24,5.547l0.107-0.107
			c25.92,18.987,38.293,48.747,38.293,90.987C394.802,358.722,336.242,469.655,261.469,479.469z"/>
	</g>
</g>
</svg>
