<?xml version="1.0" encoding="iso-8859-1"?>
<!DOCTYPE svg PUBLIC "-//W3C//DTD SVG 1.1//EN" "http://www.w3.org/Graphics/SVG/1.1/DTD/svg11.dtd">
<svg version="1.1" id="Capa_1" xmlns="http://www.w3.org/2000/svg" xmlns:xlink="http://www.w3.org/1999/xlink" x="0px" y="0px"
	 viewBox="0 0 297 297" style="enable-background:new 0 0 297 297;" xml:space="preserve">
<path d="M286.436,119.618c0-34.001-26.374-61.957-59.74-64.48C215.053,22.326,183.896,0,148.5,0S81.947,22.326,70.304,55.138
	c-33.366,2.523-59.74,30.479-59.74,64.48c0,17.348,6.877,33.743,19.055,45.843c-0.49,3.013-0.737,6.06-0.737,9.11
	c0,31.329,25.487,56.816,56.815,56.816h30.843v55.899c0,5.364,4.349,9.714,9.714,9.714h47.551c5.364,0,9.714-4.349,9.714-9.714
	v-55.899h27.784c31.328,0,56.815-25.487,56.815-56.816c0-3.05-0.247-6.097-0.737-9.11
	C279.56,153.362,286.436,136.967,286.436,119.618z M166.936,206.816c-1.821,1.822-2.845,4.292-2.845,6.869v63.887h-28.124v-75.6
	c0-2.576-1.024-5.047-2.845-6.869l-16.906-16.906l3.074-3.074l11.982,11.983c2.779,2.778,6.956,3.608,10.587,2.106
	c3.629-1.504,5.996-5.046,5.996-8.975v-18.141h4.348v29.853c0,3.929,2.367,7.471,5.996,8.975c3.63,1.502,7.808,0.673,10.587-2.106
	l8.923-8.924l3.074,3.074L166.936,206.816z M250.526,154.543c-2.955,2.437-4.202,6.381-3.186,10.074
	c0.896,3.254,1.351,6.602,1.351,9.954c0,20.616-16.772,37.389-37.388,37.389h-22.035l12.122-12.122
	c1.821-1.822,2.845-4.292,2.845-6.869c0-2.576-1.024-5.048-2.845-6.869l-16.812-16.811c-3.541-3.539-9.133-3.778-12.947-0.71
	v-16.197c0-5.364-4.349-9.714-9.714-9.714h-23.775c-5.364,0-9.714,4.349-9.714,9.714v4.403l-2.268-2.269
	c-1.821-1.821-4.292-2.845-6.869-2.845s-5.047,1.024-6.869,2.845L95.61,171.328c-3.794,3.794-3.794,9.944,0,13.738l20.93,20.93
	v5.963H85.697c-20.615,0-37.388-16.772-37.388-37.389c0-3.351,0.454-6.7,1.351-9.954c1.016-3.693-0.231-7.637-3.186-10.074
	c-10.475-8.636-16.482-21.367-16.482-34.924c0-24.945,20.294-45.239,45.239-45.239c0.633,0,1.259,0.024,1.885,0.05
	c4.61,0.177,8.68-2.847,9.82-7.292c7.206-28.091,32.522-47.711,61.565-47.711s54.359,19.619,61.565,47.711
	c1.14,4.445,5.246,7.465,9.82,7.292c0.626-0.027,1.252-0.05,1.885-0.05c24.945,0,45.238,20.294,45.238,45.239
	C267.009,133.176,261.001,145.906,250.526,154.543z"/>
</svg>
