<?xml version="1.0" encoding="UTF-8" standalone="no"?>
<!DOCTYPE svg PUBLIC "-//W3C//DTD SVG 1.1//EN" "http://www.w3.org/Graphics/SVG/1.1/DTD/svg11.dtd">
<svg version="1.1" xmlns="http://www.w3.org/2000/svg" xmlns:xl="http://www.w3.org/1999/xlink" xmlns:dc="http://purl.org/dc/elements/1.1/" viewBox="-70.04324 51.770194 360.0423 310.9049" width="360.0423" height="310.9049">
  <defs/>
  <metadata> Produced by OmniGraffle 7.18.6\n2022-02-21 01:30:10 +0000</metadata>
  <g id="Canvas_1" fill-opacity="1" stroke="none" stroke-opacity="1" stroke-dasharray="none" fill="none">
    <title>Canvas 1</title>
    <g id="Canvas_1_Layer_1">
      <title>Layer 1</title>
      <g id="Group_118">
        <g id="Graphic_124">
          <path d="M 239.6708 159.62877 C 231.15746 150.95469 236.8643 140.75646 241.67347 136.73807 C 250.68802 129.20921 267.97216 133.31075 274.92923 127.39345 C 283.38133 120.20861 283.80413 100.52076 277.15495 93.71046 C 271.2407 87.65156 265.05346 94.0834 259.05698 86.35991 C 253.00945 78.5709 261.64186 72.41616 254.5588 63.6202 C 248.41695 55.992586 237.63576 55.302046 232.82044 56.673024 C 208.9192 63.47867 213.90543 96.5902 194.50467 107.38405 C 188.8581 110.52426 181.3167 110.07457 176.68216 105.10362 C 164.97235 92.53767 180.69505 58.862916 156.2411 58.62363 C 151.18686 61.46785 146.01548 65.63484 140.80784 70.24868 C 134.62783 71.827485 127.48818 70.842265 121.58254 75.77549 C 107.93337 87.17759 117.0822 106.6559 120.68874 118.9473 C 122.85934 126.33821 124.35134 134.2163 122.20047 142.86664 C 119.97443 151.81634 112.83828 164.04805 101.59827 164.13152 C 94.95661 164.18005 89.88499 159.22338 85.8338 154.82162 C 75.06828 143.12901 74.82693 126.26203 62.20813 128.24782 C 52.9063 133.67323 54.87361 140.80785 49.91372 145.19422 C 45.997915 148.6562 40.511074 147.05822 36.411864 151.22106 C 35.352418 152.29671 34.55577 155.73134 33.577823 158.90167 C 31.074924 167.00803 31.593502 184.67367 35.769283 191.52948 C 40.197557 198.80133 50.600374 205.22028 52.61328 213.18865 C 54.015637 218.72434 50.30133 226.77937 44.61259 230.50716 C 32.976307 238.13812 17.057856 220.61718 7.163331 230.11543 C 2.8255884 234.2787 4.026914 240.376 7.868057 246.75678 C 6.731568 250.40868 3.8558933 254.6871 4.658453 258.7301 C 5.942886 265.20802 12.24475 269.6924 13.296172 275.34503 C 15.539508 287.34043 5.06785 291.57394 4.9449207 304.8891 C 25.776133 293.53332 42.874745 274.35326 59.403786 259.1927 C 63.315065 255.60398 67.88108 252.9449 71.06988 249.4037 C 74.77031 245.2961 75.94124 237.90795 82.33859 235.97054 C 83.41438 217.63805 79.50293 195.40466 68.87176 175.68594 C 64.37275 167.34035 57.468515 160.19188 62.692514 155.6831 C 69.45855 166.3664 71.73541 176.65622 78.6627 187.35433 C 80.21059 194.42315 81.58389 201.50793 83.28687 208.66202 C 85.0108 215.9173 86.42525 223.91921 91.54979 229.56903 C 108.13292 217.02742 122.08589 196.2221 140.56055 188.44412 C 142.59061 180.45255 150.67853 179.59644 156.11968 175.38846 C 172.17137 162.97426 190.83468 145.59205 206.9352 130.09659 C 218.19148 119.2638 227.8715 107.26032 239.98485 98.38705 C 243.04733 96.14369 248.98182 88.65767 253.23778 95.22168 C 251.31376 101.6361 246.70927 97.74953 241.16513 101.37426 C 237.09654 104.03499 234.53264 109.22013 230.80211 112.72245 C 218.99215 123.80705 204.49447 135.99946 190.87616 148.87428 C 184.11238 155.26774 177.70073 158.9912 171.55293 163.7634 C 139.82685 188.3927 111.87413 218.86307 82.8672 238.17957 C 72.47846 255.90668 44.953246 276.7121 26.103794 293.76357 C 21.685588 297.75938 17.013315 303.96957 12.756392 306.29228 C 9.136168 308.2661 3.6852607 307.40946 -.49794833 309.45753 C -9.076826 313.65363 -13.359419 321.95706 -20.19521 328.6381 C -34.815745 342.92433 -49.24945 348.69006 -61.98052 353.095 C -54.21912 357.73972 -46.40296 361.8072 -37.90942 358.08347 C -36.483764 346.18547 -18.987959 340.21704 -8.749859 329.63942 C -5.882411 326.67202 -4.946524 323.6336 -2.2763024 321.5575 C 8.158084 313.4338 22.72447 312.6583 31.882474 310.12625 C 40.319363 318.04337 49.350376 319.17774 58.690324 316.7972 C 61.64377 313.66626 61.2497 307.29888 67.49725 306.75733 C 72.40076 306.99894 77.86944 313.58316 81.95711 314.50934 C 83.84711 314.93377 94.53488 315.03694 98.97414 309.5105 C 108.55326 297.58124 80.14069 287.39547 88.9771 275.4772 C 95.50847 266.6614 108.93635 269.17134 113.92443 270.45028 C 120.5564 272.1513 126.33351 275.29934 131.12168 279.88553 C 134.09451 282.73145 136.2247 287.49324 140.2589 290.77485 C 143.89677 293.73503 153.49032 297.03952 156.27154 297.22393 C 161.44054 297.5626 166.60514 297.4324 170.17766 294.83544 C 175.11784 291.24233 173.7258 284.89908 179.3604 280.50005 C 186.6989 274.7744 196.6669 282.85316 203.12798 272.4881 C 205.53721 268.6246 202.71118 258.7055 198.25424 254.0411 C 190.55385 245.98115 173.7871 247.46208 167.50476 234.77118 C 162.37603 224.41498 174.8614 213.8615 185.24461 213.25944 C 194.48441 212.7213 204.14648 219.2749 213.88336 223.69142 C 225.91053 229.14944 233.0476 232.5414 242.77707 231.26603 C 248.48987 230.51657 256.4157 229.09548 260.94655 221.32128 C 263.75026 216.5106 260.06217 205.24058 266.46416 199.46138 C 270.6078 195.71554 276.35427 197.98074 280.61793 194.2099 C 285.22613 190.1356 284.12983 185.78297 284.9819 177.29298 C 273.3965 155.95475 249.4475 169.5938 239.6708 159.62877 Z" fill="#fd432a"/>
        </g>
        <g id="Graphic_123">
          <path d="M 245.50036 191.85513 C 245.9742 192.97834 245.7865 194.97777 244.59619 193.93881 C 240.74854 196.73528 237.32167 194.71418 233.92837 192.28504 C 214.09675 190.3981 193.1051 188.5055 172.40878 186.9042 C 166.24957 186.4278 158.46164 187.2058 154.05971 182.41562 C 157.56227 180.8943 162.17221 181.52192 165.62977 181.98341 C 182.8653 184.28773 202.30326 185.3197 220.64826 187.51807 C 227.8432 188.3825 236.5304 187.46738 242.51315 193.0354 C 243.58614 191.76432 244.4699 192.64798 245.50036 191.85513 Z" fill="black"/>
        </g>
        <g id="Graphic_122">
          <path d="M 151.94938 173.58127 C 148.9721 176.48157 150.1716 172.30424 148.56084 171.12203 C 145.21701 173.95264 148.94693 177.40212 145.60157 180.23401 C 140.72078 175.48143 145.17914 171.54592 146.72737 167.35793 C 151.83702 139.4517 149.9983 110.93755 146.9585 82.31904 C 147.73604 81.66661 148.5151 81.0129 149.29264 80.36047 C 152.82262 81.37343 151.32769 86.93175 150.62544 89.84724 C 157.89116 101.53675 150.2896 111.92412 154.89981 123.37988 C 150.36546 134.27692 157.98024 146.23617 151.2426 156.93904 C 152.0822 162.53835 155.5125 168.36573 151.94938 173.58127 Z" fill="black"/>
        </g>
        <g id="Graphic_121">
          <path d="M 150.287 258.49352 C 145.84851 260.06002 142.6369 255.36758 139.87028 253.97778 C 130.17 249.10237 119.69244 247.4482 108.89418 245.50053 C 103.2873 244.48757 93.80494 245.23446 92.22606 238.2765 C 109.81997 243.14547 127.67608 245.06613 145.06499 252.27018 C 146.80566 254.34463 148.54633 256.41908 150.287 258.49352 Z" fill="black"/>
        </g>
        <g id="Graphic_120">
          <path d="M 37.21588 273.82907 C 34.244395 270.9272 37.277475 268.54923 37.19076 265.8976 C 34.394577 261.56803 32.631712 257.32957 31.815583 253.17393 C 39.42913 255.1113 43.18897 268.36016 37.21588 273.82907 Z" fill="black"/>
        </g>
        <g id="Graphic_119">
          <path d="M 263.59657 83.87312 C 273.31585 87.63082 279.4479 85.80507 284.96014 95.11236 C 289.0968 102.09891 287.93303 121.85894 278.31713 129.85192 C 268.7426 137.8102 252.868 131.7061 244.15783 141.28099 C 240.38176 145.43377 239.86382 151.61347 242.9082 155.58857 C 250.08426 164.96051 284.33786 155.7394 289.39523 176.23322 C 291.405 184.37522 288.59092 193.48287 278.0323 199.02688 C 276.0942 200.04482 272.63962 200.46588 270.50063 202.6928 C 265.67645 207.71852 270.30806 215.18135 265.8863 222.47107 C 261.9199 229.0184 256.58293 229.55303 248.1216 236.05635 C 234.5587 238.2456 222.37897 232.76287 207.90778 226.04903 C 196.10757 220.5768 186.99696 214.9651 174.47372 220.96185 C 166.65847 231.12255 176.48972 239.88 188.20846 245.2287 C 193.07696 247.45257 199.43378 248.09603 202.79343 251.55074 C 206.11699 254.97176 209.86533 265.05814 209.22417 268.69517 C 207.24447 279.908 193.15918 283.7927 182.74701 282.957 C 178.47225 287.26844 179.35464 291.93242 175.89572 295.33216 C 164.14676 306.88773 147.89312 297.70894 135.71176 293.25885 C 132.61972 287.05363 129.85145 282.76198 121.8792 278.3529 C 112.23702 273.01625 101.78458 268.76284 92.3596 277.93236 C 90.12129 289.71596 107.73195 293.8986 105.84337 305.05977 C 103.97955 316.084 89.60448 318.86727 79.49236 317.89598 C 75.37004 315.58903 71.45289 310.92075 67.117955 311.04404 C 56.29393 325.12227 41.087665 324.78208 30.070148 314.2904 C 24.611484 313.563 20.230395 317.1021 15.265607 318.76167 C 11.356697 320.06786 7.269093 319.53846 3.441874 322.0528 C -.9298275 324.9248 -8.058602 334.84104 -15.478373 340.57874 C -18.599927 342.9944 -22.979136 345.35183 -23.912282 346.33064 C -29.28417 351.97 -29.880212 358.03638 -35.302396 361.19195 C -40.22494 364.0562 -46.65991 361.36097 -51.28926 362.6751 C -54.815214 361.75406 -58.10264 358.11473 -61.707386 358.15923 C -64.3288 356.31862 -69.93502 359.34666 -70.04324 354.5474 C -63.58703 345.20334 -49.962195 346.24914 -39.924146 339.88092 C -25.21523 330.54764 -15.419447 314.8924 -1.5560828 305.0337 C -.3373562 300.33635 1.223963 295.66613 5.416734 291.22897 C 6.3751 285.00476 9.744867 280.49843 7.700107 273.4053 C 5.47958 265.71688 -1.2803155 262.54106 -.03650303 254.70926 C .27501138 252.74692 2.8074138 250.65592 2.673198 248.45797 C 2.3979316 243.8968 -1.910347 240.40523 -1.272013 235.8594 C -.6504777 231.4569 7.452039 222.5642 15.06465 222.1513 C 22.444022 221.75137 34.037672 234.64716 43.427695 227.516 C 56.59177 217.52088 39.96716 207.2357 31.875576 194.78755 C 25.866888 185.54045 24.272097 160.16087 32.118483 150.83692 C 36.86758 145.19278 39.891837 145.19545 46.52298 142.72769 C 50.075954 131.68941 63.41806 118.05295 73.24983 125.60376 C 76.67788 128.2361 76.76232 132.70676 79.40177 137.67565 C 86.28511 150.62852 94.2555 162.67709 105.48668 160.86092 C 111.32503 156.39666 115.09329 150.80797 116.87744 146.00037 C 117.88167 143.2923 119.37722 137.7674 119.30874 134.68013 C 119.04741 122.75521 109.37636 110.19514 108.0062 99.09099 C 105.92866 82.26353 120.17671 63.294035 139.751 65.82639 C 150.39208 52.73582 165.6551 46.861644 175.89438 64.66651 C 176.31739 76.95835 174.47435 89.05122 179.14012 101.71355 C 183.25383 104.12693 187.53999 104.56935 191.89238 104.27085 C 207.34576 94.38729 203.46433 68.889995 222.02623 56.44769 C 232.15645 49.658816 251.69465 49.44745 260.53117 61.258765 C 266.5078 69.24954 261.02108 74.92781 263.59657 83.87312 Z M 239.66874 159.62788 C 231.1554 150.9538 236.86226 140.75557 241.67142 136.73718 C 250.68596 129.20832 267.9701 133.30986 274.92718 127.39256 C 283.37992 120.20849 283.80208 100.51987 277.15213 93.71022 C 271.23787 87.65132 265.05064 94.08316 259.05417 86.35966 C 253.00664 78.57066 261.63905 72.41592 254.556 63.61995 C 248.41413 55.99234 237.63294 55.3018 232.81762 56.67278 C 208.91637 63.47842 213.90261 96.58995 194.50185 107.3838 C 188.8553 110.52401 181.31389 110.07433 176.67934 105.10337 C 164.96953 92.53742 180.69223 58.86267 156.23828 58.62338 C 151.18404 61.4676 146.01266 65.634595 140.80502 70.24843 C 134.62501 71.82724 127.48536 70.84202 121.57972 75.77525 C 107.93056 87.17735 117.07939 106.65565 120.68592 118.94706 C 122.85653 126.33796 124.34852 134.21605 122.19765 142.8664 C 119.97162 151.8161 112.83546 164.0478 101.59545 164.13127 C 94.95379 164.1798 89.88218 159.22313 85.83098 154.82138 C 75.06546 143.12877 74.82411 126.26178 62.205314 128.24757 C 52.90348 133.67298 54.87079 140.8076 49.910903 145.19397 C 45.9951 148.65595 40.508256 147.05797 36.409046 151.22081 C 35.3496 152.29647 34.552954 155.73109 33.575006 158.90142 C 31.072107 167.00778 31.590685 184.67342 35.766465 191.52923 C 40.19474 198.80108 50.597556 205.22003 52.61046 213.1884 C 54.01282 218.7241 50.29851 226.77912 44.609773 230.5069 C 32.97349 238.13788 17.055038 220.61694 7.1605135 230.11518 C 2.8227707 234.27845 4.0240964 240.37575 7.865239 246.75653 C 6.72875 250.40843 3.8530757 254.68684 4.655635 258.72985 C 5.9400685 265.20778 12.241933 269.69216 13.293354 275.3448 C 15.53669 287.3402 5.065032 291.5737 4.942103 304.88887 C 25.773315 293.53307 42.87193 274.353 59.40097 259.19246 C 63.31225 255.60373 67.87826 252.94465 71.06706 249.40344 C 74.76749 245.29586 75.93842 237.9077 82.335775 235.9703 C 83.41156 217.6378 79.50011 195.4044 68.86894 175.6857 C 64.36993 167.3401 57.4657 160.19163 62.6897 155.68286 C 69.455735 166.36614 71.73259 176.65597 78.65988 187.35408 C 80.20777 194.4229 81.58107 201.50769 83.28405 208.66177 C 85.00799 215.91706 86.42243 223.91897 91.54697 229.56878 C 108.1301 217.02717 122.08307 196.22185 140.55773 188.44387 C 142.58779 180.4523 150.67571 179.5962 156.11686 175.38821 C 172.16855 162.97401 190.83186 145.5918 206.93238 130.09634 C 218.18866 119.26355 227.86867 107.26008 239.98204 98.38681 C 243.0445 96.14344 248.979 88.65743 253.23497 95.22143 C 251.31095 101.63586 246.70646 97.74928 241.1623 101.37402 C 237.09372 104.03475 234.52982 109.21988 230.7993 112.7222 C 218.98934 123.8068 204.49165 135.99922 190.87335 148.87403 C 184.10956 155.2675 177.6979 158.99095 171.55012 163.76316 C 139.82403 188.39246 111.87131 218.86283 82.86438 238.17932 C 72.47565 255.90643 44.95043 276.71184 26.100977 293.76332 C 21.68277 297.75913 17.010497 303.96932 12.753574 306.29203 C 9.133351 308.26585 3.682443 307.4092 -.500766 309.4573 C -9.079643 313.65338 -13.362237 321.9568 -20.198028 328.63784 C -34.818562 342.9241 -49.252267 348.6898 -61.983336 353.09474 C -54.22194 357.73948 -46.40578 361.80695 -37.912237 358.08322 C -36.48658 346.18523 -18.990777 340.2168 -8.752677 329.63918 C -5.885229 326.67178 -4.9493415 323.63334 -2.27912 321.55724 C 8.155266 313.43357 22.72165 312.65804 31.879656 310.126 C 40.316545 318.04313 49.34756 319.1775 58.68751 316.79695 C 61.64095 313.666 61.246884 307.29863 67.494435 306.7571 C 72.39794 306.9987 77.86662 313.5829 81.95429 314.5091 C 83.84429 314.93353 94.53207 315.0367 98.97133 309.51025 C 108.55044 297.581 80.13787 287.39522 88.97428 275.47695 C 95.50565 266.66116 108.93353 269.1711 113.92161 270.45004 C 120.55358 272.15105 126.3307 275.2991 131.11886 279.8853 C 134.0917 282.7312 136.22188 287.493 140.25609 290.7746 C 143.89395 293.73478 153.4875 297.03927 156.26872 297.2237 C 161.43772 297.56234 166.60232 297.43214 170.17485 294.8352 C 175.11502 291.2421 173.72298 284.89883 179.35758 280.4998 C 186.6961 274.77415 196.6641 282.85292 203.12516 272.48786 C 205.5344 268.62434 202.70836 258.70525 198.25142 254.04086 C 190.55103 245.9809 173.78428 247.46183 167.50194 234.77094 C 162.3732 224.41473 174.85858 213.86125 185.2418 213.2592 C 194.4816 212.72106 204.14366 219.27466 213.88054 223.69118 C 225.9077 229.1492 233.04477 232.54115 242.77425 231.26578 C 248.48705 230.51633 256.41288 229.09523 260.94374 221.32103 C 263.74744 216.51036 260.05936 205.24033 266.46134 199.46114 C 270.605 195.7153 276.35145 197.9805 280.6151 194.20966 C 285.2233 190.13536 284.127 185.78273 284.9791 177.29273 C 273.39444 155.95386 249.44545 169.5929 239.66874 159.62788 Z" fill="black"/>
        </g>
      </g>
    </g>
  </g>
</svg>
