<?xml version="1.0" encoding="iso-8859-1"?>
<svg version="1.1" id="Layer_1" xmlns="http://www.w3.org/2000/svg" xmlns:xlink="http://www.w3.org/1999/xlink" x="0px" y="0px"
	 viewBox="0 0 512.09 512.09" style="enable-background:new 0 0 512.09 512.09;" xml:space="preserve">
<g transform="translate(0 -1)">
	<g>
		<g>
			<path d="M467.71,475.851c-19.116-92.095-114.048-206.572-172.192-269.759c2.977-5.937,4.663-12.629,4.663-19.711
				c0-14.395-6.929-27.2-17.624-35.262c0.591-5.953,6.181-53.018,35.279-53.018c45.877,0,60.195-77.939,61.67-86.819
				c0.803-4.811-2.445-9.366-7.247-10.161c-4.837-0.803-9.357,2.454-10.161,7.247c-3.116,18.706-17.938,72.077-44.262,72.077
				c-38.584,0-49.337,45.047-52.079,62.887c-3.128-0.706-6.376-1.09-9.714-1.09c-3.338,0-6.586,0.385-9.715,1.09
				c-2.743-17.847-13.497-62.888-52.078-62.888c-26.386,0-40.898-52.03-44.262-72.077c-0.803-4.793-5.367-8.015-10.161-7.239
				c-4.802,0.794-8.051,5.341-7.247,10.152c1.474,8.881,15.793,86.819,61.669,86.819c28.961,0,34.669,47.038,35.277,53.02
				c-10.694,8.062-17.622,20.866-17.622,35.26c0,7.083,1.687,13.775,4.664,19.713C158.407,269.299,63.433,383.814,44.42,475.687
				c-0.327,1.395-2.966,13.895,5.782,24.567c6.983,8.527,18.759,12.835,35.019,12.835c1.112,0,2.251-0.018,3.407-0.062
				c0.415-0.018,0.83-0.062,1.236-0.132c1.801-0.318,44.623-8.113,87.684-29.917c39.246-19.879,65.726-45.052,78.514-74.073
				c12.8,29.071,39.267,54.209,78.474,74.069c43.061,21.804,85.884,29.599,87.684,29.917c0.406,0.079,0.821,0.124,1.236,0.141
				c1.156,0.035,2.295,0.053,3.407,0.053c16.26,0,28.036-4.308,35.019-12.835C470.358,489.922,468.151,477.872,467.71,475.851z
				 M282.526,186.381c0,5.492-1.682,10.599-4.557,14.834c-0.215,0.235-0.419,0.483-0.608,0.743
				c-2.193,2.996-4.886,5.438-7.918,7.251c-0.139,0.082-0.28,0.163-0.421,0.242c-0.2,0.114-0.402,0.224-0.604,0.333
				c-3.696,1.963-7.907,3.08-12.375,3.08c-4.501,0-8.741-1.132-12.457-3.122c-0.134-0.073-0.269-0.146-0.402-0.222
				c-0.199-0.111-0.395-0.224-0.591-0.34c-3.011-1.811-5.688-4.244-7.868-7.227c-0.192-0.262-0.399-0.512-0.616-0.749
				c-2.87-4.233-4.549-9.335-4.549-14.822c0-14.601,11.882-26.483,26.483-26.483C270.644,159.898,282.526,171.78,282.526,186.381z
				 M87.358,495.408c-11.502,0.256-19.747-1.898-23.402-6.224c-3.407-4.025-2.375-9.331-2.304-9.675
				c18.543-89.563,117.628-206.523,165.997-259.372c4.831,4.07,10.543,7.121,16.806,8.827c0.047,0.013,0.094,0.027,0.142,0.04
				c0.786,0.211,1.578,0.405,2.381,0.574c0.08,0.017,0.158,0.041,0.238,0.057l0.001,19.493v114.09
				c-0.057,2.005-0.047,3.994,0.003,5.974C244.346,463.162,97.934,493.35,87.358,495.408z M448.13,489.18
				c-3.655,4.334-11.9,6.532-23.402,6.223c-10.561-2.047-156.569-32.159-159.85-126.082c0.051-2.106,0.064-4.221-0.007-6.354V229.64
				c0.212-0.044,0.42-0.105,0.632-0.153c0.652-0.143,1.3-0.298,1.942-0.47c0.087-0.024,0.173-0.05,0.259-0.074
				c6.235-1.711,11.923-4.753,16.735-8.808c48.37,52.86,147.453,169.817,165.995,259.379l0.026,0.115
				C450.505,479.859,451.538,485.155,448.13,489.18z" stroke="white" fill="white"/>
			<path d="M216.681,311.426c-4.096-2.639-9.56-1.448-12.2,2.648l-30.07,46.776l-11.526-5.763
				c-4.361-2.189-9.657-0.406-11.847,3.955c-2.18,4.361-0.406,9.657,3.955,11.847l9.811,4.905l-39.771,61.867
				c-2.639,4.105-1.448,9.56,2.648,12.2c1.474,0.953,3.134,1.404,4.767,1.404c2.904,0,5.747-1.43,7.433-4.052l79.448-123.586
				C221.969,319.521,220.777,314.066,216.681,311.426z" stroke="white" fill="white"/>
			<path d="M347.282,375.794l9.811-4.905c4.361-2.189,6.135-7.486,3.955-11.847c-2.189-4.361-7.477-6.144-11.847-3.955
				l-11.526,5.763l-30.07-46.776c-2.639-4.096-8.104-5.288-12.2-2.648c-4.096,2.639-5.288,8.095-2.648,12.2l79.448,123.586
				c1.686,2.622,4.529,4.052,7.433,4.052c1.633,0,3.293-0.45,4.767-1.404c4.096-2.639,5.288-8.095,2.648-12.2L347.282,375.794z" stroke="white" fill="white"/>
		</g>
	</g>
</g>
</svg>
