<?xml version="1.0" encoding="iso-8859-1"?>
<svg version="1.1" id="Layer_1" xmlns="http://www.w3.org/2000/svg" xmlns:xlink="http://www.w3.org/1999/xlink" x="0px" y="0px"
	 viewBox="0 0 512.004 512.004" style="enable-background:new 0 0 512.004 512.004;" xml:space="preserve">
<g>
	<g>
		<path d="M510.565,362.199l-51.2-76.8c-1.007-1.51-2.475-2.662-4.181-3.285l-91.375-33.227
			c-17.222-24.592-36.051-47.566-50.681-64.504l55.879-13.97c2.193-0.546,4.079-1.946,5.239-3.883l25.6-42.667
			c2.432-4.045,1.118-9.284-2.918-11.708c-4.045-2.432-9.293-1.126-11.708,2.918l-23.791,39.637l-55.885,13.975
			c1.079-4.82,1.656-9.874,1.656-15.083c0-6.702-0.961-13.215-2.751-19.341c0.083-0.077,0.17-0.146,0.25-0.226l34.133-34.133
			c1.604-1.596,2.5-3.772,2.5-6.033v-25.6c0-4.71-3.823-8.533-8.533-8.533c-4.71,0-8.533,3.823-8.533,8.533v22.067l-27.357,27.357
			c-1.502-2.319-3.155-4.513-4.95-6.571c4.163-4.555,6.707-10.612,6.707-17.253c0-10.944-6.908-20.304-16.59-23.958
			c3.377-24.987,24.825-44.309,50.723-44.309c4.71,0,8.533-3.823,8.533-8.533s-3.823-8.533-8.533-8.533
			c-34.749,0-63.499,26.108-67.714,59.733h-18.172c-4.215-33.625-32.965-59.733-67.714-59.733c-4.71,0-8.533,3.823-8.533,8.533
			s3.823,8.533,8.533,8.533c25.899,0,47.347,19.322,50.723,44.309c-9.682,3.654-16.59,13.014-16.59,23.958
			c0,6.64,2.544,12.698,6.706,17.252c-1.795,2.057-3.448,4.251-4.95,6.571l-27.356-27.356V68.269c0-4.71-3.823-8.533-8.533-8.533
			s-8.533,3.823-8.533,8.533v25.6c0,2.261,0.896,4.437,2.5,6.033l34.133,34.133c0.081,0.081,0.168,0.15,0.251,0.227
			c-1.79,6.127-2.751,12.639-2.751,19.341c0,5.209,0.578,10.263,1.656,15.084l-55.887-13.975l-23.791-39.637
			c-2.423-4.036-7.663-5.342-11.708-2.918c-4.036,2.424-5.35,7.663-2.918,11.708l25.6,42.667c1.161,1.937,3.046,3.337,5.24,3.883
			l55.888,13.972c-14.597,16.914-33.378,39.856-50.58,64.462l-91.486,33.268c-1.707,0.623-3.174,1.775-4.181,3.285l-51.2,76.8
			c-2.611,3.925-1.553,9.225,2.364,11.836c1.459,0.973,3.106,1.434,4.727,1.434c2.756,0,5.461-1.331,7.108-3.797l49.647-74.47
			l67.238-24.45c-14.541,23.495-26.122,47.222-30.072,67.652c-0.026,0.307-0.316,3.106-0.043,7.322
			c0.956,15.138,7.885,28.996,19.507,39.04c10.709,9.25,24.627,14.353,38.81,14.353c1.621,0,3.243-0.068,4.873-0.205
			c7.971-0.662,15.156-1.979,21.533-3.901c-3.269,8.908-5.195,17.062-6.318,23.736c-3.695,21.905-14.131,41.993-30.029,57.958
			c-0.623,0.572-3.311,2.876-5.888,5.094c-2.816,2.415-5.487,4.736-5.82,5.06c-3.311,3.268-3.345,8.542-0.145,11.913
			c1.664,1.749,3.917,2.628,6.17,2.628c2.082,0,4.181-0.751,5.828-2.261c0.529-0.486,2.756-2.398,5.086-4.395
			c3.123-2.68,6.366-5.504,6.716-5.854c18.551-18.62,30.626-41.89,34.91-67.311c1.929-11.418,6.534-27.81,17.45-44.403
			c7.566,22.411,19.185,43.283,34.357,61.489c1.621,1.946,4.028,3.072,6.562,3.072c2.526,0,4.932-1.126,6.554-3.072
			c15.173-18.207,26.792-39.08,34.358-61.493c10.918,16.594,15.523,32.987,17.452,44.406c4.284,25.421,16.35,48.691,34.884,67.285
			c0.367,0.375,3.618,3.2,6.741,5.88c2.287,1.963,4.489,3.857,5.06,4.378c1.647,1.562,3.763,2.347,5.879,2.347
			c2.202,0,4.403-0.845,6.076-2.534c3.311-3.354,3.277-8.764-0.077-12.075c-0.333-0.324-3.012-2.645-5.82-5.06
			c-2.577-2.21-5.274-4.523-5.743-4.958c-16.051-16.094-26.479-36.181-30.174-58.095c-1.127-6.674-3.053-14.827-6.321-23.734
			c6.376,1.922,13.562,3.239,21.531,3.901c1.63,0.137,3.251,0.205,4.872,0.205c14.182,0,28.1-5.111,38.81-14.362
			c11.631-10.035,18.551-23.893,19.507-39.04c0.273-4.207-0.009-6.989-0.154-8.004c-3.901-20.143-15.379-43.613-29.816-66.909
			l67.094,24.398l49.647,74.47c1.638,2.466,4.352,3.797,7.108,3.797c1.621,0,3.268-0.461,4.727-1.434
			C512.127,371.424,513.185,366.125,510.565,362.199z M282.846,367.037c-0.408-0.06-0.822-0.101-1.247-0.101h-51.2
			c-0.425,0-0.839,0.041-1.247,0.101c-1.998-6.795-3.599-13.727-4.775-20.764c0.292-1.548,0.599-3.196,0.922-4.937h61.399
			c0.322,1.742,0.63,3.391,0.922,4.94C286.445,353.312,284.843,360.242,282.846,367.037z M238.932,85.335h34.133
			c4.702,0,8.533,3.831,8.533,8.533c0,3.524-2.153,6.559-5.211,7.859c-0.235,0.054-0.47,0.106-0.702,0.181
			c-0.77,0.255-1.43,0.404-2.028,0.464c-0.197,0.014-0.393,0.03-0.593,0.03h-34.133c-0.2,0-0.396-0.016-0.592-0.03
			c-0.597-0.06-1.255-0.208-2.018-0.456c-0.231-0.076-0.465-0.128-0.698-0.184c-3.065-1.296-5.224-4.335-5.224-7.864
			C230.399,89.167,234.23,85.335,238.932,85.335z M221.866,153.603c0-13.518,5.294-26.311,13.998-34.325
			c0.974,0.117,1.964,0.184,2.968,0.188c0.034,0,0.067,0.003,0.101,0.003h34.133c0.035,0,0.071-0.003,0.107-0.004
			c1.002-0.004,1.99-0.071,2.962-0.188c8.713,8.014,13.998,20.815,13.998,34.325c0,1.654-0.084,3.284-0.231,4.889
			c-1.103-1.176-1.838-1.95-2.129-2.255c-2.031-2.116-4.975-3.038-7.893-2.458c-2.884,0.589-5.248,2.62-6.281,5.376
			c-2.927,7.854-4.195,19.687-4.323,33.753c-4.083,2.164-8.57,3.361-13.276,3.361c-4.708,0-9.195-1.197-13.278-3.36
			c-0.128-14.065-1.396-25.9-4.323-33.755c-1.024-2.756-3.396-4.787-6.281-5.376c-2.91-0.589-5.862,0.341-7.893,2.458
			c-0.291,0.305-1.026,1.078-2.127,2.253C221.95,156.884,221.866,155.256,221.866,153.603z M232.577,298.669h46.843
			c1.429,9.174,2.869,17.816,4.22,25.6h-55.283C229.708,316.484,231.148,307.842,232.577,298.669z M276.875,281.602h-41.753
			c1.193-8.378,2.329-16.986,3.344-25.605l35.064-0.017C274.545,264.604,275.682,273.218,276.875,281.602z M271.697,238.939H240.3
			c0.921-9.545,1.631-18.907,2.042-27.777c4.351,1.407,8.928,2.174,13.658,2.174c4.729,0,9.305-0.767,13.656-2.174
			C270.066,220.033,270.776,229.394,271.697,238.939z M164.175,383.905c-11.264,0.93-22.622-2.731-31.113-10.061
			c-8.124-7.014-12.962-16.674-13.628-27.204c-0.145-2.219-0.068-3.763-0.102-3.763c0,0-0.009,0.017-0.017,0.043
			c9.057-46.653,65.518-116.436,96.671-152.112c2.801,4.092,6.047,7.75,9.661,10.865c-0.533,20.032-3.086,44.696-6.354,68.991
			c-0.005,0.041-0.011,0.082-0.016,0.123c-0.09,0.669-0.182,1.338-0.273,2.006c-0.107,0.781-0.213,1.563-0.321,2.341
			c-0.006,0.044-0.012,0.088-0.018,0.132c-3.91,28.148-8.524,54.133-11.351,69.246c-0.035,0.185-0.058,0.372-0.08,0.558
			c-0.813,4.304-1.577,8.217-2.267,11.647c-0.068,0.333-0.111,0.666-0.137,1.007C203.318,376.695,181.89,382.429,164.175,383.905z
			 M256.003,421.364c-8.483-11.552-15.484-24.111-20.9-37.362h41.792C271.481,397.253,264.482,409.812,256.003,421.364z
			 M392.562,346.65c-0.666,10.522-5.504,20.181-13.628,27.196c-8.491,7.33-19.831,10.982-31.113,10.061
			c-17.707-1.476-39.142-7.211-40.644-26.18c-0.034-0.341-0.077-0.674-0.145-1.007c-0.69-3.427-1.452-7.335-2.264-11.633
			c-0.023-0.192-0.047-0.383-0.083-0.573c-2.827-15.115-7.443-41.104-11.353-69.256c-0.005-0.037-0.01-0.073-0.015-0.11
			c-0.107-0.773-0.213-1.549-0.319-2.324c-3.407-24.987-6.098-50.522-6.648-71.148c3.617-3.117,6.866-6.779,9.669-10.875
			c15.139,17.318,36.244,42.66,54.977,69.437c0.25,0.439,0.542,0.853,0.868,1.243c19.447,27.955,36.17,57.351,40.706,80.715
			C392.605,342.477,392.724,344.132,392.562,346.65z" stroke="white" fill="white"/>
	</g>
</g>
</svg>
